<mxfile host="Electron" agent="Mozilla/5.0 (Windows NT 10.0; Win64; x64) AppleWebKit/537.36 (KHTML, like Gecko) draw.io/28.1.2 Chrome/138.0.7204.243 Electron/37.4.0 Safari/537.36" version="28.1.2">
  <diagram name="Trang-1" id="3bbvHLTkRVdoyDFZIBnt">
    <mxGraphModel dx="2172" dy="833" grid="1" gridSize="10" guides="1" tooltips="1" connect="1" arrows="1" fold="1" page="1" pageScale="1" pageWidth="827" pageHeight="1169" math="0" shadow="0">
      <root>
        <mxCell id="0" />
        <mxCell id="1" parent="0" />
        <mxCell id="pSM0JxgnrJH14uDleLFP-10" value="Branch" style="swimlane;childLayout=stackLayout;horizontal=1;startSize=50;horizontalStack=0;rounded=1;fontSize=14;fontStyle=0;strokeWidth=2;resizeParent=0;resizeLast=1;shadow=0;dashed=0;align=center;arcSize=4;whiteSpace=wrap;html=1;" vertex="1" parent="1">
          <mxGeometry x="-475" y="60" width="160" height="180" as="geometry" />
        </mxCell>
        <mxCell id="pSM0JxgnrJH14uDleLFP-11" value="+Name PK&lt;br&gt;+AddressNo&lt;br&gt;+Street&lt;div&gt;+District&lt;/div&gt;&lt;div&gt;+CIty&lt;/div&gt;&lt;div&gt;+Region&lt;/div&gt;&lt;div&gt;+Email&lt;/div&gt;&lt;div&gt;+MngCode FK&lt;/div&gt;" style="align=left;strokeColor=none;fillColor=none;spacingLeft=4;spacingRight=4;fontSize=12;verticalAlign=top;resizable=0;rotatable=0;part=1;html=1;whiteSpace=wrap;" vertex="1" parent="pSM0JxgnrJH14uDleLFP-10">
          <mxGeometry y="50" width="160" height="130" as="geometry" />
        </mxCell>
        <mxCell id="pSM0JxgnrJH14uDleLFP-12" value="Employee" style="swimlane;childLayout=stackLayout;horizontal=1;startSize=50;horizontalStack=0;rounded=1;fontSize=14;fontStyle=0;strokeWidth=2;resizeParent=0;resizeLast=1;shadow=0;dashed=0;align=center;arcSize=4;whiteSpace=wrap;html=1;" vertex="1" parent="1">
          <mxGeometry x="-182" y="50" width="200" height="200" as="geometry" />
        </mxCell>
        <mxCell id="pSM0JxgnrJH14uDleLFP-13" value="+Code PK&lt;br&gt;+FName&lt;br&gt;+LName&lt;div&gt;+AddressNo&lt;/div&gt;&lt;div&gt;+Street&lt;/div&gt;&lt;div&gt;+District&lt;/div&gt;&lt;div&gt;+City&lt;/div&gt;&lt;div&gt;+DOB&lt;/div&gt;&lt;div&gt;+Email&lt;/div&gt;&lt;div&gt;+BraName FK-&amp;gt;BRANCH.Name&amp;nbsp;&lt;/div&gt;" style="align=left;strokeColor=none;fillColor=none;spacingLeft=4;spacingRight=4;fontSize=12;verticalAlign=top;resizable=0;rotatable=0;part=1;html=1;whiteSpace=wrap;" vertex="1" parent="pSM0JxgnrJH14uDleLFP-12">
          <mxGeometry y="50" width="200" height="150" as="geometry" />
        </mxCell>
        <mxCell id="pSM0JxgnrJH14uDleLFP-14" value="Customer" style="swimlane;childLayout=stackLayout;horizontal=1;startSize=50;horizontalStack=0;rounded=1;fontSize=14;fontStyle=0;strokeWidth=2;resizeParent=0;resizeLast=1;shadow=0;dashed=0;align=center;arcSize=4;whiteSpace=wrap;html=1;" vertex="1" parent="1">
          <mxGeometry x="-185" y="380" width="206" height="160" as="geometry" />
        </mxCell>
        <mxCell id="pSM0JxgnrJH14uDleLFP-15" value="+Code PK&lt;br&gt;+FName&lt;br&gt;+LName&lt;div&gt;+OfficeAddress&lt;/div&gt;&lt;div&gt;+HomeAddress&lt;/div&gt;&lt;div&gt;+Email&lt;/div&gt;&lt;div&gt;+EmpCode FK-&amp;gt;EMPLOYEE.Code&lt;/div&gt;" style="align=left;strokeColor=none;fillColor=none;spacingLeft=4;spacingRight=4;fontSize=12;verticalAlign=top;resizable=0;rotatable=0;part=1;html=1;whiteSpace=wrap;" vertex="1" parent="pSM0JxgnrJH14uDleLFP-14">
          <mxGeometry y="50" width="206" height="110" as="geometry" />
        </mxCell>
        <mxCell id="pSM0JxgnrJH14uDleLFP-43" style="edgeStyle=orthogonalEdgeStyle;rounded=0;orthogonalLoop=1;jettySize=auto;html=1;exitX=1;exitY=0.25;exitDx=0;exitDy=0;entryX=0;entryY=0.5;entryDx=0;entryDy=0;endArrow=ERmany;endFill=0;startArrow=ERone;startFill=0;" edge="1" parent="1" source="pSM0JxgnrJH14uDleLFP-15" target="pSM0JxgnrJH14uDleLFP-25">
          <mxGeometry relative="1" as="geometry">
            <Array as="points">
              <mxPoint x="45" y="458" />
              <mxPoint x="45" y="320" />
            </Array>
          </mxGeometry>
        </mxCell>
        <mxCell id="pSM0JxgnrJH14uDleLFP-16" value="Account" style="swimlane;childLayout=stackLayout;horizontal=1;startSize=50;horizontalStack=0;rounded=1;fontSize=14;fontStyle=0;strokeWidth=2;resizeParent=0;resizeLast=1;shadow=0;dashed=0;align=center;arcSize=4;whiteSpace=wrap;html=1;" vertex="1" parent="1">
          <mxGeometry x="-515" y="290" width="200" height="120" as="geometry" />
        </mxCell>
        <mxCell id="pSM0JxgnrJH14uDleLFP-17" value="+Number PK&lt;div&gt;+CusCode FK-&amp;gt;CUSTOMER.Code&lt;/div&gt;&lt;div&gt;&lt;br&gt;&lt;/div&gt;" style="align=left;strokeColor=none;fillColor=none;spacingLeft=4;spacingRight=4;fontSize=12;verticalAlign=top;resizable=0;rotatable=0;part=1;html=1;whiteSpace=wrap;" vertex="1" parent="pSM0JxgnrJH14uDleLFP-16">
          <mxGeometry y="50" width="200" height="70" as="geometry" />
        </mxCell>
        <mxCell id="pSM0JxgnrJH14uDleLFP-19" value="BranchPhone" style="swimlane;childLayout=stackLayout;horizontal=1;startSize=50;horizontalStack=0;rounded=1;fontSize=14;fontStyle=0;strokeWidth=2;resizeParent=0;resizeLast=1;shadow=0;dashed=0;align=center;arcSize=4;whiteSpace=wrap;html=1;" vertex="1" parent="1">
          <mxGeometry x="-785" y="40" width="210" height="90" as="geometry" />
        </mxCell>
        <mxCell id="pSM0JxgnrJH14uDleLFP-20" value="+BraName PK,FK-&amp;gt;BRANCH.Name&lt;div&gt;+Phone PK&lt;/div&gt;" style="align=left;strokeColor=none;fillColor=none;spacingLeft=4;spacingRight=4;fontSize=12;verticalAlign=top;resizable=0;rotatable=0;part=1;html=1;whiteSpace=wrap;" vertex="1" parent="pSM0JxgnrJH14uDleLFP-19">
          <mxGeometry y="50" width="210" height="40" as="geometry" />
        </mxCell>
        <mxCell id="pSM0JxgnrJH14uDleLFP-42" style="edgeStyle=orthogonalEdgeStyle;rounded=0;orthogonalLoop=1;jettySize=auto;html=1;exitX=1;exitY=0.25;exitDx=0;exitDy=0;entryX=0;entryY=0.5;entryDx=0;entryDy=0;endArrow=ERone;endFill=0;startArrow=ERmany;startFill=0;" edge="1" parent="1" source="pSM0JxgnrJH14uDleLFP-21" target="pSM0JxgnrJH14uDleLFP-11">
          <mxGeometry relative="1" as="geometry" />
        </mxCell>
        <mxCell id="pSM0JxgnrJH14uDleLFP-21" value="BranchFax" style="swimlane;childLayout=stackLayout;horizontal=1;startSize=50;horizontalStack=0;rounded=1;fontSize=14;fontStyle=0;strokeWidth=2;resizeParent=0;resizeLast=1;shadow=0;dashed=0;align=center;arcSize=4;whiteSpace=wrap;html=1;" vertex="1" parent="1">
          <mxGeometry x="-785" y="160" width="210" height="90" as="geometry" />
        </mxCell>
        <mxCell id="pSM0JxgnrJH14uDleLFP-22" value="+BraName PK,FK-&amp;gt;BRANCH.Name&lt;div&gt;+Fax PK&lt;/div&gt;" style="align=left;strokeColor=none;fillColor=none;spacingLeft=4;spacingRight=4;fontSize=12;verticalAlign=top;resizable=0;rotatable=0;part=1;html=1;whiteSpace=wrap;" vertex="1" parent="pSM0JxgnrJH14uDleLFP-21">
          <mxGeometry y="50" width="210" height="40" as="geometry" />
        </mxCell>
        <mxCell id="pSM0JxgnrJH14uDleLFP-23" value="EmployeePhone" style="swimlane;childLayout=stackLayout;horizontal=1;startSize=50;horizontalStack=0;rounded=1;fontSize=14;fontStyle=0;strokeWidth=2;resizeParent=0;resizeLast=1;shadow=0;dashed=0;align=center;arcSize=4;whiteSpace=wrap;html=1;" vertex="1" parent="1">
          <mxGeometry x="85" y="50" width="220" height="90" as="geometry" />
        </mxCell>
        <mxCell id="pSM0JxgnrJH14uDleLFP-24" value="+EmpCode PK,FK-&amp;gt;EMPLOYEE.Code&lt;div&gt;+Phone PK&lt;/div&gt;" style="align=left;strokeColor=none;fillColor=none;spacingLeft=4;spacingRight=4;fontSize=12;verticalAlign=top;resizable=0;rotatable=0;part=1;html=1;whiteSpace=wrap;" vertex="1" parent="pSM0JxgnrJH14uDleLFP-23">
          <mxGeometry y="50" width="220" height="40" as="geometry" />
        </mxCell>
        <mxCell id="pSM0JxgnrJH14uDleLFP-25" value="CustomerPhone" style="swimlane;childLayout=stackLayout;horizontal=1;startSize=50;horizontalStack=0;rounded=1;fontSize=14;fontStyle=0;strokeWidth=2;resizeParent=0;resizeLast=1;shadow=0;dashed=0;align=center;arcSize=4;whiteSpace=wrap;html=1;" vertex="1" parent="1">
          <mxGeometry x="85" y="275" width="220" height="90" as="geometry" />
        </mxCell>
        <mxCell id="pSM0JxgnrJH14uDleLFP-26" value="+CusCode PK,FK-&amp;gt;CUSTOMER.Code&lt;div&gt;+Phone PK&lt;/div&gt;" style="align=left;strokeColor=none;fillColor=none;spacingLeft=4;spacingRight=4;fontSize=12;verticalAlign=top;resizable=0;rotatable=0;part=1;html=1;whiteSpace=wrap;" vertex="1" parent="pSM0JxgnrJH14uDleLFP-25">
          <mxGeometry y="50" width="220" height="40" as="geometry" />
        </mxCell>
        <mxCell id="pSM0JxgnrJH14uDleLFP-27" value="CheckingAccount" style="swimlane;childLayout=stackLayout;horizontal=1;startSize=50;horizontalStack=0;rounded=1;fontSize=14;fontStyle=0;strokeWidth=2;resizeParent=0;resizeLast=1;shadow=0;dashed=0;align=center;arcSize=4;whiteSpace=wrap;html=1;" vertex="1" parent="1">
          <mxGeometry x="-535" y="440" width="220" height="100" as="geometry" />
        </mxCell>
        <mxCell id="pSM0JxgnrJH14uDleLFP-28" value="+AccNumber PK-&amp;gt;ACCOUNT.Number&lt;div&gt;+Balance&lt;/div&gt;&lt;div&gt;+OpenedDate&lt;/div&gt;" style="align=left;strokeColor=none;fillColor=none;spacingLeft=4;spacingRight=4;fontSize=12;verticalAlign=top;resizable=0;rotatable=0;part=1;html=1;whiteSpace=wrap;" vertex="1" parent="pSM0JxgnrJH14uDleLFP-27">
          <mxGeometry y="50" width="220" height="50" as="geometry" />
        </mxCell>
        <mxCell id="pSM0JxgnrJH14uDleLFP-29" value="Loan" style="swimlane;childLayout=stackLayout;horizontal=1;startSize=50;horizontalStack=0;rounded=1;fontSize=14;fontStyle=0;strokeWidth=2;resizeParent=0;resizeLast=1;shadow=0;dashed=0;align=center;arcSize=4;whiteSpace=wrap;html=1;" vertex="1" parent="1">
          <mxGeometry x="-785" y="420" width="220" height="120" as="geometry" />
        </mxCell>
        <mxCell id="pSM0JxgnrJH14uDleLFP-30" value="+AccNumber PK-&amp;gt;ACCOUNT.Number&lt;div&gt;+BalanceDue&lt;/div&gt;&lt;div&gt;+InterestRate&lt;/div&gt;&lt;div&gt;+TakenDate&lt;/div&gt;" style="align=left;strokeColor=none;fillColor=none;spacingLeft=4;spacingRight=4;fontSize=12;verticalAlign=top;resizable=0;rotatable=0;part=1;html=1;whiteSpace=wrap;" vertex="1" parent="pSM0JxgnrJH14uDleLFP-29">
          <mxGeometry y="50" width="220" height="70" as="geometry" />
        </mxCell>
        <mxCell id="pSM0JxgnrJH14uDleLFP-31" value="SavingAccount" style="swimlane;childLayout=stackLayout;horizontal=1;startSize=50;horizontalStack=0;rounded=1;fontSize=14;fontStyle=0;strokeWidth=2;resizeParent=0;resizeLast=1;shadow=0;dashed=0;align=center;arcSize=4;whiteSpace=wrap;html=1;" vertex="1" parent="1">
          <mxGeometry x="-785" y="280" width="220" height="120" as="geometry" />
        </mxCell>
        <mxCell id="pSM0JxgnrJH14uDleLFP-32" value="+AccNumber PK-&amp;gt;ACCOUNT.Number&lt;div&gt;+Balance&lt;/div&gt;&lt;div&gt;+InterestRate&lt;/div&gt;&lt;div&gt;+OpenedDate&lt;/div&gt;" style="align=left;strokeColor=none;fillColor=none;spacingLeft=4;spacingRight=4;fontSize=12;verticalAlign=top;resizable=0;rotatable=0;part=1;html=1;whiteSpace=wrap;" vertex="1" parent="pSM0JxgnrJH14uDleLFP-31">
          <mxGeometry y="50" width="220" height="70" as="geometry" />
        </mxCell>
        <mxCell id="pSM0JxgnrJH14uDleLFP-35" style="edgeStyle=orthogonalEdgeStyle;rounded=0;orthogonalLoop=1;jettySize=auto;html=1;exitX=1;exitY=0.25;exitDx=0;exitDy=0;entryX=0;entryY=0.5;entryDx=0;entryDy=0;startArrow=ERone;startFill=0;endArrow=ERmany;endFill=0;" edge="1" parent="1" source="pSM0JxgnrJH14uDleLFP-11" target="pSM0JxgnrJH14uDleLFP-13">
          <mxGeometry relative="1" as="geometry" />
        </mxCell>
        <mxCell id="pSM0JxgnrJH14uDleLFP-36" style="edgeStyle=orthogonalEdgeStyle;rounded=0;orthogonalLoop=1;jettySize=auto;html=1;exitX=0.5;exitY=1;exitDx=0;exitDy=0;entryX=0.5;entryY=0;entryDx=0;entryDy=0;startArrow=ERone;startFill=0;endArrow=ERmany;endFill=0;" edge="1" parent="1" source="pSM0JxgnrJH14uDleLFP-13" target="pSM0JxgnrJH14uDleLFP-14">
          <mxGeometry relative="1" as="geometry" />
        </mxCell>
        <mxCell id="pSM0JxgnrJH14uDleLFP-37" style="edgeStyle=orthogonalEdgeStyle;rounded=0;orthogonalLoop=1;jettySize=auto;html=1;exitX=1;exitY=0.25;exitDx=0;exitDy=0;entryX=0;entryY=0.25;entryDx=0;entryDy=0;endArrow=ERone;endFill=0;startArrow=ERmany;startFill=0;" edge="1" parent="1" source="pSM0JxgnrJH14uDleLFP-17" target="pSM0JxgnrJH14uDleLFP-15">
          <mxGeometry relative="1" as="geometry" />
        </mxCell>
        <mxCell id="pSM0JxgnrJH14uDleLFP-40" style="edgeStyle=orthogonalEdgeStyle;rounded=0;orthogonalLoop=1;jettySize=auto;html=1;exitX=1;exitY=0;exitDx=0;exitDy=0;entryX=0;entryY=0.25;entryDx=0;entryDy=0;endArrow=ERone;endFill=0;startArrow=ERmany;startFill=0;" edge="1" parent="1" source="pSM0JxgnrJH14uDleLFP-20" target="pSM0JxgnrJH14uDleLFP-10">
          <mxGeometry relative="1" as="geometry">
            <Array as="points">
              <mxPoint x="-535" y="90" />
              <mxPoint x="-535" y="105" />
            </Array>
          </mxGeometry>
        </mxCell>
        <mxCell id="pSM0JxgnrJH14uDleLFP-44" style="edgeStyle=orthogonalEdgeStyle;rounded=0;orthogonalLoop=1;jettySize=auto;html=1;exitX=1;exitY=0.25;exitDx=0;exitDy=0;entryX=0;entryY=0.25;entryDx=0;entryDy=0;endArrow=ERmany;endFill=0;startArrow=ERone;startFill=0;" edge="1" parent="1" source="pSM0JxgnrJH14uDleLFP-13" target="pSM0JxgnrJH14uDleLFP-23">
          <mxGeometry relative="1" as="geometry" />
        </mxCell>
        <mxCell id="pSM0JxgnrJH14uDleLFP-64" style="rounded=0;orthogonalLoop=1;jettySize=auto;html=1;exitX=0.5;exitY=0;exitDx=0;exitDy=0;entryX=0.5;entryY=1;entryDx=0;entryDy=0;endArrow=none;endFill=0;" edge="1" parent="1" source="pSM0JxgnrJH14uDleLFP-49" target="pSM0JxgnrJH14uDleLFP-53">
          <mxGeometry relative="1" as="geometry" />
        </mxCell>
        <mxCell id="pSM0JxgnrJH14uDleLFP-65" style="rounded=0;orthogonalLoop=1;jettySize=auto;html=1;exitX=1;exitY=0;exitDx=0;exitDy=0;entryX=0;entryY=1;entryDx=0;entryDy=0;endArrow=none;endFill=0;" edge="1" parent="1" source="pSM0JxgnrJH14uDleLFP-49" target="pSM0JxgnrJH14uDleLFP-54">
          <mxGeometry relative="1" as="geometry" />
        </mxCell>
        <mxCell id="pSM0JxgnrJH14uDleLFP-71" style="rounded=0;orthogonalLoop=1;jettySize=auto;html=1;exitX=0;exitY=0;exitDx=0;exitDy=0;entryX=1;entryY=0.5;entryDx=0;entryDy=0;endArrow=none;endFill=0;" edge="1" parent="1" source="pSM0JxgnrJH14uDleLFP-49" target="pSM0JxgnrJH14uDleLFP-60">
          <mxGeometry relative="1" as="geometry" />
        </mxCell>
        <mxCell id="pSM0JxgnrJH14uDleLFP-72" style="rounded=0;orthogonalLoop=1;jettySize=auto;html=1;exitX=0;exitY=0.25;exitDx=0;exitDy=0;entryX=1;entryY=0.5;entryDx=0;entryDy=0;endArrow=none;endFill=0;" edge="1" parent="1" source="pSM0JxgnrJH14uDleLFP-49" target="pSM0JxgnrJH14uDleLFP-76">
          <mxGeometry relative="1" as="geometry">
            <mxPoint x="-584.9999999999966" y="860" as="targetPoint" />
          </mxGeometry>
        </mxCell>
        <mxCell id="pSM0JxgnrJH14uDleLFP-73" style="rounded=0;orthogonalLoop=1;jettySize=auto;html=1;exitX=0;exitY=0.75;exitDx=0;exitDy=0;entryX=1;entryY=0.5;entryDx=0;entryDy=0;endArrow=none;endFill=0;" edge="1" parent="1" source="pSM0JxgnrJH14uDleLFP-49" target="pSM0JxgnrJH14uDleLFP-77">
          <mxGeometry relative="1" as="geometry">
            <mxPoint x="-584.9999999999966" y="910" as="targetPoint" />
          </mxGeometry>
        </mxCell>
        <mxCell id="pSM0JxgnrJH14uDleLFP-74" style="rounded=0;orthogonalLoop=1;jettySize=auto;html=1;exitX=0;exitY=1;exitDx=0;exitDy=0;entryX=1;entryY=0;entryDx=0;entryDy=0;endArrow=none;endFill=0;" edge="1" parent="1" source="pSM0JxgnrJH14uDleLFP-49" target="pSM0JxgnrJH14uDleLFP-63">
          <mxGeometry relative="1" as="geometry" />
        </mxCell>
        <mxCell id="pSM0JxgnrJH14uDleLFP-80" value="1" style="rounded=0;orthogonalLoop=1;jettySize=auto;html=1;exitX=1;exitY=0.25;exitDx=0;exitDy=0;entryX=0;entryY=0.5;entryDx=0;entryDy=0;endArrow=none;endFill=0;" edge="1" parent="1" source="pSM0JxgnrJH14uDleLFP-49" target="pSM0JxgnrJH14uDleLFP-78">
          <mxGeometry x="0.8815" y="16" relative="1" as="geometry">
            <mxPoint as="offset" />
          </mxGeometry>
        </mxCell>
        <mxCell id="pSM0JxgnrJH14uDleLFP-81" value="1" style="rounded=0;orthogonalLoop=1;jettySize=auto;html=1;exitX=1;exitY=0.75;exitDx=0;exitDy=0;entryX=0;entryY=0.5;entryDx=0;entryDy=0;endArrow=none;endFill=0;curved=0;jumpStyle=none;" edge="1" parent="1" source="pSM0JxgnrJH14uDleLFP-49" target="pSM0JxgnrJH14uDleLFP-79">
          <mxGeometry x="0.8361" y="14" relative="1" as="geometry">
            <mxPoint as="offset" />
          </mxGeometry>
        </mxCell>
        <mxCell id="pSM0JxgnrJH14uDleLFP-49" value="Branch" style="rounded=1;arcSize=10;whiteSpace=wrap;html=1;align=center;" vertex="1" parent="1">
          <mxGeometry x="-515" y="810" width="100" height="40" as="geometry" />
        </mxCell>
        <mxCell id="pSM0JxgnrJH14uDleLFP-82" value="n" style="rounded=0;orthogonalLoop=1;jettySize=auto;html=1;exitX=0;exitY=0.25;exitDx=0;exitDy=0;entryX=1;entryY=0.5;entryDx=0;entryDy=0;endArrow=none;endFill=0;" edge="1" parent="1" source="pSM0JxgnrJH14uDleLFP-50" target="pSM0JxgnrJH14uDleLFP-78">
          <mxGeometry x="0.8667" y="-16" relative="1" as="geometry">
            <mxPoint as="offset" />
          </mxGeometry>
        </mxCell>
        <mxCell id="pSM0JxgnrJH14uDleLFP-83" value="1" style="rounded=0;orthogonalLoop=1;jettySize=auto;html=1;exitX=0;exitY=0.75;exitDx=0;exitDy=0;entryX=1;entryY=0.5;entryDx=0;entryDy=0;endArrow=none;endFill=0;" edge="1" parent="1" source="pSM0JxgnrJH14uDleLFP-50" target="pSM0JxgnrJH14uDleLFP-79">
          <mxGeometry x="0.8051" y="-14" relative="1" as="geometry">
            <mxPoint as="offset" />
          </mxGeometry>
        </mxCell>
        <mxCell id="pSM0JxgnrJH14uDleLFP-94" style="rounded=0;orthogonalLoop=1;jettySize=auto;html=1;exitX=0;exitY=1;exitDx=0;exitDy=0;entryX=1;entryY=0;entryDx=0;entryDy=0;endArrow=none;endFill=0;" edge="1" parent="1" source="pSM0JxgnrJH14uDleLFP-50" target="pSM0JxgnrJH14uDleLFP-93">
          <mxGeometry relative="1" as="geometry" />
        </mxCell>
        <mxCell id="pSM0JxgnrJH14uDleLFP-95" style="rounded=0;orthogonalLoop=1;jettySize=auto;html=1;exitX=0;exitY=0;exitDx=0;exitDy=0;entryX=1;entryY=1;entryDx=0;entryDy=0;endArrow=none;endFill=0;" edge="1" parent="1" source="pSM0JxgnrJH14uDleLFP-50" target="pSM0JxgnrJH14uDleLFP-86">
          <mxGeometry relative="1" as="geometry" />
        </mxCell>
        <mxCell id="pSM0JxgnrJH14uDleLFP-96" style="rounded=0;orthogonalLoop=1;jettySize=auto;html=1;exitX=0.5;exitY=0;exitDx=0;exitDy=0;entryX=0.5;entryY=1;entryDx=0;entryDy=0;endArrow=none;endFill=0;" edge="1" parent="1" source="pSM0JxgnrJH14uDleLFP-50" target="pSM0JxgnrJH14uDleLFP-85">
          <mxGeometry relative="1" as="geometry" />
        </mxCell>
        <mxCell id="pSM0JxgnrJH14uDleLFP-97" style="rounded=0;orthogonalLoop=1;jettySize=auto;html=1;exitX=1;exitY=0;exitDx=0;exitDy=0;entryX=0;entryY=1;entryDx=0;entryDy=0;endArrow=none;endFill=0;" edge="1" parent="1" source="pSM0JxgnrJH14uDleLFP-50" target="pSM0JxgnrJH14uDleLFP-87">
          <mxGeometry relative="1" as="geometry" />
        </mxCell>
        <mxCell id="pSM0JxgnrJH14uDleLFP-102" style="rounded=0;orthogonalLoop=1;jettySize=auto;html=1;exitX=1;exitY=0.25;exitDx=0;exitDy=0;entryX=0;entryY=0.5;entryDx=0;entryDy=0;endArrow=none;endFill=0;" edge="1" parent="1" source="pSM0JxgnrJH14uDleLFP-50" target="pSM0JxgnrJH14uDleLFP-84">
          <mxGeometry relative="1" as="geometry" />
        </mxCell>
        <mxCell id="pSM0JxgnrJH14uDleLFP-103" style="rounded=0;orthogonalLoop=1;jettySize=auto;html=1;exitX=1;exitY=0.75;exitDx=0;exitDy=0;entryX=0;entryY=0.5;entryDx=0;entryDy=0;endArrow=none;endFill=0;" edge="1" parent="1" source="pSM0JxgnrJH14uDleLFP-50" target="pSM0JxgnrJH14uDleLFP-92">
          <mxGeometry relative="1" as="geometry" />
        </mxCell>
        <mxCell id="pSM0JxgnrJH14uDleLFP-105" style="rounded=0;orthogonalLoop=1;jettySize=auto;html=1;exitX=1;exitY=1;exitDx=0;exitDy=0;entryX=0;entryY=0;entryDx=0;entryDy=0;endArrow=none;endFill=0;" edge="1" parent="1" source="pSM0JxgnrJH14uDleLFP-50" target="pSM0JxgnrJH14uDleLFP-104">
          <mxGeometry relative="1" as="geometry" />
        </mxCell>
        <mxCell id="pSM0JxgnrJH14uDleLFP-107" value="1" style="rounded=0;orthogonalLoop=1;jettySize=auto;html=1;exitX=0.5;exitY=1;exitDx=0;exitDy=0;entryX=0.5;entryY=0;entryDx=0;entryDy=0;endArrow=none;endFill=0;" edge="1" parent="1" source="pSM0JxgnrJH14uDleLFP-50" target="pSM0JxgnrJH14uDleLFP-106">
          <mxGeometry y="10" relative="1" as="geometry">
            <mxPoint as="offset" />
          </mxGeometry>
        </mxCell>
        <mxCell id="pSM0JxgnrJH14uDleLFP-50" value="Employee" style="rounded=1;arcSize=10;whiteSpace=wrap;html=1;align=center;" vertex="1" parent="1">
          <mxGeometry x="-85" y="810" width="100" height="40" as="geometry" />
        </mxCell>
        <mxCell id="pSM0JxgnrJH14uDleLFP-108" value="n" style="rounded=0;orthogonalLoop=1;jettySize=auto;html=1;exitX=0.5;exitY=0;exitDx=0;exitDy=0;entryX=0.5;entryY=1;entryDx=0;entryDy=0;endArrow=none;endFill=0;" edge="1" parent="1" source="pSM0JxgnrJH14uDleLFP-51" target="pSM0JxgnrJH14uDleLFP-106">
          <mxGeometry x="0.1429" y="-10" relative="1" as="geometry">
            <mxPoint as="offset" />
          </mxGeometry>
        </mxCell>
        <mxCell id="pSM0JxgnrJH14uDleLFP-119" style="rounded=0;orthogonalLoop=1;jettySize=auto;html=1;exitX=0;exitY=1;exitDx=0;exitDy=0;entryX=1;entryY=0.5;entryDx=0;entryDy=0;endArrow=none;endFill=0;" edge="1" parent="1" source="pSM0JxgnrJH14uDleLFP-51" target="pSM0JxgnrJH14uDleLFP-116">
          <mxGeometry relative="1" as="geometry" />
        </mxCell>
        <mxCell id="pSM0JxgnrJH14uDleLFP-120" style="rounded=0;orthogonalLoop=1;jettySize=auto;html=1;exitX=0.25;exitY=1;exitDx=0;exitDy=0;entryX=1;entryY=0;entryDx=0;entryDy=0;endArrow=none;endFill=0;" edge="1" parent="1" source="pSM0JxgnrJH14uDleLFP-51" target="pSM0JxgnrJH14uDleLFP-115">
          <mxGeometry relative="1" as="geometry" />
        </mxCell>
        <mxCell id="pSM0JxgnrJH14uDleLFP-121" style="rounded=0;orthogonalLoop=1;jettySize=auto;html=1;exitX=0.5;exitY=1;exitDx=0;exitDy=0;entryX=0.5;entryY=0;entryDx=0;entryDy=0;endArrow=none;endFill=0;" edge="1" parent="1" source="pSM0JxgnrJH14uDleLFP-51" target="pSM0JxgnrJH14uDleLFP-118">
          <mxGeometry relative="1" as="geometry" />
        </mxCell>
        <mxCell id="pSM0JxgnrJH14uDleLFP-122" style="rounded=0;orthogonalLoop=1;jettySize=auto;html=1;exitX=0.75;exitY=1;exitDx=0;exitDy=0;entryX=0;entryY=0;entryDx=0;entryDy=0;endArrow=none;endFill=0;" edge="1" parent="1" source="pSM0JxgnrJH14uDleLFP-51" target="pSM0JxgnrJH14uDleLFP-114">
          <mxGeometry relative="1" as="geometry" />
        </mxCell>
        <mxCell id="pSM0JxgnrJH14uDleLFP-123" style="rounded=0;orthogonalLoop=1;jettySize=auto;html=1;exitX=1;exitY=1;exitDx=0;exitDy=0;entryX=0;entryY=0.5;entryDx=0;entryDy=0;endArrow=none;endFill=0;" edge="1" parent="1" source="pSM0JxgnrJH14uDleLFP-51" target="pSM0JxgnrJH14uDleLFP-113">
          <mxGeometry relative="1" as="geometry" />
        </mxCell>
        <mxCell id="pSM0JxgnrJH14uDleLFP-124" style="rounded=0;orthogonalLoop=1;jettySize=auto;html=1;exitX=1;exitY=0.5;exitDx=0;exitDy=0;entryX=0;entryY=0.5;entryDx=0;entryDy=0;endArrow=none;endFill=0;" edge="1" parent="1" source="pSM0JxgnrJH14uDleLFP-51" target="pSM0JxgnrJH14uDleLFP-112">
          <mxGeometry relative="1" as="geometry" />
        </mxCell>
        <mxCell id="pSM0JxgnrJH14uDleLFP-125" style="rounded=0;orthogonalLoop=1;jettySize=auto;html=1;exitX=1;exitY=0;exitDx=0;exitDy=0;entryX=0;entryY=1;entryDx=0;entryDy=0;endArrow=none;endFill=0;" edge="1" parent="1" source="pSM0JxgnrJH14uDleLFP-51" target="pSM0JxgnrJH14uDleLFP-117">
          <mxGeometry relative="1" as="geometry" />
        </mxCell>
        <mxCell id="pSM0JxgnrJH14uDleLFP-51" value="Customer" style="rounded=1;arcSize=10;whiteSpace=wrap;html=1;align=center;" vertex="1" parent="1">
          <mxGeometry x="-85" y="1030" width="100" height="40" as="geometry" />
        </mxCell>
        <mxCell id="pSM0JxgnrJH14uDleLFP-110" value="n" style="rounded=0;orthogonalLoop=1;jettySize=auto;html=1;exitX=1;exitY=0.5;exitDx=0;exitDy=0;entryX=0;entryY=0.5;entryDx=0;entryDy=0;endArrow=none;endFill=0;" edge="1" parent="1" source="pSM0JxgnrJH14uDleLFP-52" target="pSM0JxgnrJH14uDleLFP-109">
          <mxGeometry x="0.8462" y="10" relative="1" as="geometry">
            <mxPoint as="offset" />
          </mxGeometry>
        </mxCell>
        <mxCell id="pSM0JxgnrJH14uDleLFP-152" style="rounded=0;orthogonalLoop=1;jettySize=auto;html=1;exitX=0.5;exitY=1;exitDx=0;exitDy=0;entryX=0.5;entryY=0;entryDx=0;entryDy=0;endArrow=none;endFill=0;" edge="1" parent="1" source="pSM0JxgnrJH14uDleLFP-52" target="pSM0JxgnrJH14uDleLFP-148">
          <mxGeometry relative="1" as="geometry" />
        </mxCell>
        <mxCell id="pSM0JxgnrJH14uDleLFP-52" value="Account" style="rounded=1;arcSize=10;whiteSpace=wrap;html=1;align=center;" vertex="1" parent="1">
          <mxGeometry x="-515" y="1030" width="100" height="40" as="geometry" />
        </mxCell>
        <mxCell id="pSM0JxgnrJH14uDleLFP-66" style="rounded=0;orthogonalLoop=1;jettySize=auto;html=1;exitX=1;exitY=0.5;exitDx=0;exitDy=0;entryX=0;entryY=0.5;entryDx=0;entryDy=0;endArrow=none;endFill=0;" edge="1" parent="1" source="pSM0JxgnrJH14uDleLFP-53" target="pSM0JxgnrJH14uDleLFP-55">
          <mxGeometry relative="1" as="geometry" />
        </mxCell>
        <mxCell id="pSM0JxgnrJH14uDleLFP-67" style="rounded=0;orthogonalLoop=1;jettySize=auto;html=1;exitX=1;exitY=0;exitDx=0;exitDy=0;entryX=0;entryY=1;entryDx=0;entryDy=0;endArrow=none;endFill=0;" edge="1" parent="1" source="pSM0JxgnrJH14uDleLFP-53" target="pSM0JxgnrJH14uDleLFP-56">
          <mxGeometry relative="1" as="geometry" />
        </mxCell>
        <mxCell id="pSM0JxgnrJH14uDleLFP-68" style="rounded=0;orthogonalLoop=1;jettySize=auto;html=1;exitX=0.5;exitY=0;exitDx=0;exitDy=0;entryX=0.5;entryY=1;entryDx=0;entryDy=0;endArrow=none;endFill=0;" edge="1" parent="1" source="pSM0JxgnrJH14uDleLFP-53" target="pSM0JxgnrJH14uDleLFP-57">
          <mxGeometry relative="1" as="geometry" />
        </mxCell>
        <mxCell id="pSM0JxgnrJH14uDleLFP-69" style="rounded=0;orthogonalLoop=1;jettySize=auto;html=1;exitX=0;exitY=0;exitDx=0;exitDy=0;entryX=1;entryY=1;entryDx=0;entryDy=0;endArrow=none;endFill=0;" edge="1" parent="1" source="pSM0JxgnrJH14uDleLFP-53" target="pSM0JxgnrJH14uDleLFP-58">
          <mxGeometry relative="1" as="geometry" />
        </mxCell>
        <mxCell id="pSM0JxgnrJH14uDleLFP-70" style="rounded=0;orthogonalLoop=1;jettySize=auto;html=1;exitX=0;exitY=0.5;exitDx=0;exitDy=0;entryX=1;entryY=0.5;entryDx=0;entryDy=0;endArrow=none;endFill=0;" edge="1" parent="1" source="pSM0JxgnrJH14uDleLFP-53" target="pSM0JxgnrJH14uDleLFP-59">
          <mxGeometry relative="1" as="geometry" />
        </mxCell>
        <mxCell id="pSM0JxgnrJH14uDleLFP-53" value="Address" style="ellipse;whiteSpace=wrap;html=1;align=center;" vertex="1" parent="1">
          <mxGeometry x="-535" y="710" width="100" height="40" as="geometry" />
        </mxCell>
        <mxCell id="pSM0JxgnrJH14uDleLFP-54" value="Email" style="ellipse;whiteSpace=wrap;html=1;align=center;" vertex="1" parent="1">
          <mxGeometry x="-405" y="750" width="100" height="40" as="geometry" />
        </mxCell>
        <mxCell id="pSM0JxgnrJH14uDleLFP-55" value="Region" style="ellipse;whiteSpace=wrap;html=1;align=center;" vertex="1" parent="1">
          <mxGeometry x="-375" y="690" width="100" height="40" as="geometry" />
        </mxCell>
        <mxCell id="pSM0JxgnrJH14uDleLFP-56" value="City" style="ellipse;whiteSpace=wrap;html=1;align=center;" vertex="1" parent="1">
          <mxGeometry x="-415" y="630" width="100" height="40" as="geometry" />
        </mxCell>
        <mxCell id="pSM0JxgnrJH14uDleLFP-57" value="District" style="ellipse;whiteSpace=wrap;html=1;align=center;" vertex="1" parent="1">
          <mxGeometry x="-525" y="610" width="100" height="40" as="geometry" />
        </mxCell>
        <mxCell id="pSM0JxgnrJH14uDleLFP-58" value="Street" style="ellipse;whiteSpace=wrap;html=1;align=center;" vertex="1" parent="1">
          <mxGeometry x="-635" y="640" width="100" height="40" as="geometry" />
        </mxCell>
        <mxCell id="pSM0JxgnrJH14uDleLFP-59" value="No." style="ellipse;whiteSpace=wrap;html=1;align=center;" vertex="1" parent="1">
          <mxGeometry x="-685" y="710" width="100" height="40" as="geometry" />
        </mxCell>
        <mxCell id="pSM0JxgnrJH14uDleLFP-60" value="&lt;u&gt;Name&lt;/u&gt;" style="ellipse;whiteSpace=wrap;html=1;align=center;" vertex="1" parent="1">
          <mxGeometry x="-645" y="770" width="100" height="40" as="geometry" />
        </mxCell>
        <mxCell id="pSM0JxgnrJH14uDleLFP-63" value="Num Of Emp" style="ellipse;whiteSpace=wrap;html=1;align=center;shadow=1;dashed=1;" vertex="1" parent="1">
          <mxGeometry x="-625" y="940" width="100" height="40" as="geometry" />
        </mxCell>
        <mxCell id="pSM0JxgnrJH14uDleLFP-76" value="Fax" style="ellipse;shape=doubleEllipse;margin=3;whiteSpace=wrap;html=1;align=center;" vertex="1" parent="1">
          <mxGeometry x="-685" y="840" width="100" height="40" as="geometry" />
        </mxCell>
        <mxCell id="pSM0JxgnrJH14uDleLFP-77" value="Phone" style="ellipse;shape=doubleEllipse;margin=3;whiteSpace=wrap;html=1;align=center;" vertex="1" parent="1">
          <mxGeometry x="-685" y="890" width="100" height="40" as="geometry" />
        </mxCell>
        <mxCell id="pSM0JxgnrJH14uDleLFP-78" value="Work for" style="shape=rhombus;perimeter=rhombusPerimeter;whiteSpace=wrap;html=1;align=center;" vertex="1" parent="1">
          <mxGeometry x="-285" y="790" width="70" height="30" as="geometry" />
        </mxCell>
        <mxCell id="pSM0JxgnrJH14uDleLFP-79" value="Manage" style="shape=rhombus;perimeter=rhombusPerimeter;whiteSpace=wrap;html=1;align=center;" vertex="1" parent="1">
          <mxGeometry x="-285" y="840" width="70" height="30" as="geometry" />
        </mxCell>
        <mxCell id="pSM0JxgnrJH14uDleLFP-84" value="Email" style="ellipse;whiteSpace=wrap;html=1;align=center;" vertex="1" parent="1">
          <mxGeometry x="115" y="800" width="100" height="40" as="geometry" />
        </mxCell>
        <mxCell id="pSM0JxgnrJH14uDleLFP-85" value="LName" style="ellipse;whiteSpace=wrap;html=1;align=center;" vertex="1" parent="1">
          <mxGeometry x="-71" y="710" width="100" height="40" as="geometry" />
        </mxCell>
        <mxCell id="pSM0JxgnrJH14uDleLFP-86" value="FName" style="ellipse;whiteSpace=wrap;html=1;align=center;" vertex="1" parent="1">
          <mxGeometry x="-185" y="720" width="100" height="40" as="geometry" />
        </mxCell>
        <mxCell id="pSM0JxgnrJH14uDleLFP-98" style="rounded=0;orthogonalLoop=1;jettySize=auto;html=1;exitX=0;exitY=0;exitDx=0;exitDy=0;entryX=0.5;entryY=1;entryDx=0;entryDy=0;endArrow=none;endFill=0;" edge="1" parent="1" source="pSM0JxgnrJH14uDleLFP-87" target="pSM0JxgnrJH14uDleLFP-89">
          <mxGeometry relative="1" as="geometry" />
        </mxCell>
        <mxCell id="pSM0JxgnrJH14uDleLFP-99" style="rounded=0;orthogonalLoop=1;jettySize=auto;html=1;exitX=0.5;exitY=0;exitDx=0;exitDy=0;entryX=0;entryY=1;entryDx=0;entryDy=0;endArrow=none;endFill=0;" edge="1" parent="1" source="pSM0JxgnrJH14uDleLFP-87" target="pSM0JxgnrJH14uDleLFP-88">
          <mxGeometry relative="1" as="geometry" />
        </mxCell>
        <mxCell id="pSM0JxgnrJH14uDleLFP-100" style="rounded=0;orthogonalLoop=1;jettySize=auto;html=1;exitX=1;exitY=0;exitDx=0;exitDy=0;entryX=0;entryY=0.5;entryDx=0;entryDy=0;endArrow=none;endFill=0;" edge="1" parent="1" source="pSM0JxgnrJH14uDleLFP-87" target="pSM0JxgnrJH14uDleLFP-90">
          <mxGeometry relative="1" as="geometry" />
        </mxCell>
        <mxCell id="pSM0JxgnrJH14uDleLFP-101" style="rounded=0;orthogonalLoop=1;jettySize=auto;html=1;exitX=1;exitY=0.5;exitDx=0;exitDy=0;entryX=0;entryY=0.5;entryDx=0;entryDy=0;endArrow=none;endFill=0;" edge="1" parent="1" source="pSM0JxgnrJH14uDleLFP-87" target="pSM0JxgnrJH14uDleLFP-91">
          <mxGeometry relative="1" as="geometry" />
        </mxCell>
        <mxCell id="pSM0JxgnrJH14uDleLFP-87" value="Region" style="ellipse;whiteSpace=wrap;html=1;align=center;" vertex="1" parent="1">
          <mxGeometry x="45" y="750" width="100" height="40" as="geometry" />
        </mxCell>
        <mxCell id="pSM0JxgnrJH14uDleLFP-88" value="District" style="ellipse;whiteSpace=wrap;html=1;align=center;" vertex="1" parent="1">
          <mxGeometry x="125" y="660" width="100" height="40" as="geometry" />
        </mxCell>
        <mxCell id="pSM0JxgnrJH14uDleLFP-89" value="Street" style="ellipse;whiteSpace=wrap;html=1;align=center;" vertex="1" parent="1">
          <mxGeometry x="8" y="660" width="100" height="40" as="geometry" />
        </mxCell>
        <mxCell id="pSM0JxgnrJH14uDleLFP-90" value="City" style="ellipse;whiteSpace=wrap;html=1;align=center;" vertex="1" parent="1">
          <mxGeometry x="208" y="700" width="100" height="40" as="geometry" />
        </mxCell>
        <mxCell id="pSM0JxgnrJH14uDleLFP-91" value="No." style="ellipse;whiteSpace=wrap;html=1;align=center;" vertex="1" parent="1">
          <mxGeometry x="211" y="750" width="100" height="40" as="geometry" />
        </mxCell>
        <mxCell id="pSM0JxgnrJH14uDleLFP-92" value="DOB" style="ellipse;whiteSpace=wrap;html=1;align=center;" vertex="1" parent="1">
          <mxGeometry x="115" y="850" width="100" height="40" as="geometry" />
        </mxCell>
        <mxCell id="pSM0JxgnrJH14uDleLFP-93" value="&lt;u&gt;Code&lt;/u&gt;" style="ellipse;whiteSpace=wrap;html=1;align=center;" vertex="1" parent="1">
          <mxGeometry x="-195" y="890" width="100" height="40" as="geometry" />
        </mxCell>
        <mxCell id="pSM0JxgnrJH14uDleLFP-104" value="Phones" style="ellipse;shape=doubleEllipse;margin=3;whiteSpace=wrap;html=1;align=center;" vertex="1" parent="1">
          <mxGeometry x="29" y="900" width="100" height="40" as="geometry" />
        </mxCell>
        <mxCell id="pSM0JxgnrJH14uDleLFP-106" value="Server" style="shape=rhombus;perimeter=rhombusPerimeter;whiteSpace=wrap;html=1;align=center;" vertex="1" parent="1">
          <mxGeometry x="-70" y="930" width="70" height="30" as="geometry" />
        </mxCell>
        <mxCell id="pSM0JxgnrJH14uDleLFP-111" value="1" style="rounded=0;orthogonalLoop=1;jettySize=auto;html=1;exitX=1;exitY=0.5;exitDx=0;exitDy=0;entryX=0;entryY=0.5;entryDx=0;entryDy=0;endArrow=none;endFill=0;" edge="1" parent="1" source="pSM0JxgnrJH14uDleLFP-109" target="pSM0JxgnrJH14uDleLFP-51">
          <mxGeometry x="-0.8462" y="10" relative="1" as="geometry">
            <mxPoint as="offset" />
          </mxGeometry>
        </mxCell>
        <mxCell id="pSM0JxgnrJH14uDleLFP-109" value="Has" style="shape=rhombus;perimeter=rhombusPerimeter;whiteSpace=wrap;html=1;align=center;" vertex="1" parent="1">
          <mxGeometry x="-285" y="1035" width="70" height="30" as="geometry" />
        </mxCell>
        <mxCell id="pSM0JxgnrJH14uDleLFP-112" value="LName" style="ellipse;whiteSpace=wrap;html=1;align=center;" vertex="1" parent="1">
          <mxGeometry x="65" y="1020" width="100" height="40" as="geometry" />
        </mxCell>
        <mxCell id="pSM0JxgnrJH14uDleLFP-113" value="Office Address" style="ellipse;whiteSpace=wrap;html=1;align=center;" vertex="1" parent="1">
          <mxGeometry x="45" y="1070" width="100" height="40" as="geometry" />
        </mxCell>
        <mxCell id="pSM0JxgnrJH14uDleLFP-114" value="Home Address" style="ellipse;whiteSpace=wrap;html=1;align=center;" vertex="1" parent="1">
          <mxGeometry x="8" y="1120" width="100" height="40" as="geometry" />
        </mxCell>
        <mxCell id="pSM0JxgnrJH14uDleLFP-115" value="Email" style="ellipse;whiteSpace=wrap;html=1;align=center;" vertex="1" parent="1">
          <mxGeometry x="-170" y="1120" width="100" height="40" as="geometry" />
        </mxCell>
        <mxCell id="pSM0JxgnrJH14uDleLFP-116" value="&lt;u&gt;Code&lt;/u&gt;" style="ellipse;whiteSpace=wrap;html=1;align=center;" vertex="1" parent="1">
          <mxGeometry x="-205" y="1070" width="100" height="40" as="geometry" />
        </mxCell>
        <mxCell id="pSM0JxgnrJH14uDleLFP-117" value="FName" style="ellipse;whiteSpace=wrap;html=1;align=center;" vertex="1" parent="1">
          <mxGeometry x="29" y="970" width="100" height="40" as="geometry" />
        </mxCell>
        <mxCell id="pSM0JxgnrJH14uDleLFP-118" value="Phones" style="ellipse;shape=doubleEllipse;margin=3;whiteSpace=wrap;html=1;align=center;" vertex="1" parent="1">
          <mxGeometry x="-85" y="1150" width="100" height="40" as="geometry" />
        </mxCell>
        <mxCell id="pSM0JxgnrJH14uDleLFP-128" value="Number" style="ellipse;whiteSpace=wrap;html=1;align=center;fontStyle=4;" vertex="1" parent="1">
          <mxGeometry x="-675" y="1030" width="100" height="40" as="geometry" />
        </mxCell>
        <mxCell id="pSM0JxgnrJH14uDleLFP-145" style="rounded=0;orthogonalLoop=1;jettySize=auto;html=1;exitX=0.25;exitY=0;exitDx=0;exitDy=0;entryX=0.5;entryY=1;entryDx=0;entryDy=0;endArrow=none;endFill=0;" edge="1" parent="1" source="pSM0JxgnrJH14uDleLFP-129" target="pSM0JxgnrJH14uDleLFP-132">
          <mxGeometry relative="1" as="geometry" />
        </mxCell>
        <mxCell id="pSM0JxgnrJH14uDleLFP-146" style="rounded=0;orthogonalLoop=1;jettySize=auto;html=1;exitX=0;exitY=0.5;exitDx=0;exitDy=0;entryX=1;entryY=0.5;entryDx=0;entryDy=0;endArrow=none;endFill=0;" edge="1" parent="1" source="pSM0JxgnrJH14uDleLFP-129">
          <mxGeometry relative="1" as="geometry">
            <mxPoint x="-689.7699999999966" y="1240" as="targetPoint" />
          </mxGeometry>
        </mxCell>
        <mxCell id="pSM0JxgnrJH14uDleLFP-147" style="rounded=0;orthogonalLoop=1;jettySize=auto;html=1;exitX=0.25;exitY=1;exitDx=0;exitDy=0;entryX=0.5;entryY=0;entryDx=0;entryDy=0;endArrow=none;endFill=0;" edge="1" parent="1" source="pSM0JxgnrJH14uDleLFP-129">
          <mxGeometry relative="1" as="geometry">
            <mxPoint x="-659.77" y="1300" as="targetPoint" />
          </mxGeometry>
        </mxCell>
        <mxCell id="pSM0JxgnrJH14uDleLFP-129" value="Account" style="rounded=1;arcSize=10;whiteSpace=wrap;html=1;align=center;" vertex="1" parent="1">
          <mxGeometry x="-655" y="1220" width="100" height="40" as="geometry" />
        </mxCell>
        <mxCell id="pSM0JxgnrJH14uDleLFP-130" value="Checking Account" style="rounded=1;arcSize=10;whiteSpace=wrap;html=1;align=center;" vertex="1" parent="1">
          <mxGeometry x="-515" y="1220" width="100" height="40" as="geometry" />
        </mxCell>
        <mxCell id="pSM0JxgnrJH14uDleLFP-140" style="rounded=0;orthogonalLoop=1;jettySize=auto;html=1;exitX=0.75;exitY=0;exitDx=0;exitDy=0;entryX=0.5;entryY=1;entryDx=0;entryDy=0;endArrow=none;endFill=0;" edge="1" parent="1" source="pSM0JxgnrJH14uDleLFP-131" target="pSM0JxgnrJH14uDleLFP-139">
          <mxGeometry relative="1" as="geometry" />
        </mxCell>
        <mxCell id="pSM0JxgnrJH14uDleLFP-141" style="rounded=0;orthogonalLoop=1;jettySize=auto;html=1;exitX=1;exitY=0.5;exitDx=0;exitDy=0;entryX=0;entryY=0.5;entryDx=0;entryDy=0;endArrow=none;endFill=0;" edge="1" parent="1" source="pSM0JxgnrJH14uDleLFP-131" target="pSM0JxgnrJH14uDleLFP-138">
          <mxGeometry relative="1" as="geometry" />
        </mxCell>
        <mxCell id="pSM0JxgnrJH14uDleLFP-142" style="rounded=0;orthogonalLoop=1;jettySize=auto;html=1;exitX=0.75;exitY=1;exitDx=0;exitDy=0;entryX=0;entryY=0;entryDx=0;entryDy=0;endArrow=none;endFill=0;" edge="1" parent="1" source="pSM0JxgnrJH14uDleLFP-131">
          <mxGeometry relative="1" as="geometry">
            <mxPoint x="-225.00279132484914" y="1285.809014605269" as="targetPoint" />
          </mxGeometry>
        </mxCell>
        <mxCell id="pSM0JxgnrJH14uDleLFP-131" value="Loan" style="rounded=1;arcSize=10;whiteSpace=wrap;html=1;align=center;" vertex="1" parent="1">
          <mxGeometry x="-373.27" y="1220" width="100" height="40" as="geometry" />
        </mxCell>
        <mxCell id="pSM0JxgnrJH14uDleLFP-132" value="Balance" style="ellipse;whiteSpace=wrap;html=1;align=center;" vertex="1" parent="1">
          <mxGeometry x="-705" y="1130" width="100" height="40" as="geometry" />
        </mxCell>
        <mxCell id="pSM0JxgnrJH14uDleLFP-133" value="Attribute" style="ellipse;whiteSpace=wrap;html=1;align=center;" vertex="1" parent="1">
          <mxGeometry x="-785" y="1220" width="100" height="40" as="geometry" />
        </mxCell>
        <mxCell id="pSM0JxgnrJH14uDleLFP-134" value="Attribute" style="ellipse;whiteSpace=wrap;html=1;align=center;" vertex="1" parent="1">
          <mxGeometry x="-705" y="1300" width="100" height="40" as="geometry" />
        </mxCell>
        <mxCell id="pSM0JxgnrJH14uDleLFP-144" style="rounded=0;orthogonalLoop=1;jettySize=auto;html=1;exitX=0.5;exitY=0;exitDx=0;exitDy=0;entryX=0.25;entryY=1;entryDx=0;entryDy=0;endArrow=none;endFill=0;" edge="1" parent="1" target="pSM0JxgnrJH14uDleLFP-130">
          <mxGeometry relative="1" as="geometry">
            <mxPoint x="-509.77" y="1300" as="sourcePoint" />
          </mxGeometry>
        </mxCell>
        <mxCell id="pSM0JxgnrJH14uDleLFP-135" value="Balance" style="ellipse;whiteSpace=wrap;html=1;align=center;" vertex="1" parent="1">
          <mxGeometry x="-555" y="1300" width="100" height="40" as="geometry" />
        </mxCell>
        <mxCell id="pSM0JxgnrJH14uDleLFP-143" style="rounded=0;orthogonalLoop=1;jettySize=auto;html=1;exitX=0;exitY=0;exitDx=0;exitDy=0;entryX=0.75;entryY=1;entryDx=0;entryDy=0;endArrow=none;endFill=0;" edge="1" parent="1" source="pSM0JxgnrJH14uDleLFP-136" target="pSM0JxgnrJH14uDleLFP-130">
          <mxGeometry relative="1" as="geometry" />
        </mxCell>
        <mxCell id="pSM0JxgnrJH14uDleLFP-136" value="Opened Date" style="ellipse;whiteSpace=wrap;html=1;align=center;" vertex="1" parent="1">
          <mxGeometry x="-421.5" y="1300" width="100" height="40" as="geometry" />
        </mxCell>
        <mxCell id="pSM0JxgnrJH14uDleLFP-137" value="Interest Rate" style="ellipse;whiteSpace=wrap;html=1;align=center;" vertex="1" parent="1">
          <mxGeometry x="-235" y="1280" width="100" height="40" as="geometry" />
        </mxCell>
        <mxCell id="pSM0JxgnrJH14uDleLFP-138" value="Balance Due" style="ellipse;whiteSpace=wrap;html=1;align=center;" vertex="1" parent="1">
          <mxGeometry x="-215" y="1200" width="100" height="40" as="geometry" />
        </mxCell>
        <mxCell id="pSM0JxgnrJH14uDleLFP-139" value="Taken Date" style="ellipse;whiteSpace=wrap;html=1;align=center;" vertex="1" parent="1">
          <mxGeometry x="-325" y="1140" width="100" height="40" as="geometry" />
        </mxCell>
        <mxCell id="pSM0JxgnrJH14uDleLFP-149" style="rounded=0;orthogonalLoop=1;jettySize=auto;html=1;exitX=0;exitY=1;exitDx=0;exitDy=0;entryX=0.5;entryY=0;entryDx=0;entryDy=0;endArrow=none;endFill=0;" edge="1" parent="1" source="pSM0JxgnrJH14uDleLFP-148" target="pSM0JxgnrJH14uDleLFP-129">
          <mxGeometry relative="1" as="geometry" />
        </mxCell>
        <mxCell id="pSM0JxgnrJH14uDleLFP-150" style="rounded=0;orthogonalLoop=1;jettySize=auto;html=1;exitX=0.5;exitY=1;exitDx=0;exitDy=0;entryX=0.5;entryY=0;entryDx=0;entryDy=0;endArrow=none;endFill=0;" edge="1" parent="1" source="pSM0JxgnrJH14uDleLFP-148" target="pSM0JxgnrJH14uDleLFP-130">
          <mxGeometry relative="1" as="geometry" />
        </mxCell>
        <mxCell id="pSM0JxgnrJH14uDleLFP-148" value="d" style="ellipse;whiteSpace=wrap;html=1;" vertex="1" parent="1">
          <mxGeometry x="-485" y="1110" width="40" height="40" as="geometry" />
        </mxCell>
        <mxCell id="pSM0JxgnrJH14uDleLFP-151" style="rounded=0;orthogonalLoop=1;jettySize=auto;html=1;exitX=1;exitY=1;exitDx=0;exitDy=0;entryX=0.5;entryY=0;entryDx=0;entryDy=0;endArrow=none;endFill=0;" edge="1" parent="1" source="pSM0JxgnrJH14uDleLFP-148" target="pSM0JxgnrJH14uDleLFP-131">
          <mxGeometry relative="1" as="geometry" />
        </mxCell>
        <mxCell id="pSM0JxgnrJH14uDleLFP-153" value="" style="shape=image;aspect=fixed;image=data:image/jpg,/9j/4AAQSkZJRgABAQAAAQABAAD/2wCEAAUFBQUFBQUGBgUICAcICAsKCQkKCxEMDQwNDBEaEBMQEBMQGhcbFhUWGxcpIBwcICkvJyUnLzkzMzlHREddXX0BBQUFBQUFBQYGBQgIBwgICwoJCQoLEQwNDA0MERoQExAQExAaFxsWFRYbFykgHBwgKS8nJScvOTMzOUdER11dff/CABEIBRwH5AMBIgACEQEDEQH/xAAxAAEBAQEBAQEAAAAAAAAAAAAABQQDAgYBAQEBAQEBAQAAAAAAAAAAAAAAAQMCBAX/2gAMAwEAAhADEAAAAvsgAAAAAAAAAAAAAAAAAAAAAAAAAAAAAAAAAAAAAAAAAAAAAAAAAAAAAAAAAAAAAAAAAAAAAAAAAAAAAAAAAAAAAAAAAAAAAAAAAAAAAAAAAAAAAAAAAAAAAAAAAAAAAAAAAAAAAAAAAAAAAAAAAAAAAAAAAAAAAAAAAAAAAAAAAAAAAAAAAAAAAAAAAAAAAAAAAAAAAAAAAAAAAAAAAAAAAAAAAAAAAAAAAAAAAAAAAAAAAAAAAAAAAAAAAAAAAAAD4f0T7h8O9E+4fDj7h8OPuHw4+4fDj7h8OPuHw4+4fD7+X1I8PQAAAAAAAAAAAAAAAAAAAAAAAAAAAAAAAAAAAAAAAAAAAAAAAAAAAAAAAAAAAAAAAAAAAAAAAAAAAAAAAAAAAAAAAAAAAAAAAAAAAAAAAAAAAAAAAAAAAAD4f7j4f6HJ18+7nwOgA7xwfv4DRGdpzDfg38vqR8PQAAAAAAAAAAAAAAAAAAAAAAAAAAAAAAAAAAAAAAAAAAAAAAAAAAAAAAAAAAAAAAAAAAAAAAAAAAAAAAAAAAAAAAAAAAAAAAAAAAAAAAAAAAAAAAAAAAAAB8P9x8P9DnZuw/m86fvX1y8funhy9ceeqsvOrjr16lVK1Y/fnNJ34N/qn1I+HoAAAAAAAAAAAAAAAAAAAAAAAAAAAAAAAAAAAAAAAAAAAAAAAAAAAAAAAAAAAAAAAAAAAAAAAAAAAAAAAAAAAAAAAAAAAAAAAAAAAAAAAAAAAAAAAAAAAAA+H+4+H+hz13THs50aJ4ocMw7dMqunbKqplyuVHzgQ34N9fUj4egAAAAAAAAAAAAAAAAAAAAAAAAAAAAAAAAAAAAAAAAAAAAAAAAAAAAAAAAAAAAAAAAAAAAAAAAAAAAAAAAAAAAAAAAAAAAAAAAAAAAAAAAAAAAAAAAAAAAD5b6ltPln1LafLPqR8s+pHyz6kfLPqR8s+pHyz6kfLa7zkHl6AAAAAAAAAAAAAAAAAAAAAAAAAAAAAAAAAAAAAAAAAAAAAAAAAAAAAAAAAAAAAAAAAAAAAAAAAAAAAAAAAAAAAAAAAAAAAAAAAAAAAAAAAAAAAAAAAAAAA84drWZ2tGRrGRrGRrGRrGRrGRrGRrGRrGRrGRrGRrGRrGRrGRrGRrGRrGRrGRrGRrGRrGRrGRrGRrGRrGRrGRrGRrGRrGRrGRrGRrGRrGRrGRrGRrGRrGRrGRrGRrGRrGRrGRrGRrGRrGRrGRrGRrGRrGRrGRrGRrGRrGRrGRrGRrGRrGRrGRrGRrGRrGRrGRrGRrGRrGRrGRrGRrGRrGRrGRrGRrGRrGRrGRrGRrGRrGRrGRrGRrGRrGRrGRrGRrGRrGRrGRrGRrGRrGRrGRrGRrGRrGRrGRrGRrGRrGRrGRrGRrGRrGRrGRrGRrGRrGRrGRrGRrGRrGRrGRrGRrGRrGRrGRrGRrGRrGRrGRrGRrGTztydNYxoAAAHgaT2M6AAAAAAAAAAAAAAAAAAAAAAAAAAAAAAAAAAAAAAAAAAAAAAAAAAAAAAAAAAAAAAAAAAAAAAAAAAAAAAAAAAAAAAAAAAAAAAAAAAAAAAAAAAAAAAAAAAAAAAAya8mk1jOgAAAeBpPYzoAAAAAAAAAAAAAAAAAAAAAAAAAAAAAAAAAAAAAAAAAAAAAAAAAAAAAAAAAAAyGtxHZxHZxHZxHZxHZxHZxHZxHZxHZxHZxHZxHZxHZxHZxHZxHZxHZxHZxHZxHZxHZxHZxHZxHZxHZxHZxHZxHZxHZxHZxHZxHZxHZxHZxHZxHZxHZxHZxHZxHZxHZxHZxHZxHZxHZxHZxHZxHZxHZxHZxHZxHZxHZxHZxHZxHZx/Du5dQBk15NJrGdAAAA8DSexnQAAAAAAAAAAAAAAAAAAAAAAAAAAAAAAAAAAAAAAAAAAAAAAAAAAAAAAAAAAHHtxOwAAAAAAAAAAAAAAAAAAAAAAAAAAAAAAAAAAAAAAAAAAAAAAAAAAAAAAAAOPbj2AGTXk0msZ0AAADwNJ7GdAAAAAAAAAAAAAAAAAAAAAAAAAAAAAAAAAAAAAAAAAAAAAAAAAAAAAAAAAAAce3E7AAAAAAAAAAAAAAAAAAAAAAAAAAAAAAAAAAAAAAAAAAAAAAAAAAAAAAAAA49uPYAZNeTSaxnQAAAPA0nsZ0AAAAAAAAAAAAAAAAAAAAAAAAAAAAAAAAAAAAAAAAAAAAAAAAAAAAAAAAAABx7cTsAACZxWSOsCOsCOsCOsCOsCOsCOsCOsCOsCOsCOsCOsCOsCOsCOsCOsCOsCOsCOsCOsCDeSiqAAAAAAAAAAAAAAAAAAAAAAAAAAAAAAADj249gBk15NJrGdAAAA8DSexnQAAADnyNLMNLMNLMNLMNLMNLMNLMNLMNLMNLMNLMNLMNLMNLMNLMNLMNLMNLMNLMNLNpAAAAAAAAAAAAAAAAAAAAAAAAAAAAAAAAAAHHtxOwAAI9iPYAAAAAAAHzn0cs8+d/ExfvGoZXTKemv0fm/j2AAAAAAAEivIK4AAAAAAAAAAAAAAAAAAAAAAAAAAAAAAAOPbj2AGTXk0msZ0AAADwNJ7GdAAAR7Ec79tYyNYyNYyNYyNYyNYyNYyNYyNfkzNYyNYyNf4ZWsZGsZGsZGsZGsZGsZGsZGsZJ1wce0ayAAAAAAAAAAAAAAAAAAAAAAAAAAAAAAAAAOPbidgAAR7Hy9IrJIrJIrPmKJWSRWSRWSRWSRWSRWSRWSRWSRWfMUSskiskiskiskiskiskiskiskitI/fwrgAAAAAAAAAAAAAAAAAAAAAAAAAAAAAAA49uPYAZNeTSaxnQAAAPA0nsZ0AABIryCuAAAAAAABHscSHpoez5mvp1EXnU0njsAAAAAAAAEexHsAAympxHZxHZxHZxHZxHZxHZxHZxHZxHZxHZxHZxHZxHZxHZxHZxHZxHZxHZxHZxHZxHZxHZxHZxHZxHZxHZxHZxHZxHZM0JrZBrzefJtYht48OJTcSzbEaySvebwUdsymSd+DKW/cjGVtEHmfUgAAAAAiWoP6VvXy9UpZeGEv/sL9K2XrLK+fziPpQAAJFeQVwAAAAAAAAAAAAAAAAAAAAAAAAAAAAAAAce3HsAMmvJpNYzoAAAHgaT2M6AAAhXYRUAAJBXAAAAAAAAJBXAAAAAAAABOtRbQA49uJ2AAAAAAAAAAAAAAAAAAAAAAAAAAAABx7cewAAAABHsR7AABJrSawAAAAAAABJrSawAAB+foPz9AAACRXkFcAAAAAAAAAAAAAAAAAAAAAAAAAAAAAAAHHtx7ADJryaTWM6AAAB4Gk9jOgAAJFeQV4F+SZN3byb5NaSdeiWb/OKqfnaNRN4AAAAEW1JNPLlOLnHviPzb5mm3zk3HLJXmnfLuxl4AAEGxNsGH979km57Uw0NYyNY4fvjScXYvF2HF2HF2HF2HF2HF2HF2HF2HF2HF2HF2HF2HF2HF2HF2HF2HF2HF2HF2HF2HF2HF2HF2HF2HHLQ5pw6+/Zxdi8XYcurkdQAR7EewAAScurseXiaWeWqaa6Hzv0QAAAAB8/Zmezt+yqp+4duU2ecfU6yq3E9Y9+IvgAASK8grgAAAAAAAAAAAAAAAAAAAAAAAAAAAAAAA49uPYAZNeTSaxnQAAAPA0nsZ0AABIryCuABJrSSsAAAAAAABJrSSsAAAAAAAACPYj2ABOozkohQOPbj2AAAAAAAAAAAAAAAAAAAAAAAAAAOPbj2AAHHtxOwAI9iPYAAJNaTWAAAAAAAAJNaTWAAAB4PYAAAEivIK4AAAAAAAAAAAAAAAAAAAAAAAAAAAAAAAOPbj2AGTXk0msZ0AAADwNJ7GdAAASK8grgASa0k4aPXsmd9Pow9d4mNn4U4uzqY9fHWdQAItqSectbGduVHEZOtLGYtPXsYuNEYaXDeegAAR7EewAJ1GclEKBx7cewAAAAAAAAAAAAAAAAAAAAAAAAABx7cewAA49uJ2ABHsR7AABJxbex5w1cxj1aOxF+in0AAAAAD5ynw0E3T73GaTXGX809DjNs8TjPuZyoAABIryCuAAAAAAAAkeSyjiwjiwjiwjiwjiwjiwjiwjiwjiwjiwjiwjiwjiwjiwjiwjiwjiwjiwjiwjiwhWj2ADj249gBk15NJrGdAAAA8DSexnQAAEivIK4AEmtJKwAAAAAAAEmtJKwADz6ByOrJ4NzP4NYAAI9iPYAE6jOSiFA49uPYAAAAAAAAAAAAAAAAAAAAAAAAAA49uPYAAce3E7AAj2I9gAAk1pNYHk9PHsAAAAAAk1pNYAHk9AOWY3M3k1gAASK8grgAAAAAAAjWY9gAAAAAAPndJZTMZfR+pTR+BfReZeRPRZSPZURuxTAAAAAAjWZBXABx7cewAya8mk1jOgAAAeBpPYzoAACRXkFcACTWkmDRU7HzOj6DifLV6HY9gAAAARbUkx4/rMpjzfQ5iTz+iznzlWgMcz6biS8v0PE0gAAj2I9gATqM5KIUDj249gAAAAAAAAAAAAAAAAAAAAAAAAADj249gABx7cTsACPYj2AACTHsajHN+kHzna1oPn/y2Pn/AKfL+EGjU8mfcAAHzejtTPl9dXWSJf0fQg/lvoYMdjyZJX0vI0gAASK8grgAAAAAAAj2I9gAAAAAAl9twyyPoRj8bxC1Uxhw3BN76xL16RN06QAAAAAAkV5BXABx7cewAya8mk1jOgAAAeBpPYzoAACRXkFcACTWklZxxlJwylFl9ndj2AAAACTWjFl54mhx8mhP1nVyym9L7G5KqgAAEexHsACdRnJRCgce3HsAAAAAAAAAAAAAAAAAAAAAAAAAAce3HsAAOPbidgAR7EewAASa0ned2Hud3Lyd2PYAAAAASa0S0frP6OzhlKLh+nZi4FRJ6FJMpgACRXkFcAAAAAAAHydbzYJLTnPx+1CU9/h5VPR8xRUiapcDI39CYofhgbvBkVhJVhJnfTyQq5jGo8zE06CcoczG6/hze9BkVhJVhJzX4paZvZ2Bx7Z9AAya8mk1jOgAAAeBpPYzoAACRXkFcACTWknLB9UPlev0onz/AKASawAAAAJFeSY5/wBkJs/6ISJ/04+St0vwhft0RaGn9AAAI9iPYAE6jOSiFA49uPYAAAAAAAAAAAAAAAAAAAAAAAAAA49uPYAAce3E7AAj2I9gAAkzKdYjZ/oR85m+sEuoAAAAAED90Vj5GrZEfD9MPnP36ITs9j9Pnu9ofOfR/n6AAJFeQVwAAAAAAAR7EewTPNUfM29fkmTPqB49hJ4d6x8vvsj5Xt9D7JU/6UfPcPqBLqAAk1pJnXh8vRriH4vj5jXcE6T9N+kLZR/D9AAh3IRs8VCcHcoADJryaTWM6AAAB4Gk9jOgAAJFeQVwAJNaSVmHwUUekdgAAAAAJNaKWmLkUmPiUkbabEzyVXzm4qodg6AAAj2I9gATqM5KIUDj249gAAAAAAAAAAAAAAAAAAAAAAAAADj249gABx7cTsACPYj2AACTWkisk9CkiaygmikAAAACTW+fsndO/SgwYS6w+Sgmyj6dKxn0IAAEivIK4AAAAAAAI9iPYACDzPok6iASa0nSbUfYbE7wVGTsdQAAJNaSVmbOUU70b0jUbWDkVEvGfQI2koAASK8grgAAAZNeTSaxnQAAAPA0nsZ0AABIryCuABJrST113iL3pgAAAAABJrST8nfUDJisDDN+gHz+6kMHCsI1PsAAAI9iPYAE6jOSiFA49uPYAAAAAAAAAAAAAAAAAAAAAAAAAA49uPYAAce3E7AAj2I9gAAk8+lYlZrwh0dYj6twAAAAAi+/2sfNVaAn5bQh9a4nca4m4r4AAASK8grgAAAAAAAjWZH4WEcdveYad8cWEceueDcetOcfmjgM9XELCOLCOLCOLEnzOKf5+Dxrzjty/Bw28R14/o/e3AWEcWEcWI/K0ewAAAMmvJpNYzoAAAHgaT2M6AAAkV5BXAAk1pJWTJh9Ml5i6h9is4dwAAABJrRS0j5T6JN5FdB6ll8/pKvqD6LiDWNAAAI9iPYAE6jOSiFA49uPYAAAAAAAAAAAAAAAAAAAAAAAAAA49uPYAAce3E7AAj2I9gAAk1pIrIfsssewAAAAAAk1vnKZQfPaSwnyT6ZG/C14nzT6VHnn1AAAEivIK4AAAAAAAAAAAAAAAAAAAAAAAAAAAAAAAAAGTXk0msZ0AAADwNJ7GdAAASK8grgASa0koY6Qgaqombew49gAAAASa0k1Y7A44qY4Y6Ym9tgw+tgm0f0AAAR7EewAJ1GclEKBx7cewAAAAAAAAAAAAAAAAAAAAAAAAABx7cewAA49uJ2ABHsR7AABJ68qxlwWRx7AAAAAABI0cKxK3dxgbxO6bRj40hjz1AAAAkV5BXAAAAAAAAAAAAAAAAAAAAAAAAAAAAAAAAAAya8mk1jOgAAAeBpPYzoAACRXkFcACTWklZ856PoXyWs+h/IVE3AAAAASa0UtPncZ9cj5i/6gcz6Pl8xVNnjlML3jBlPpAAAR7EewAJ1GclEKBx7cewAAAAAAAAAAAAAAAAAAAAAAAAABx7cewAA49uJ2ABHsR7AABJrScB9L5+f4H1KRXAAAAAAJNP5vsfQvkNx9C+X+oAAAAAAEivIK4AAAAAAAAAAAAAAAAAAAAAAAAAAAAAAAAAGTXk0msZ0AAADwNJ7GdAAASK8grgASa0k39fQ5eNA59AAAAAASa0kqZdgZtI/M+kcHcOPYeOOkAAAR7EayAJ1GclEKBx7cewAAAAAAAAAAAAAAAAAAAAAAAAABx7cewAA49uJ2ABHsR7AABJ3Yaxw9dRx7AAAAAABH34qxj0+xm0gAAAAAAkV5BXAAAAAAAAAAAAAAAAAAAAAAAAAAAAAAAAAAya8mk1jOgAAAeBpPYzoAACRXjlibSjGr1P0lSTWkm/8AZP4VfcPSU/35jcV8maWfUdvnqZuAAAjWZBV4xZ59Z5yzylrmzz6LLBtnvzl8mmnI2GwAAECtKoJt/ZNA7Tdfk0hQOPbj2AAAAAAAAAAAAAAAAAAAAAAAAAAOPbj2AAHHtxOwAI9iPYAAJO/BJPpvybiL3P57QfSfvPoAAAAARLUH9K3r5eqUsvDCX/2F+lXh7znvpg7nen859GAAJFeQVwAAAAAAAAAAAAAAAAAAAAAAAAAAAAAAAAAMmvJpNYzoAAAHgaT2M6AAAj2BO0deB6eR6kVR6eR6w7By7+R6eR6eR6eR6eR6eR6kVR6eR6eR6eR65ex6eR46+R6eR6eR6mUdZg3foAce3E7AA49uPYAAAAAAAAAAAAAAAAAAAAAAAAAA49uPYAAce3E7AHkk2I9gAAk1pNYAAAAAAAAk1pNYAAA/P0APz9AABIryCuAAAAAAAAAAAAAAAAAAAAAAAAAAAAAAAAABk15NJrGdAAAA8DSexnQAAAAAAAAAAAAAAAAAAAAAAAAAAHHtxOwAOPbj2AAAAAAAAAAAAAAAAAAAAAAAAAAOPbj2AAGPYHL3yTj3y9zBYjWV+d0bR+bsO4k8O/I2eE4qfvjEbE6ueekzSVAAAAfP2Zns7fsqqfuHblNnnH1OuTZ+mLt46ma9CugACRXlFUAAAAAAAAAAAAAAAAAAAAAAAAAAAAAAAAADJryaTWM6AAAB4Gk9jOgAAAAAAAAAAAAAAAAAAAAAAAAAAOPbidgAce3HsAAAAAAAAAAAAAAAAAAAAAAAAAAce3HsAAAAPPoS+VkR1gR1gfLUbAjrAjrAjrAjrAjrAjrAjrAjrA+Wo2BHWBHWBHWBHWBHWBHWBHWBHWBBvAAAAAAAAAAAAAAAAAAAAAAAAAAAAAAAAAAAya8mk1jOgAAAeBpPYzoBxHZxHZxHZxHZxHZxHZxHZxHZxHZxHZxHZxHZxHZxHZxHZxHZxHZxHZxHZxHZxHZxHZxHZxHZxHZxHbi8JpCgce3HsAAAAAAAAAAAAAAAAAAAAAAAAAAce3HsAAAAAAAAAAAAAAAAAAAAAAAAAAAAAAAAAAAAAAAAAAAAAAAAAAAAAAAAAAAAAMmvJpNYzoAAAHgaT2M6By6+fQAAAAAAAAAAAAAAAAAAAAAAAAAAABx7cewAAAAAAAAAAAAAAAAAAAAAAAAABx7cewAAAAAAAAAAAAAAAAAAAAAAAAAAAAAAAAAAAAAAAAAAAAAAAAAAAAAAAAAAAAAya8mk1jOgAAAeBpPYzoHn159ADj2hnRYEdYEdYEdYEdYEdYEdYEdYEdYEdYEdYEdYEdYEdYEdYEdYEdYEdYEdYEdYEf8Aa4IlsAAAA49uPYAEk6cafUjrAjrAjrAjrAjrAjrAjrAjrAjrAjrAjrAjrAjrAjrAjrAjrAjrAjrAjrAjrAxbcHQ1gA49uPYAAAAAAAAAAAAAAAAAAAAAAAAAAAAAAAAAAAAAAAAAAAAAAAAAAAAAAAAAAAAAZNeTSaxnQAAAPA0nsZ0Dz68+gDN59eTWAAAAAADHr+fyn03SHMPr/wAifpQ0fM9y3o+Y7F/zFyn0/wC/N1jcAAAAAACPYj2AAAADj249gBHsRywAAAAAAADP1j4z6RFlH2PmVgLfDjmLvX5HWfRs+gAAAAAAASK8grgA49uPYAAAAAAAAAAAAAAAAAAAAAAAAAAAAAAAAAAAAAAAAAAAAAAAAAAAAAAAAAAAAAZNeTSaxnQAAAPA0nsZ0Dz68+gDN59Rj6JJFZJFZJFZJFZJ8FlJFZJFZJFZJFZJFbjPFZJ8FlJFZJFZJFZJFZJFZJFZJFZJFZJHmx819KAAAAce3HsAI9iAX0kVkkVkkVkkVknyWEf0VkkVkkVkkVkkVkkVkkVkb2VkkVkkVkkVkkVkkVkkVkkVkkVpH75LAAOPbj2AAAAAAAAAAAAAAAAAAAAAAAAAAAAAAAAAAAAAAAAAAAAAAAAAAAAAAAAAAAAAGTXk0msZ0AAADwNJ7GdA8+sfVO/5L6nLVw7rrIhbfI0S75nik+M+zEmtJKyD7LaF1LCPwL6H+ltHsACTWklZMzFxC0lRE7FVCFv1C/S4+WoFlNpAAEexHsAAAAHHty8p3cJZVj1ZZdC/n78bsPpvzLKPoHz2ksZtOY864GwppOcvPnepdScp9Ah1TuACTW+cplB89pLCfJPpkb8LSXgPo3zmgtvmfpgABIryCuADHseT08j08j08j08j08j08j08j08j08j08j08j08j08j08j08j08j08j08j08j08j08j08j08j08j08j08j08j08j08j08j08j0yawAAAAAAAAAAAAAAAAAAAAAAAAAAAABk15NJrGdAAAA8DSexnQAGfQJWr15NfLqM7QJtIMG8EmtJOnbYJvbYJ3mmMvjaMuoAEmtJNX5tE/rrGPxvE7RpGH92jE2jHsAACPYj2AAAAAADNKvRywDi7CXu7Dh+aAzacxm6ddJj5URP8Uxk57xi2gABI0cKxK3dxgbxO6bRj69xN97xOogAAkV5BXAAAAAAAAAAAAAAAAAAAAAAAAAAAAAAAAABx7cewAAAAAAAAAAAAAAAAAAAAAAAAAAAAAya8mk1jOgAAAeBpPYzoAAGbz68msCbS+cPoPHz9o2ASa0kreIfA+mfOaiy+X9n0rj2AAEmtJKyFyPonzG0seoHk+hfNiv25wC93l6CiAACPYj2AAAAAABHsRywBx7SzV+cfnj7IDNpzHjvI8F98zQKwAAAAJNb5vQXHyms+g8ypZ9W+d/C9m5Yyt5zSj6kAACRXkFcAAAAAAAAAAAAAAAAAAAAAAAAAAAAAAAAAHHtx7AAAAAAAAAAAAAAAAAAAAAAAAAAAAADJryaTWM6AAAB4Gk9jOgAAIdzgd0cWEcWPyQLCOLEnz4NFGSK3OaKnicLCOLCOLCOLEnz4LPOaKaYKqUN+iQNuiUKX5OFhHFhHFhH/AE5XAAAAAAASaw5dZnIsI4seJQsI4sZsHk3dpfood5AsI4sI4sI4sI4sI49U4/s2644odJYodJYo+cAqcsAsI4sI4sI40+2wAAAAAAAAAAAAAAAAAAAAAAAAAAAAAAAAAA49uPYAAAAAAAAAAAAAAAAAAAAAAAAAAAAAZNeTSaxnQAAAPA0nsZ0AAAAAAAAAAAAAAAAAAAAAAAAAAAAAAAAAAAAAAAAAAAAAAAAAAAAAAAAAAAAAAAAAAAAAAAAAAAAAAAAAAAAAAAADj249gAAAAAAAAAAAAAAAAAAAAAAAAAAAABk15NJrGdAAAA8DSexnQAAAAAAAAAAAAAAAAAAAAAAAAAAAAAAAAAAAAAAAAAAAAAAAAAAAAAAAAAAAAAAAAAAAAAAAAAAAAAAAAAAAAAAAAOPbj2AAAAAAAAAAAAAAAAAAAAAAAAAAAAAGTXk0msZ0AAADwNJ7GdAAAAAAAAAAAAAAAAAAAAAAAAAAAAAAAAAAAAAAAAAAAAAAAAAAAAAAAAAAAAAAJHkso4sI4sI4sI4sI4sI4sI4sI4sI4sI4sI4sI4sI4sI4sI4sI4sI4sI4sI4sI4sI4sI4sIN4AAA49uPYAAAAAAAAAAAAAAAAAAAAAAAAAAAAAZNeTSaxnQAAAPA0nsZ0AAAAAAAAAAAAAAAAAAAAAAAAAAAAAAAAAAAAAAAAAAAAAAAAAAAAAAAAAAAAACNZj2AAAAAAAAASyox4C2+eoFFGFlF5l5+foAAAAAAAB+TKkcsAAA49uPYAAAAAAAAAAAAAAAAAAAAAAAAAAAAAZNeTSaxnQAAAPA0nsZ0AAAAAAAAAAAAAAAAAAAAAAAAAAAAAAAAAAAAAAAAAAAAAAAAAAAAAAAAAAAAACPYj2AAAAAAAABNpDD4oiT2oCdq7iZ6ogAAAAAAAABHsRywAADj249gAAAAAAAAAAAAAAAAAAAAAAAAAAAABk15NJrGdAAAA8DSexnQAAAAAAAAAAAAAAAAAAAAAAAAAAAAAAAAAAAAAAAAAAAAAAAAAAAAAAAAAAABxOwPk63mwSXLaZ2zUfMUW8wKHsmNPcnqwkqwkqwkqwkqwkqwkqwk572YlaNOslt3ont+Y4qInO/g5u/E/FYSVYSVYSfNiOWDidgAce0ykn6FAAAAAAAAAAAAAAAAAAAAAAAAAAAAZNeTSaxnQAAAPA0nsZ0AAAAAAAAAAAAAAAAAAAAAAAAADzx9dk4uxeLsOLsOLsOLsOLsOLsOLsOLsOLsOLsOLsOLsOLsOLsOLsOLsOLsOLsOLsOLsOLsOLsOLsOLsOLsOLsOLsOLsOLsOLsOLsOLsOObeTi7Fj2I9ggfn0AxbQk49lYh8foh8ntvgAAAAAABm05jzKr6T4z6KiPnu9ofM8/qhOxXf0hrn4cNAAAIF+OUs+4nF2Lx/O4z+/zsnHnq4nYKAAAAAAAAAAAAAAAAAAAAAAAAAAAya8mk1jOgAAAeBpPYzoAAAAzGfhp3kdYEdYEdYEdYEdYEdYEdYEdYEdYEdYEdYEdYEdYEdYEdYEdYEdYEar0hlwAHHtx7AAAAAAAAAAAAAAAAAAAAAAAAAAAAAAAAAAAEexHsAAEmtHxn0jHxKSb7N6ZTAAAAAAGbTmGnB0Nab1NqbnLTHxKSXPPpErMXn5+gACPYjlgAAHHtx7Dj24nYACX62E1YEdYEdYEdYEdYEdYEdYEdYEdYEdYEdYEdYEdYEdYEdYEdYEdYEdYEdYEdYGXVDuAAAADJryaTWM6AAAB4Gk9jOgAAAJNaSVgAAAAAAMez5M+h9yuxQ8z85fyY8hW3TKYAAAAAAkV5BXABx7cewAAAAAAAAAAAAAAAAAAAAAAAAAAAAAAAAAABHsR7AABJ59KxkhfUCcoj5n6YAAAAAAGbTmGHdpPl72oSO9AfP+7omqQlcbY8ewAAR7EcsAAA49uPYce3E7AAj2I9gAAAAAAy95X6UMc/0V/U3OVNGaKX/MKiaekned/cSibPXztArAAAAAAk1pNYAAAAZNeTSaxnQAAAPA0nsZ0AAABJrSSsj+iskisk+Cyjeyskiskiskiskiskisk8C6kiskiskiskiskiskiskiskitI/cB9KADj249gAAAAAAAAAAAAAAAAAAAAAAAAAAAAAAAAAACPYj2AACTWk4D6VJzl5A6lpEtgAAAAADNpzDTg4FZ87QKSTlPoEfiXvMvKfQInE+hcuoAAj2I5YAABx7cew49uJ2ABHsROpWSRWSRWSRWSRWSeBdSRWSRWSRWSRWSRW8yxWRhZSRWSRWSRWSRWSRWSRWSRWSQrfK/VAAAADJryaTWM6AAAB4Gk9jOgAAAJNaSVjCde8qIfZZtOYaYncqPnuhdQsp9Ogfh9AABJrSSsw4i2+e9l5GFl8tTKfLDyKvSGLwAEivIK4AOPbj2AAAAAAAAAAAAAAAAAAAAAAAAAAAAAAAAAAAI9iPYAAJPbjWJ/5RGNsGTWAAAAAADNpzDx70kar0E3TpEz1RGPxvGPhTAAACPYjlgAAHHtx7Dj25nRwHfNLrJHvwbyseyEW3y9Y3c8XMs+odwSa0IupecuIXUsJPMtPmfR9I8+gDMTS2j8C++dpFB835PpvMroavcfQU/fzH04ABJrSawAAAAya8mk1jOgAAAeBpPYzoAAACTWklbz6Dl1HjjpzHDbx0k/V2HDJSGfzqAACTWklXNqGLv2GHV0Eyh7GL92DF71AABIryCuADj249gAAAAAAAAAAAAAAAAAAAAAAAAAAAAAAAAAACPYj2AACTWkzS/zwYD6tE5H0Cb+lHz8tqPoP35TcXXyeo+ifO1zWABm05j81TZB9S+c9FvxD0lDpJ1HvtJonbxP7lZl1AACPYjlgAAHHtx7AADNpEC/HsDz6HPjqGXv7HLqCRXkndvGP1qGT3oE3rtAAGbx7H542jjw2jPlpDnw1jD62DHsAACTWk1gAAABk15NJrGdAAAA8DSexnQAAAEmtJK3j3kPBAPrc2nMNMX0WHyvk+sQeZ9Fn+f8AZ9K+I+3AEmtJKydLPpXynY+g6/PdS4+Ivm3nwyG/RH6l0ACPYjm/r5nJXYu5+d+PZQAAAAAAAAAAAAAAAAAAAAAAAAAAAAAAAAAAI9iPYAAJO7DWHPoOHrqMvnYOPPUMun9Gb13HDuAADNpzD9/NJm0fox9e48+OoztA58NYAAAR7EcsAAA49uPYAAAj2I9gA54/Xg6a/lPrD9AkV4Bf4fM6z6J85nPq0KWfYgAAzefUwuPneJ9Q+X3FXr8xjPs807ufvuVpN235r6UAAk1pFcAAAAZNeTSaxnQAAAPA0nsZ0AAAB59CHc8SyujixmwDfpjiwjiwjiwjiwjiwjixJ8iwjiwjiwjiv+xxU6RxY5yxYRxYRxVh7aRm0gAAAAAAAAAAAAAAAAAAAAAAAAAAAAAAAAAAAABHsR7AABJ6c5x9El5Sz2gj6Lxg4FbFC3GzZ8vcNj5XUfQ9vnbp1AAzacxx9/kM+i/YPc09JfY2aJfo66Y207+8f4XWbSAAI9iOWAAAce3HsAAAZclXidkcWEcWEcWEcWIvoU+scWEcWEcWEcWEcWEcb2AWPyQLCOLH5IFjnLFhHFTpHFhHFhH9mP6EAAAAGTXk0msZ0AAADwNJ7GdAAAAAAAAAAAAAAAAAAAAAAAAAAAAAAAAAAAAAAAAAAAAAAAAAAAAAAAAAAAAAAj2I9gAAk1pNYAA8ev0AAAAAAM2nMNObSAAAAPz9AAACPYjlgAAHHtx7AAAAAAAAAAAAAAAAAAAAAAAAAAAAADJryaTWM6AAAB4Gk9jOgAAAAAAAAAAAAAAAAAAAAAAAAAAAAAAAAAAAAAAAAAAAAAAAAAAAAAAAAAAAAAR7EewAASffieVf388n7kxby2AAAAAABm05jj09YTr1iXjPn99zpxw+zT47dyNuy7TB9D8/9AAAI9iOWAAAce3HsAAAAAAAAAAAAAAAAAAAAAAAAAAAAAMmvJpNYzoAAAHgaT2M6AAAAAAAAAAAAAAAAAAAAAAAAAAAAAAAAAAAAAAAAAAAAAAAAAAAAAAAAAAAAABHsR7AePYBJrSawAAAAAAAAAzacw05tIAAAAAAAAj2Pnj6Fz6AAHHtx7AAAAAAAAAAAAAAAAAAAAAAAAAAAAADJryaTWM6AAAB4Gk9jOgAAAAAAAAAAAAAAAAAAAAAAAAAAAAAAAAAAAAAAAAAAAAAAAAAAAAAAAAAAAAAR7ES2fMevoBz059BJnUehw/d34StuKocOWoYc1P9KIAAAAGbTmOPDb4JNDhVJuXdpMHHX6OXCj4MPinxNvYAAECvgNeKhpTi7F4uw4dwAAAAAAAAAAAAAAAAAAAAAAAAAAAAAZNeTSaxnQAAAPA0nsZ0AAAAAAAAAAAAAAAAAAAAAAAAAAAAAAAAAAAAAAAAAAAAAAAAAAAAAAAAAAAAADBmsCOsCOsD53VYEdYEdYEdYEdYEdYEdYEdYEdYEdYEfldELrYEdYEdYEdYEdYEdYEdYEdYEdYEmsAAAAAAAAAAAAAAAAAAAAAAAAAAAAAAAAADJryaTWM6AAAB4Gk9jOgAAAAAAAAAAAAAAAAAAAAAAAAAAAAAAAAAAAAAAAAAAAAAAAAAAAAAAAAAAAAAAAAAAAAAAAAAAAAAAAAAAAAAAAAAAAAAAAAAAAAAAAAAAAAAAAAAAAAAAMmvJpNYzoAAAHgaT2M6AAAAAAAAAAAAAAAAAAAAAAAAAAAAAAAAAAAAAAAAAAAAAAAAAAAAAAAAAAAAAAAAAAAAAAAAAAAAAAAAAAAAAAAAAAAAAAAAAAAAAAAAAAAAAAAAAAAAAAAya8mk1jOgAAAeBpPYzoAAAjH56sCOsCOsCOsCOsCOsCOsCOsCOsCOsCOsCOsCOsCOsCOsCOsCOsCOsCOsCOsCPooRiyAAAAAAAAAAAAAAAAAAAAAAAAAAAAAAAAAAAAABG6VCQsCOsCOsCOsCOsCOsCOsCOsCOsCOsCOsCOsCOsCOsCOsCOsCOsCOsCOsCP8AlkcO8S2AAAAAAAAAAAAAAAAAAAAAAAAAAAAAAAAAAMmvJpNYzoAAAHgaT2M6AAAj2I5YAAAAAA8+uRx5YORX5Z/wpZPccs94mw2Mw0/nDAVs+uQfQgAAAAATaU0o/v5+gAAAAAAGDKskdYEdYEdYEdYEdYEdYEdYEdYEdYEdYEdYEdYEdYEdYEdYEdYEdYEdYEdYEfzaHDvFtAAAAAAAAEexHsAAAAAAAADFtxHpnyG3vCuGsAAAAAAAAEexHsAAAAAAAAAAAAAAAAAAAAAAAAAAAAAAAAAADJryaTWM6AAAB4Gk9jOgAAI9iCXkkVkkVknKfQJIrJIrJIrJIrJIrJIrZsQrJIrJPItonUrJIrJIrJIrJIrJIrJIrJIrTec8+l/fz9AAAAAAAI9iPYAAAAAEynJPGjvLNnrNqMr86HbmmlDRGqnTz+eTo/MZo86c5VAAAAABIryK4AAAAAAABHsROpWSRWSRWfP6iskiskiskiskiskiskiskiskis+f1FZJFZJFZJFZJFZJFZJFZJFZJHmx819KAAAAAAAAAAAAAAAAAAAAAAAAAAAAAAAAAAMmvJpNYzoAAAHgaT2M6AAAj2I5Yz6JBtYpp9TJrSSsmSD6pLyl58xQK75n2fQ+vmPR9K+e3lIADNpzDTI5Fx8prPoPMqWfVvnfwvZuWMrec0o+pAAm0ppR/fz9AAAAAAAI9j5ekVkkVkkVnzm0rJIrJIrJIrJIrJIrJIrJIrJIrPnNpWSRWSRWSRWSRWSRWSRWSRWSR+V/nvoQAAAAAAACPYj2Dlzzejrr+M+zJNaT2KD5aqVHz3svImQ+m/IeI+qfOez6BKqgAEmtJ/Sq+b4H1fmRwPoEWefVZMPQ28ZvE+h6zqIABHsR7AAAAAAAAAAAAAAAAAAAAAAAAAAAAAAAAAAAya8mk1jOgAAAeBpPYzoAACPYjlgDx7CTWklPx2HD80Dx47Dn7/Rm7exn0AAAzacw7cdJk1hn6dBn6dBw86Rz5aQAAm0ppR/fz9AAAAAAAI9iPYJvafyK+qXUJNaTAPtUHwfQvm9ZZfL+j6bjJjH2r5n9PpQAASa0nMX3zfA+r5R+Z9C+b5H1GCZUPfOJtK2idRAAJFeRXAAAAAAAAI9iPYAPHsJNSXWOP53GbR+ji7Bn0Dnz0AAACTUl1jnz0Dzz7D8y6wyaxy89xw7gABHsR7AAAAAAAAAAAAAAAAAAAAAAAAAAAAAAAAAAAya8mk1jOgAAAeBpPYzoAACPYjlgACTWkmvvL4lfjB6n0H78rcNiNkPq3j2AAAM2nMfmfPxLP78nXKvifiPofEvIfQ9sW0AAATaU0o/v5+gAAAAAAEexHsAAEmrKrAAAAAAAAEmtJrAAD8/Q5dQBz6AABIryK4AAAAAAABHsR7AABJ2Y/wBKHibJPo+3z/A+p84sBd9fPdClv+X3FPv8f9gAASaU0adPy2ku+J2Ys9ZeMt6/l/qAAAACPYj2AAAAAAAAAAAAAAAAAAAAAAAAAAAAAAAAAABk15NJrGdAAAA8DSexnQAAEexHLAAEmtJKwAAAAAAAGbTmGnNpAAAAAAAE2lNKP7+foAAAAAABHsR7AABJ8e8xVz4uJW6/O3zp5kaShpiWwAAACTsxj1rgditx94jX0nejfth3AAAACRXkVwAAAAAAACPYj2AACTWk1gAAAAAAACTWk1gAAAAAAACPYj2AAAAAAAAAAAAAAAAAAAAAAAAAAAAAAAAAABk15NJrGdAAAA8DSexnQAAEexHLAAEmtJNuLZiO356lFfn1klH8x0Dz58ZzTsk7SkABm05jjk6+Tp1j0jrm0ZzX455CprzaQAABNpTSj+/n6AAAAAAAR7EewAASa0msAAAAAAAASa0msAAAAAAAASK8iuAAAAAAAAR7EewAASdmPWZgfveLaOHqVpNXpyOvDgKmuVVAAJOzH2Mu2Z1NfHpxPWnzPNNaFdAAAAI9iPYAAAAAAAAAAAAAAAAAAAAAAAAAAAAAAAAAAGTXk0msZ0AAADwNJ7GdAAAR7EcsAASa0krAAAAAAAAZtOYac2kAAAAAAATaU0o/v5+gAAAAAAEexFtAAEn159Bl0n49dDLpz6Sf06fp55/vY9VJ1EAAk9uPYwc+3Q668e47gAAAAAkV4toAAAAAAAAj2I9gAAk1pNYAAAAAAAAk1pNYAAAAAAAAj2I9gAAAAAAAAAAAAAAAAAAAAAAAAAAAAAAAAAAZNeTSaxnQAAAPA0nsZ0AABHsRywABJrSTXgqTT9xUxy4WMhg/aHInaenYn/u/9N3oAGbTmMebd5J/TruJP0M+gAAAAAJtKMWP0AAAAAAAMGWyI6wI6wPmttgR1gR1gR1gR1gR1gR1gR1gR1gfNbbAjrAjrAjrAjrAjrAjrAjrAj+bQ4dwAAAAAAAAj2JVM9AAk/v5QJmGsM/Hd6OU+7hOOan4Md3HvAAAJPfhrI/nf2MO391HYAAAAAEexEtgAAAAAAAAAAAAAAAAAAAAAAAAAAAAAAAAADJryaTWM6AAAB4Gk9jOgAAARfVgR1gR8v0QjrAjrAjrAjrAjrAjrAjrAjrAj8rohdbAjrAjrAjrAjrAjrAjrAjrAj6KAAAAAAAAAAAAAAAAAAAAAAAAAAAAAAAAAAAAAAARrIjrAjrA+d1WBHWBHWBHWBHWBHWBHWBHWBHWB87qsCOsCOsCOsCOsCOsCOsCOsCP5tDh3AAAAAAAAAAAAAAAAAAAAAAAAAAAAAAAAAABk15NJrGdAAAA8DSexnQAAAAAAAAAAAAAAAAAAAAAAAAAAAAAAAAAAAAAAAAAAAAAAAAAAAAAAAAAAAAAAAAAAAAAAAAAAAAAAAAAAAAAAAAAAAAAAAAAAAAAAAAAAAAAAAAAAAAAAGTXk0msZ0AAADwNJ7GdAAAAAAAAAAAAAAAAAAAAAAAAAAAAAAAAAAAAAAAAAAAAAAAAAAAAAAAAAAAAAAAAAAAAAAAAAAAAAAAAAAAAAAAAAAAAAAAAAAAAAAAAAAAAAAAAAAAAAAAZNeTSaxnQAAAPA0nsZ0AAAAAAAAAAAAAAAAAAAAAAAAAAAAAAAAAAAAAAAAAAAAAAAAAAAAAAAAAAAAAAAAAAAAAAAAAAAAAAAAAAAAAAAAAAAAAAAAAAAAAAAAAAAAAAAAAAAAAABk15NJrGdAAAA8DSexnQAAAAAAAAAAAAAAAAAAAAAAAAAAAAAAAAAAAAAAAAAAAAAAAAAAAAAAAAAAAAAAAAAAAAAAAAAAAAAAAAAAAAAAAAAAAAAAAAAAAAAAAAAAAAAAAAAAAAAAGTXk0msZ0AAABh3O5ka1ZGsZGsZGsZGsZGsZGsZGsZGsZGsZGsZGsZGsZGsZGsZGsZGsZGsZGsZGsZGsZGsZGsZGsZGsZGsZGsZGsZGsZGsZGsZGsZGsZGsZGsZGsZGsZGsZGsZGsZGsZGsZGsZGsZGsZGsZGsZGsZGsZGsZGsZGsZGsZGsZGsZGsZGsZGsZGsZGsZGsZGsZGsZGsZGsZGsZGsZGsZGsZGsZGsZGsZGsZGsZGsZGsZGsZGsZGsZGsZGsZGsZGsZGsZGsZGsZGsZGsZGsZGsZGsZGsZGsZGsZGsZGsZGsZGsZGsZGsZGsZGsZGsZGsZGsZGsZGsZGsZGsZGsZGsZGsZGsZGsZGsZGsZGsZGsZGsZGsZPWlAcUAAAAAAAAAAAAAAAAAAAAAAAAAAAAAAAAAAAAAAAAAAAAAAAAAAAAAAAAAAAAAAAAAAAAAAAAAAAAAAAAAAAAAAAAAAAAAAAAAAAAAAAAAAAAAAAAAAAAAAAAAAAAAAAAAAAAAAAAAAAAAAAAAAAAAAAAAAAAAAAAAAAAAAAAAAAAAAAAAAAAAAAAAAAAAAAAAAAAAAAAAAAAAAAAAAAAAAAAAAAAAAAAAAAAAAAAAAAAAAAAAAAAAAAAAAAAAAAD//xAAC/9oADAMBAAIAAwAAACHzzzzzzzzzzzzzzzzzzzzzzzzzzzzzzzzzzzzzzzzzzzzzzzzzzzzzzzzzzzzzzzzzzzzzzzzzzzzzzzzzzzzzzzzzzzzzzzzzzzzzzzzzzzzzzzzzzzzzzzzzzzzzzzzzzzzzzzzzzzzzzzzzzzzzzzzzzzzzzzzzzzzzzzzzzzzzzzzzzzzzzzzzzzzzzzzzzzzzzzzzzzzzzzzzzzzzzzzzzzzzzzzzzzzzzzzzzzzzzzzzzzzzzzzzzzzzzzzjDDDDDDDDzzzzzzzzzzzzzzzzzzzzzzzzzzzzzzzzzzzzzzzzzzzzzzzzzzzzzzzzzzzzzzzzzzzzzzzzzzzzzzzzzzzzzzzzzzzzzzzzzzzzzzzzzzzzzzzzzzzzzygYAAAIYoHzzzzzzzzzzzzzzzzzzzzzzzzzzzzzzzzzzzzzzzzzzzzzzzzzzzzzzzzzzzzzzzzzzzzzzzzzzzzzzzzzzzzzzzzzzzzzzzzzzzzzzzzzzzzzzzzzzzzzyga4OPDB8HzzzzzzzzzzzzzzzzzzzzzzzzzzzzzzzzzzzzzzzzzzzzzzzzzzzzzzzzzzzzzzzzzzzzzzzzzzzzzzzzzzzzzzzzzzzzzzzzzzzzzzzzzzzzzzzzzzzzzygPPNIAGMHzzzzzzzzzzzzzzzzzzzzzzzzzzzzzzzzzzzzzzzzzzzzzzzzzzzzzzzzzzzzzzzzzzzzzzzzzzzzzzzzzzzzzzzzzzzzzzzzzzzzzzzzzzzzzzzzzzzzzyw0000001/zzzzzzzzzzzzzzzzzzzzzzzzzzzzzzzzzzzzzzzzzzzzzzzzzzzzzzzzzzzzzzzzzzzzzzzzzzzzzzzzzzzzzzzzzzzzzzzzzzzzzzzzzzzzzzzzzzzzzxL333333333333333333333333333333333333333333333333333333333333333333333333333333333333333333333333333333333333333333333333zzzzzwHzzzzzzzzzzzzzzzzzzzzzzzzzzzzzzzzzzzzzzzzzzzzzzzzzzzzzzzzzzzzzzzzzzzzzzzzzzzzzzzzzzzzzzzzzzzzzzzzzzzzzzzzzzzzzzzzzzzzzzzz3zzzzwHzzzzzzzzzzzzzzzzzzzzzzzzzzzzzzzzzzzzzzzzzzzzzzzzzzzzzzzzzzzzjDDDDDDDDDDDDDDDDDDDDDDDDDDDDDDDDDDDDDDDDDDDDDDDDDDDDDDDDTTz3zzzzwHzzzzzzzzzzzzzzzzzzzzzzzzzzzzzzzzzzzzzzzzzzzzzzzzzzzzzzzzzzzyjzzzzzzzzzzzzzzzzzzzzzzzzzzzzzzzzzzzzzzzzzzzzzzzzzzzzzzzzxTz3zzzzwHzzzzzzzzzzzzzzzzzzzzzzzzzzzzzzzzzzzzzzzzzzzzzzzzzzzzzzzzzzzyjzzzzzzzzzzzzzzzzzzzzzzzzzzzzzzzzzzzzzzzzzzzzzzzzzzzzzzzzxTz3zzzzwHzzzzzzzzzzzzzzzzzzzzzzzzzzzzzzzzzzzzzzzzzzzzzzzzzzzzzzzzzzzyjzzwwwwwwwwwwwwwwwwwwwwwzzzzzzzzzzzzzzzzzzzzzzzzzzzzzzzzzxTz3zzzzwHzzzzzzzzzzzzzzzzzzzzzzzzzzzzzzzzzzzzzzzzzzzzzzzzzzzzzzzzzzzyjzzxTzzzzzzzgiSSjTzzzzzzzzzzzzzzzzzzzzzzzzzzzzzzzzzzzzzzzxTz3zzzzwHzzzyxzzzzzzzzzzzjzzzzzzzyxzzzzzzzzzzzzzzzzzzzzzzzzzzzzzzzzzyjzzxDDDjDDDDDDDDjDDDDDDDDTzzzzzzzzzzzzzzzzzzzzzzzzzzzzzzzxTz3zzzzwHzzzzzzzzzzzzyjQRTzzzzzzzzxTzzDDDDDDDDDDDDDDDDDDDDDDDDDDDDD33333xSDwCzzzzzzzxSBxxAzzzzzzzzzzzzzzzzzzzzzzzzzzzzzzzzzzzzxTz3zzzzwHzzzyjzzjzzzzzzzzjzzzzzzzzzzyjzzzzzzzzzzzzzzzzzzzzzzzzzzzzxTzzzzxTzxTzzzzzzzxTzzxyzzzzzzzzzzzzzzzzzzzzzzzzzzzzzzzzzzzzxTz3zzzzwHzzzzzyCjxRzzzzzyjQQwhBTzzxR2t300wwwwwwwwwwwwwwwwwwwwwwwwx20wzzzxTzxAgTjzzzzwhiSTDjzzzzzzzzzzzzzzzzzzzzzzzzzzzzzzzzzzzxTz3zzzzwHzzzzzzyjzzzzzzzyjzzzzzTzzxTz3zxTzzzzzzzzzzzzzzzzzzzzzzzzzxTzyjzxTzxTzzzzzzzxTzzzzzzzzzzzzzzzzzzzzzzzzzzzzzzzzzzzzzzzzxTz3zzzzwHzzzzzzyhSzCzyjzyjAyACyDzzxTz3zxTzzzzzzzzzzzzzzzzzzzzzzzzzxTzyjzxTzwRRTzzzzzxgDBgQjzzzzzzzzzzzzTDDDDDDDDDDDDDDDDDDDDTzxTz3zzzzwHzzzzzzyjjzjzzzzyjzzTzzjzzxTz3zxTzzzzzzzzzzzzzzzzzzzzzzzzzxTzyjzxTzxTjzzzzzzxTzjzjzzzzzzzzzzzzzTzzzzzzDTTTzzTzzzzzzzzzxTz3zzzzwHzzzzzzyjjCzzzzzygyQhwCDzzxTz3zxTzzzzzzzzzzzzzzzzzzzzzzzzzxTzyjzxTzwQCTjDzzzyRSCThTzzzzzzzzzzzxTzzzzzyywzwzxzzzzzzzzzzxTz3zzzzwHzzzzzzyjTTDTzzzyjTzjDDTzzxTz3zxTzzzzzzzzzzzzzzzzzzzzzzzzzxTzyjzxTzxDjjTzzzzxTjTTjTzzzzzzzzzzzyQwggyQAwwgQxgwwwQwQwxjTxzz3zzzzwHzzzzzzyhywzzzzzyjwzwwzTzzxTz3zxTzzzzzzzzzzzzzzzzzzzzzzzzzxTzyjzxTzwSxzzzzzzxQzzxQzTzzzzzzzzzzxRxwxxSyRwzzyixwwwyjzzj0zzz3zzzzwHzzzzzzyzDjzzzzzyjzDDDDzzzxTz3zxTzzzzzzzzzzzzzzzzzzzzzzzzzxTzyjzxTzxzzDjzzzzxDTjjzzzzzzzzzzzzzxTzzzxDTTDzzyjjDDjTDzzzzzzz3zzzzwHzzzzzzyjwzzzzzzyhxzyxzzzzxTz3zxTzzzzzzzzzzzzzzzzzzzzzzzzzxTzyjzxTzwTwwzzzzzySxxwyzzzzzzzzzzzzxDBDDAxAADDDCRACCCCDDCjzzzz3zzzzwHzzzzzzyjDjDTzzzyjzDjDBjzzxTz3zxTzzzzzzzzzzzzzzzzzzzzzzzzzxTzyjzxTzxDTzzzzzzxTDzTDDzzzzzzzzzzzzzzzzzzzzzzzzzzzzzzzzzzzzzz3zzzzwHzzzzzzyjzxzzzzzygzwwwyzzzxTz3zxTzzzzzzzzzzzzzzzzzzzzzzzzzxTzyjzxTzwRzzzzzzzyQwyxyzzzzzzzzzzzzzzzzzzzzzzzzzzzzzzzzzzzzzzz3zzzzwHzzzzzzyjDzzzzzzyjDhDTCjzzxTz3zxTzzzzzzzzzzzzzzzzzzzzzzzzzxTzyjzxTzxSjzzzzzzxCTTzzzzzzzzzzzzzzzzzzzzzzzzzzzzzzzzzzzzzzzzz3zzzzwHzzzzzzyhyxzzzzzyjxyzwwzzzxzz3zxTzzzzzzzzzzzzzzzzzzzzzzzzzxTzyjzxTzwTzzzzzzzySzzzzzzzzzzzzzzzzzzzzzzzzzzzzzzzzzzzzzzzzzzz3zzzzwHzzzzyxSggCzDTzzyhzCwBhTzzwVGnzxTzzzzzzzzzzzzzzzzzzzzzzzzzxTzyjzxTzxCAzTzzzzxSBxyRDzzzzzzzzzzzzzzzzzzzzzzzzzzzzzzzzzzzzzz3zzzzwHzzzyzTyzzzzzzzzyzzzyzxzzwwzyjzxTzzzzzzzzzzzzzzzzzzzzzzzzzxTzyjzhTzxTzzzzzzzxTzzxzxzzzzzzzzzzzzzzzzzzzzzzzzzzzzzzzzzzzzzz3zzzzwHzzzzzzzzzzzzzzzzzzzzzzzzzzzyjzxTzzzzzzzzzzzzzzzzzzzzzzzzzxTzzyENQBQDzARDzzzwhiSQQRzzzjzzzzzzzzzzzzzzzzzzzzzzzzzzzzzzzzzz3zzzzwHzzzzzzzzzzzzzzzzzzzzzzzzzzzyjzxTzzzzzzzzzzzzzzzzzzzzzzzzzxTzzzyzwwywwwwwwwwywwwwwwwwzzzzzzzzzzzzzzzzzzzzzzzzzzzzzzzzzzzz3zzzzwHzzjDDDDDDDDDDDDDDDDDDDDDDDDCXzxTzzzzzzzzzzzzzzzzzzzzzzzzzxTzzzzzzzzzzzzzzzzzzzzzzzzzzzzzzzzzzzzzzzzzzzzzzzzzzzzzzzzzzzzz3zzzzwHzzTzzzzzzzzzzzzzzzzzzzzzzzzzzzxTzzzzzzzzzzzzzzzzzzzzzzzzzxTzzzzzzzzzzzzzzzzzzzzzzzzzzzzzzzzzzzzzzzzzzzzzzzzzzzzzzzzzzzzz3zzzzwHzxTygwwwwwwwwwwwwwwwwwwwxzTzzzxTzwQwwwwwwwwwwwwwwwwwwwxTzxTzzzzzzzzzzzzzzzzzzzzzzzzzzzzzzzzzzzzzzzzzzzzzzzzzzzzzzzzzzzzz3zzzzwHzxTyzzzzzzzziiyCTRzzzzzzzxTzzzxTyjzzzzzzzzwxTBjzzzzzzzzzzxTzzzzzzzzzzzzzzzzzzzzzzzzzzzzzzzzzzzzzzzzzzzzzzzzzzzzzzzzzzzzz3zzzzwHzxTzzDDDDDDDDDDDDDDDDDDDDBzzzzxTyzDDDDTjDDDDDDDDDDDDDDDTzxTzzzzzzzzzzzzzzzzzzzzzzzzzzzzzzzzzzzzzzzzzzzzzzzzzzzzzzzzzzzzz3zzzzwHzxm3SzjjyjjzjjzyjzjjzTjzzxTzzzxnEXxixDzjTzjjzxTDzTjTzzzzzzjDDDDDDDDDDDDDDDDDDDDDDDDDDDDDDDzzzzzzzzzzzzzzzzzzzzzzzzzzzzzz3zzzzwHzzzzzyxxyhzzzzzyhzxyzzzzzxTzzzzzwjzxyzwwzxxzzyQwywxxzzzzzzzzzzzzzzzzzzzzzzzzzzzzzzzzzzzzzxTzzzzzzzzzzzzzzzzzzzzzzzzzzzzz3zzzzwHzzzzzyhTyjDTTTzyjjBzChDzzxzzzzzzyjzyDzxTDzzzzxjSjizTzzzzzzzzzzzzzzzzzzzzzzzzzzzzzzzzzzzzzxTzzzzzzzzzzzzzzzzzzzzzzzzzzzzz3zzzzwHzzzyjDADCDACDDDCCBAABBDDDTzzzzzzzziCDDRhDDDDDBBABCBDDDBTzzzzzzzzzzzzzzzzzzzzzzzzzzzzzzzzzxTzzzzzzzzzzzzzzzzzzzzzzzzzzzzz3zzzzwHzzzzzzzzzzzzzzzzzzzzzzzzzzzzzzzzzzzzzzzzzzzzzzzzzzzzzzzzzzzzzzzzzzzzzzzzzzzzzzzzzzzzzzzzzxTzzzzzzzzzzzzzzzzzzzzzzzzzzzzz3zzzzwHzzzzzzzzzzzzzzzzzzzzzzzzzzzzzzzzzzzzzzzzzzzzzzzzzzzzzzzzzzzzzzzzzzzzzzzzzzzzzzzzzzzzzzzzzxTzzzzzzzzzzzzzzzzzzzzzzzzzzzzz3zzzzwHzzzzzzzzzzzzzzzzzzzzzzzzzzzzzzzzzzzzzzzzzzzzzzzzzzzzzzzzzzzzzzzTDDDDDDDDDDDDDDDDDDDDDDTzzxTzzzzzzzzzzzzzzzzzzzzzzzzzzzzz3zzzzwHzzzzzzzzzzzzzzzzzzzzzzzzzzzzzzzzzzzzzzzzzzzzzzzzzzzzzzzzzzzzzzzTzzzzzzzzjzTDzTzzzzzzzxjzzxTzzzzzzzzzzzzzzzzzzzzzzzzzzzzz3zzzzwHzzzzzzzzzzzzzzzzzzzzzzzzzzzzzzzzzzzzzzzzzzzzzzzzzzzzzzzzzzzzzzxTzzzzzzzzyzwxzzzzzzzzzyjzzxTzzzzzzzzzzzzzzzzzzzzzzzzzzzzz3zzzzwHzzzzzzzzzzzzzzzzzzzzzzzzzzzzzzzzzzzzzzzzzzzzzzzzzzzzzzzzzzzzzzyQgSAgQwwwwwwwwwQAAwAwwwjzzxXzzzzzzzzzzzzzzzzzzzzzzzzzzzzz3zzzzwHzzzzzzzzzzzzzzzzzzzzzzzzzzwUwwwwwwwwwwwwwwwwwwwwwwwwwwwwwwwwx3xTxwSyzzzzzzzzwzyxxQjzzyi0xyVnzzzzzzzzzzzzzzzzzzzzzzzzzzzz3zzzzwHzzzzziwwwwwwwwwwwwwwwwwyjzxTzzzzzzzzzzzzzzzzzzzzzzzzzzzzzzzzzzxTzxTDzzzzzzzzzzTjjDzTzyjzzxSjzygwwwwwwwwwwwwwwwwwwwxTzzzz3zzzzwHzzzzyjzzzzzzygwDjzzzzzzzzzxTzzzzzzzzzzzzzzzzzzzzzzzzzzzzzzzzzzxTzxQwxzzzzzzzyxyzzzzzzyjzzxSjzxTzzzzzyBCyCRwwjzzzzzxTzzzz3zzzzwHzzzzyjjDDDDDDDDTDDDDDDDDDzxTzzzzzzzzzzzzzzzzzzzzzzzzzzzzzzzzzzxTzxDzDzzzzzzzzTDzSjDzzyjzzxSjzxjDDDDTDDDDDDDDDDDDDDBzzzzz3zzzzwHzzzzyjzRzDjjjzyjDDDhwDzzzzxTzzzzzzzzzzzzzzzzzzzzzzzzzzzzzzzzzzxTzxSwxzzzzzzzyyxxwzzzzyjzzxSzCNzgChyzjTRjzzjTDyTzzzxTzzzz3zzzzwHzzzzyjzzxxyxzzyhwwxzyzzzzzxTzzzzzzzzzzzzzzzzzzzzzzzzzzzzzzzzzzxTzxTDjyTTDjzzzjiCSCDTzyjzzxTzzxSwzzziwwyzzzyxxxxxzzxTzzzz3zzzzwHzzzzyzwRzDDTTTyjTxDBSzzygPHTzzzzzzzzzzzzzzzzzzzzzzzzzzzzzzzzzzxTzxSxxxxyxzzzyzzxxzzzzyjzzxTzzxTzgDzzTDjzzzzyzDDTTzxzzzzz3zzzzwHzzzzyzTDDDDCDDCDBBBDDDDAxzzzzzzzzzzzzzzzzzzzzzzzzzzzzzzzzzzzzzxTzxBwixzCRDzzzgDBSQjzzyjzzxTzzxzjDDCBDDDDDCDDDDDDDDRzzzzz3zzzzwHzzzzzzzzzzzzzzzzzzzzzzzzzzzzzzzzzzzzzzzzzzzzzzzzzzzzzzzzzzzzzzxTzxTzxzzzzzzzzzzzzzzzzyjzzxTzzzzzzzzzzzzzzzzzzzzzzzzzzzzz3zzzzwHzzzzzzzzzzzzzzzzzzzzzzzzzzzzzzzzzzzzzzzzzzzzzzzzzzzzzzzzzzzzzzxTzxBBzzzzzzzzzhSixCxzzyjzzxTzzzzzzzzzzzzzzzzzzzzzzzzzzzzz3zzzzwHzzzzzzzzzzzzzzzzzzzzzzzzzzzzzzzzzzzzzzzzzzzzzzzzzzzzzzzzzzzzzzxTTxTzzzzzzzzzzzzzzzzzzyzTzxTzzzzzzzzzzzzzzzzzzzzzzzzzzzzz3zzzzwHzzzzzzzzzzzzzzzzzzzzzzzzzzzzzzzzzzzzzzzzzzzzzzzzzzzzzzzzzzzzzzxzjQQgDxDzzzzzxgjRTARTzzScwxzzzzzzzzzzzzzzzzzzzzzzzzzzzzzz3zzzzwHzzzzzzzzzzzzzzzzzzzzzzzzzzzzzzzzzzzzzzzzzzzzzzzzzzzzzzzzzzzzzzywwwwwwwwwwwwwwwwwwwwwwxzzzzzzzzzzzzzzzzzzzzzzzzzzzzzzzzzz3zzzzwHzzzzzzzzzzzzzzzzzzzzzzzzzzzzzzzzzzzzzzzzzzzzzzzzzzzzzzzzzzzzzzzzzzzzzzzzzzzzzzzzzzzzzzzzzzzzzzzzzzzzzzzzzzzzzzzzzzzzzzzz3zzzzwHzzzzzzzzzzzzzzzzzzzzzzzzzzzzzzzzzzzzzzzzzzzzzzzzzzzzzzzzzzzzzzzzzzzzzzzzzzzzzzzzzzzzzzzzzzzzzzzzzzzzzzzzzzzzzzzzzzzzzzzz3zzzzwHzzzzwwwwwwwwwwwwwwwwwwwwxjzzzzzzzzzzzzzzzzzzzzzzzzzzzzzzzzzzzzzyAwwwwwwwwwwwwwwwwwwwxzzzzzzzzzzzzzzzzzzzzzzzzzzzzzzzzzzz3zzzzwHzzzyjzzzzzyhSAQAjizzzzzzzzzzzzzzzzQwwwwwwwwwwwwwwwwwwwxzzzzzzzzxTzzzzzzzzzzDzzzzzzzzxTzzzzzzzzzzzzzzzzzzzzzzzzzzzzzzzzzz3zzzzwHzzzyjDDDDDDDDDDDDDDDDDDDDTzzzzzzzxTzzzzywTzyixSSTzzzzzzzzzzzzzzxjDDDDDDDDDDDDDDDDDDDBTzzzzzzzzzzzzzzzzzzzzzzzzzzzzzzzzzz3zzzzwHzzzyjxCjzzThjDzzzjSjizTzzzzzzzzzzxDDDDDDDDDDDDDDDDDDDDDzzzzzzzzxSjxTTzCDjTzxDSDCSjTzxTzzzzzzzzzzzzzzzzzzzzzzzzzzzzzzzzzz3zzzzwHzzzyiyygyywyzzzzzxwxyxzzzzzzzzzzzxSjRDjzSTTzzxBCThxzTzzzzzzzzzzxTzwQzxyzzzzxTxwzxzzzxTzzzzzzzzzzzzzzzzzzzzzzzzzzzzzzzzzz3zzzzwHzzzyjzyiwDwjzzzzxTghhTzzzzzzzzzzzxTzwTzzyzzzzxTzzzzzzzzzzzzzzzzxTzwSBSTjzzzwAwDjTzzzxTzzzzzzzzzzzzzzzzzzzzzzzzzzzzzzzzzz3zzzzwHzzzyjzyjzzzzzzzzzzzzzzzzzzzzzzzzzxTzxSizzzzzzwRhhjzzzzzzzzzzzzzxTzxTzzzzzzzxTzzzzzzzxTzzzzzzzzzzzzzzzzzzzzzzzzzzzzzzzzzz3zzzzwHzzzyjzyhATjCDjzzwjzCzzzzzzzzzzzzzxTzxTzzzzzzzxTzzzzzzzzzzzzzzzzxTzwACiSRDTzwBhDhzzzzxTzzzzzzzzzzzzzzzzzzzzzzzzzzzzzzzzzz3zzzzwHzzzyjzyjzzzzzzzzzzzzzzzzzzzzzzzzzxzzxCQDTQTTzxASTzzzzzzzzzzzzzzxTzxTzzzzzzzxTzzzzzzzxTzzzzzzzzzzzzzzzzzzzzzzzzzzzzzzzzzz3zzzzwHzzzyjzygBSSwwRzzyxhzzzzzzjzzzzzzzzwwwwwwwwwwwwwwwwwwwwxzzzzzzzzxzzxgwBCyTzzwSgDzzzzzxTzzzzzzzzzzzzzzzzzzzzzzzzzzzzzzzzzz3zzzzwHzzzzwwwwwwwwwwwwwwwwwwwwxzzzzzzzzzzzzzzzzzzzzzzzzzzzzzzzzzzzzzzywwwwwwwwwwwwwwwwwwwxzzzzzzzzzzzzzzzzzzzzzzzzzzzzzzzzzzzz3zzzzwHzzzzzzzzzzzzzzzzzzzzzzzzzzzzzzzzzzzzzzzzzzzzzzzzzzzzzzzzzzzzzzzzzzzzzzzzzzzzzzzzzzzzzzzzzzzzzzzzzzzzzzzzzzzzzzzzzzzzzzzz3zzzzwHzzzzzzzzzzzzzzzzzzzzzzzzzzzzzzzzzzzzzzzzzzzzzzzzzzzzzzzzzzzzzzzzzzzzzzzzzzzzzzzzzzzzzzzzzzzzzzzzzzzzzzzzzzzzzzzzzzzzzzzz3zzzzwHzzzzzzzzzzzzzzzzzzzzzzzzzzzzzzzzzzzzzzzzzzzzzzzzzzzzzzzzzzzzzzzzzzzzzzzzzzzzzzzzzzzzzzzzzzzzzzzzzzzzzzzzzzzzzzzzzzzzzzzz3zzzzwHzzzzzzzzzzzzzzzzzzzzzzzzzzzzzzzzzzzzzzzzzzzzzzzzzzzzzzzzzzzzzzzzzzzzzzzzzzzzzzzzzzzzzzzzzzzzzzzzzzzzzzzzzzzzzzzzzzzzzzzz3zzzzx3333333333333333333333333333333333333333333333333333333333333333333333333333333333333333333333333333333333333333333333333/AM8888888888888888888888888888888888888888888888888888888888888888888888888888888888888888888888888888888888888888888888888888888888888888888888888888888888888888888888888888888888888888888888888888888888888888888888888888888888888888888888888888888888888888//xAA3EAABBAECAwYEBQUBAQEBAQAEAAIDBQEUFSA0NQYREhMlMBAyQGAWJkVGUCEiIzNwJDGgNoD/2gAIAQEAAQcC/wDyDVnPQ/8Afaznof8At0MWZpWRyMzFI9nCNA4mXEecd2c4+EozoooJJxnQRwP+FZz0P/bq/nIERgCGeVFisjZHNCwJkOJJYBZRnkCiQzByyww1xXfFWY8J2MQCee+STETCicRvxVxOzFZM8scFpDR9KA/I4pUUj1Wc9D/26v5yBHtc0udSY8FTFh0QocA78S+bXF5h6QUqznoUJ1aVOdHYQyQVX9hvhexzJHNsGuYLXtsGu0de6o/pLNIqznof+3Qy5hlZJucme9ElSlOxmKwc2Jsb7GWSOSNpLmiyDjzZHlbLGW6MlxDZXskxJMU6WbE26SfNOVIQyJrbKZuI8THvkjzEqznof++1nPQ/9t2w5bYctsOW2HLbDlthy2w5bYctsOW2HLbDlthy2w5bYctsOW2HIEEqEqJ//wDugnOcDz5hEzJDE/QLQLQLQLQLQLQLQLQLQLQLQLQLQLQLQLQLQLQLQLQLQLQLQLQLQLQLQLQLQLQLQLQLQLQLQLQLQLQLQLQLQLQLQLQLQLQLQLQLQLQLQLQLQLQLQLQLQLQLQLQLQLQLQLQLQLQLQLQLQLQLQLQLQLQLQLQLQLQLQLQLQLQLQLQLQLQLQLQLQLQLQLQLQLQLQLQLQLQLQLQLQLQLQLQLQLQLQLQLQLQLQLQLQLQLQLQLQLQLQLQLQLQLQLQLQLQLQLQLQLQLQLQLQLQLQLQLQLQLQLQLQLQLQLQLQLQLQLQLQLQLQLQLQLQLQLQLQLQLQLQLQLQLQLQLQLQLQLQLQLQLQLQLQLQLQLQLQLQLQLQLQLQLQLQLQLQLQLQLQLQLQLQLQLQLQLQLQLQLQLQLQLQLQLQLQLQLQLQLQLQLQLQLQLQLQLQLQLQLQLQLQLQLQLQLQLQLQLQLQLQLQLQLQLQLQLQLQLQLQLQIPDmEGReyVypKF5Ub/uQ/PWHtFcqSheVG/wC5D89Ye0VypKF5Ub/uQ/PWHtFcqSheVG/7kPz1h7RXKkoXlRvvpmJSsvfpcrS5WlytLlaXK0uVpcrS5WlytLlaXK0uVpcrS5WlytLlaXK0uVpcrS5WlytLlaXK0uVpcrS5WlytLlaXK0uVpcrS5WlytLlaXK0uVpcrS5WlytLlaXK0uVpcrS5WlytLlaXK0uVpcrS5WlytLlaXK0uVpcrS5WlytLlaXK0uVpcrS5WlytLlaXK0uVpcrS5WlytLlaXK0uVpcrS5WlytLlaXK0uVpcrS5WlytLlaXK0uVpcrS5WlytLlaXK0uVpcrS5WlytLlaXK0uVpcrS5WlytLlaXK0uVpcrS5WlytLlaXK0uVpcrS5WlytLlaXK0z0NJI7zY+AfnrD2iuVJQvKjffQXLt+84ubK4R+esPaK5UlC8qN99Bcu37zi5srhH56w9orlSULyo330Fy7fvOLmyuEfnrD2iuVJQvKjffQXLt+84ubK4R+esPaK5UlC8qN99Bcu3jPPmZOwPFSXJ/dsrlsrlsrlsrlsrlsrlsrlsrlsrlsrlsrlsrlsrlsrlsrlsrlsrlsrlsrlsrlsrlsrlsrlsrlsrlsrlsrlsrlsrlsrlsrlsrlsrlsrlsrlsrlsrlsrlsrlsr1JLYVGcPa7D24d9gRc2Vwj89Ye0VypKF5Ub76C5dvHUf3lXM/8AEyxtmikioHufVj4+wIubK4R+esPaK5UlC8qN99Bcu3jpfmt/oZb1zcSzPMOeSbHEeZnQTMNtJdfJqo82MZbDjmtFnzZTRimoi0kZPJA668cALq07WYnb9BQdP+wYubK4R+esPaK5UlC8qN7cpYsGe7cq5blXLcq5blXLcq5blXLcq5blXLcq5blXLcq5blXLcq5blXLcq5blXLcq5blXLcq5blXLcq5blXLcq5blXLcq5blXLcq5blXLcq5blXLcq5blXLcq5blXLcq5blXLcq5blXLcq5blXJj2SY8X2KFy7eOl+a3+h22dmcsjE8skybb86ethFCLk3PGK6PE7Hx1s2NMzymmXWZJwJszTTSgPdgZwkEsDHY+goOn/AGDFzZXCPz1h7RXKkoXlRvaPnIJLbXQ0lZDhbXWra61bXWra61bXWra61bXWra61bXWra61bXWra61bXWra61bXWra61bXWra61bXWra61bXWra61bXWra61bXWra61bXWra61bXWra61bXWra61bXWra61bXWra61bXWra61bXWraq1FVOm7ygS2HCwkfYgXLt46X5rf+LoOn/YMXNlcI/PWHtFcqSheVG9qux32l2/6F88ccsMXDHPHK6Vv0VH/a2yj+xAuXbwZzjHd8QANXNav2VbKtlWyrZUOBJMfZD7KtlWyrZVsq2VbKtlWyrZVsq2VbKtlWyrZVsqqgJDgICNlWyrZVsq2VbKtlWyrZVsq2VbKtlWyrZVsq2VbKuz/T/sGLmyuEfnrD2iuVJQvKje1W9QuvorWPzTKhhD5Robkctnkjwx5mLjAtoe6QSyGaJFIRCMc0d8zrrIMrpwxZfoaX5rf7FCdjwOi+M/+0H40vzW/wANXZSTl4js8TOrciGSGSyuQPWLxSnhQSYinMFF8KcSOyHzoLKMkzMMR4U8mYvco5ooKUNzpomSRxQ2AREuYmmiPl8mI8KeXMQ1qPJhmCDwxXNbMaKP4VktzzRoJzzR2vInLI1OmfZv0bCuOg6f9gxc2Vwj89Ye0VypKF5Ub2q3qF19ESEMZ4E2uEZBLASGOWxjG1QTY5o3QRvmhm2oHz8TNHiZ56iiZBFHF9DS/Nb8L8OIIdFoh1oh1oh1oh1oh1oh1oh1oh1oh1oh1oh1oh1oh1oh1oh1oh1oh1oh1oh1oh1oh1oh1oh1oh1oh1oh1oh1oh1oh1oh1oh1oh1oh1oh1oh1oh1oh1oh1oh1oh1oh1oh1oh1oh1oh1oh1oh1oh1oh1oh1oh1oh1oh1oh1oh1oh1oh1oh0OFDPh8m2BrbA1tga2wNZqgMragFtQC2oBSV4sUwi0kS0kSo8eHNthQCPnItEdXxSE04tc6QZ7q9A9YvF5sAmvhfIwOwdNiKSMUObv1p1k4b/NLWxe5VDtL7OxwAunJyQYPJ5pNTmGB7gLdopIcsgcL4+6gNVhL/AOsuIFmXPoc4/supFYyRFf3Ok0FiRNIx7Kaydj/5x0HT/sGLmyuEfnrD2iuVJQvKje0GSMPYXC3KuW5Vy3KuW5Vy3KuW5Vy3KuW5Vy3KuW5Vy3KuW5Vy3KuW5Vy3KuW5Vy3KuW5Vy3KuW5Vy3KuW5Vy3KuW5Vy3KuW5Vy3KuW5Vy3KuW5Vy3KuW5Vy3KuW5Vy3KuW5Vy3KuW5Vy3KuW5Vy3KuW5Vyo3NfuruCLmyv5sLl2+y+PD3RO+FL81vxA9YvPouzvRw/YfBE+SGT4SwRTZizx0HT/sGLmyuEfnrD2iuVJQvKje0GMMRYXC22uW21y22uW21y22uWiC37yttrlttcttrlttcttrlttcttrlttcttrlttcttrlttcttrlttcttrlttcttrlRBBTVQr9trlttcttrlttcttrlttcttrlttcttrlttcttrlttcttrlttcttrlttcttrlttcqNrWbq1SyYiikk+EXNlfzYXLt9yl+a34gesXn0XZ3o4f0dB0/wCwYubK4R+esPaK5UlC8qN7Vb1C6+H+SeztW4sJNLXTASTnv1q/cSks3NnMhefnyRpN3j00U+6yZdJE6yZ5QrxC2lYl9yjfmOigfuMeYgZJbTMMiydnWSC7r4nYzg+aIm0xKe7yx35uItMNOTLNO+sgzkyO2ExiY6YGazfLOcUyCScp1eblufFjGeGpIghktsa4JGGCOEKxu1eprWDLMtcwwd5cuLQDOMZ3MBbmAtzAWDw8rXCLXCLXCLXCLXCLXCLXCLXCLXCLXCLXCLXCLXCLXCLXCLXCLXCLXCLXCLXCLXCLXCLXCLXCLXCLXCLXCLXCLXCLXCLXCLXCLXCLXCLXCLXCLXCLXCLXCLXCLXCLXCLXCLXCLXCLXCLXCLXCLXCLXCLXCLXCKc+PLo4oiQ4Y2s1wi1wi1wi1wi1wiaYK92G8NL81vxA9YvFBOU846eK18zR5ItMjPep7DMU0kMdu2TI7prPy3TqN7ZWMk9qqJ0fZ8ad5eGlQjw2bnzwxxWXmOIUFi+aWJo1pJEP4yz5B3uxJZtxkTHjkmtIGQzMklfmTM5p5A8hc+a/UcdB0/wCwYubK4R+esPaK5UlC8qN7Vb1C6+DKxj7KxnNE1DgMQjTCGyZX7iUA8rC7OTIBjRq1kFYUyDDGQSYONmzVTaaszWDPHZLn2+zvRw0HXzQmvdNWHSefiAeRh9hNBFaCMiEiGlbJaZeAZ5Na2CtKjhGbYf4iqwqeCR59fNoD2DTV8opI5LCZ4JRa0xrG4YxjOGl+a3+B3JF/GXGZTJR+DLcRmx5/lJoPM8tw0jpYWP4ZImTMcwNznDRcNL81vxA9YvFgWb1dPDnyDUxGVp02tbFBI02aWMAltdVwT1crZSswx4iiij9qjjbLRQRgAlwxlOHri2zgOYE5wZw4+bXxwseARmnJFNCLlLmcGERC6qTv8FwxxUNkVFKJKOXAXKSSM+Ct0nHQdP8AsGLmyuEfnrD2iuVJQvKje1W9QuuL9xfRdnejh/R0vzW/wzjDsZb8P1Xhl5sX+WC5dvGFy7eGl+a34gesXn0XZ3o4f0dB0/7Bi5srhH56w9orlSULyo3tVvULri/cXxw5ue9eJvfhvu9nejh8OHNznOPhJIyJvidJGzLcZzhuM5fNFHH5vHS/Nb8P6rwy82L/ACwXLt4wuXbw0vzW/ED1i8WHNd3/AEPZ3o4fC1zXY7/g6WNjo25KGw7wue1n9XSRsyzHHQdP+wYubK4R+esPaK5UlC8qN7Vb1C64v3ErM4oeWVZMILeJEOSSNFZZ7jI7UXEZ50dY04OwlcXiCuPLnna2E8x5uY04ixfuecmkFOEiBIlmxOzho8SZooMMsJiI6tpNmTBO/OJjJbEqGCa0LbGU3W6q5zOfM4YGXFmZIGG6dsuSqeC0FjawmXDWEyUkEQ8fn3IVZJmavDfxUvzW/D+q8MvNi/ywXLt4wuXbw0vzW/ED1i8TSJx8F5iILjJJGEsiMmDRa6ywLqmlkCTFxQW0+ZA8+3XSTw9m4ZcFvnNiYNZE6sZkZZmGHEj7r44XwzmCV8hNkYVDM5utLJdWYZjL7deTkLEs+IYjbU7Ge/FOX7FB0/7Bi5srhH56w9orlSULyo3tVvULri/cSmq3SSFOzW9zA1HURtHJhirZMEtJxXx7e0KEOZkrpIqxzZoH7W50jV4rdNCw1p2M1vdGIhRWisc3h7O9HDQ9dGOWSS6mzlskUY2IyiiMVWWua1gmGONdmqc3AeY6lsbImmwSvkCnlAldLK59ZD5QrMhyDCmZGhwMPDDxUvzW/D+q8MvNi/ywXLt4wuXbw0vzW/ED1i8W2N/uUwDJ5p5IquRsokm2t0mmcGx5Uk8NdJE+H3Oz3RhEJVwiwEwxVMjHCKMNjISIYK+SKWJzq1rgJg5q1zyJ5YK5sGQsvglbZQkvq/M8TCAPNm88iv8A/HAFx0HT/oSjipynBbPO7+uyuWyuWyuWyuWyuWyuWyuWyuWyuWyuWyuWyuWyuWyuWyuWyuWyuWyuWyuWyuWyuWyuWyuWyuWyuWyuWyuWyuWyuWyuWyuWyuWyuWyuWyuWyuWyuWyuWyuWyuUkVrWYzMMRGXBFPwRc2Vwj89Ye0VypKF5Ub2q3qF1xfuL6Ls70cP6Ol+a34f1Xhl5sX+WC5dvGFy7eGl+a34gesXn0XZ3o4f0dB0/6Hs9/cBmf+KpseTJaDcEXNlcI/PWHtFcqSheVG9qt6hdcX7i+HnR+d5PxbNG+SWP2+zvRw+GOdksk8fwJJaNiJYshXF6R1sEyRzCToBcsa6xHwPGRxUvzW/D+q8MvNi/ywXLt4wuXbw0vzW/ED1i8+ME7CGudqI9Tkb3ezvRw+EedhMfmfCQlrCBx82ouJPCSfAK9sbrGDyhpuOg6f9D2c6QN7uc4bjLmXrs+RLKec3cJISzMFCxx2NlkTJzymik25DST4poI8WU7g4ERdOa8pT2+PFAzdyJRxXEEk+RZiDEmQ4q8POPc0khxpMpeIHWz2BxPr7DJM00Hu1vULrhi5srhH56w9orlSULyo3tVvULri/cSsWO1Rc0cI8t22SHDoaWY0Zk8JwqY4yQeIsEeBttbO9ujjxNRQRjyyFurgyX9/mGshxPbHoaKGaCI3StIIu8yP1kFXGx00oQEUsMcB9LCQ1rbWpUT42dnCmDf47VuP7H1vaF0XizFFxUvzW/D+q8MvNi/ywXLt4wuXbw0vzW/ED1i8R7u/Bpj2YNsZoxs5yCJFLFGMVbsljcKAFmBpETzo63GmnZGBjI5IvwdD6fYFPZg2xliqpHyCcVfA8js3E2EppxGsF8URNZNFG6Me0MFGFieHN5Xl1U5ljhpJJTY/Ee+lUTWtuJG22fMDzNC9uLg1Z8Lqa6fj/5x0HT/AKHs50gb3f8A6oa0iHyY3AZzFZx5D7yAJQ60mYJsUleyZxyiBI86GUKLBFoSXJXT4fOpwZHSsmNDn8usi26STBjnBeJtfiSslzqImB4jM1G1/wCHwCDkRZkd7tb1C64YubK4R+esPaK5UlC8qN7Vb1C64v3Epq4IiTzZBYJZIpI4IYovJgADGe6TbgfP8/TQZnwR7fZ3o4aYPDHLLM6qr3SOkbDG2SSXbgfP8/EETczZkrgpo4Y2giMaxpQup8jLoY3SRyuBDdP584o5TfCSEycdg/FS/Nb8P6rwy82L/LBcu3jC5dvDS/Nb8QPWLxSVVfLI+ScEQnwrRCeRmCOtBixJh0ELovJhBDHZIwcAMV2XR1oULnPYC9r2u0o/lSQzhCFeFMYyNuGcPZ3o4aiGgga9sdXXwyYkZFHHh2Ia8IeXMuRB8wPgmrwiJMSsFHj8lSC+IuAnbQMy+cQIMVjGCAmzxwQ8dB0/6Hs50gb+LreoXXDFzZXCPz1h7RXKkoXlRvareoXXF+4vouzvRw/o6X5rfh/VeGXmxf5YLl28YXLt4aX5rfiB6xefRdnejh/R0HT/AKGlrNRXQybKtlWyrZVsq2VbKtlWyogCSE+tH2VbKtlWyrZVsq2VbKtlWyrZVsq2VbKhwJJj7IfZVsq2VbKtlWyrZVsq2VbKtlWyrZVsq2VbKtlVT5YxtpDwRc2Vwj89Ye0VypKF5Ub2q3qF1xfuJTnBjPawQ95LAXYPCdPpx7gSfVZybE/wqY8KCTEW5Qa/Re1RSMiox5HEwMZE/NgFifTvNFjl8rNgFifyN0gjmLZOaKKxr8miYiilmPw9oSkLPeWTAQXPFkWDJ5Dhj8Qytmiil4qX5rfh/VeGXmxf5YLl28YXLt4aX5rfiB6xeJ54Uc+IIrQeUskaM8KXD3DmCleJRnhSy5hCsoDnTt9ujmigpQ3OmiZJHFDYBES5iaaI+XyYjwp5cxDWo8mGYIPDFc1sxoo/hTi3ONGhgspsylJlkTjSyyGlPnnj3Hx4rJ+Kg6f9D2c6QN8DySIXCx5sSIsGx7lJJGEyZ+YoJZBJrWdo8u64ZAS+DM+YmZR3WKNEFDCtw7JYuI45M2ldhjHzHCD+FRkjyxecOaIVl2GHhSy5hmPDHf5cR8WiGJiminZiTgB6xeJk0UjpWvsgWQxzOMFbHHK6xBZEyaewjjyFmIwWaJ0o5whXjWLIJ7ZHRkHuCFfHYuaw9MPKZIMgyJJJTYOEGOOU27b5JECjLjc7wfAfOHzlv4B+esPaK5UlC8qN7Vb1C64v3EnSxCGWKrGPbF2dxA/yyYYps+AbtAOWzDYq1vmwCZsIu/ybiJ3tdn8YdSi4BilcXCIVK6RpDBmerWrhpR4YIQ4Ym5nvc5mdDBT4gi8QoTDf7bGoedit84rH/oEdVkwvz33B9YxzK8JvFS/Nb8P6rwy82L/LBcu3jC5dvDS/Nb8QPWLxEO8kkpeLyrKza+CTNCA2BriyCZBm5l2weud4CbOD26odpfZ2OAF05OSDB5PNJqcwwPcBbtFJDlkDhfH3UBqsJf8A1lxAsy59DnH9l1IiYHzmWcbpnmwAhsn20iwb5Dx6yoG4qDp/0PZzpA3ws43yEVeCAWwBWcgkD6uIM0ieKSI2GrAjYODNDXyucaYKQ0qCOZHdYo1Y+bDYRkMh/wDOBmOFmuvUyRkEtFI6N5A9nMwgc18+GPZKNWiPkjHzbw+GaOKlnp248smTgB6xeKzxNAQ/JucByhQiReIOtYTIwSxyRnEUuabM/jjlvsiP8yyhkghz+G/LcXFgEV0YuZhbeCSfNk+uiF/vtLR3CDDHMfcqRobXeDa8T5xnQwLRM7u5jGxtazgH56w9orlSULyo3tVvULri/cX0XZ3o4fsTQxTtw34TQRER5i46X5rfh/VeGXmxf5YLl28YXLt4aX5rfiB6xefRdnejh+w+CJ8kMnxdBE+WKbioOn/Q9nOkDcLIGRyzy8B3WKPgyOzJLCPaB6xeezDBEPHiP4QwRQYfjhDh84+4xHHHE3w+wPz1h7RXKkoXlRvareoXXF+4vouzvRw/o6X5rfh/VeGXmxf5YLl28YXLt4aX5rfiB6xefRdnejh/R0HT/oeznSBvaO6xR++D1i8+ireoXXtD89Ye0VypKF5Ub2q3qF1xfuJEWOYpZInl5zPDkWzn0Qc+CsOMeN7tG/MdFA/cY8xAyS2mYZFk7OskF3XxOxnB80RNpiU93ljvzcRaYacmWad9ZATPjJ5uJnyySghf+mSO1CEm1Ao83FS/Nb8P6rwy82L/ACwXLt4wuXbw0vzW/ED1i8Rdm5rDEKT05C2byvBmC1IYDKTkl7iAG7r/AHoYsuSyNg9qqJ0fZ8ad5eGlQjw2bnzwxxWXmOIUFi+aWJo1pJEP4yz5B3uxJZtxkTHjkmtIGQzMklfmTM5p5A8hc+a/UcdB0/6Hs50gbg7nyTWUm6PY2mIrtQT3mfE7rFGiT3QEsGKsfGHiWE/xzSwxWmH5gy627tXmY/DcwtEKYXHl/GD1i8TDWZlNj3GZ0AsmbaPTCzvsJGeXHOe/OauWKw8bCkPY5lmdDHaPmClLZDO2uGxAfJEHaTO1gDwZAXOYXZDcNb1C69ofnrD2iuVJQvKje1W9QuuL9xKSI8acqTA5LjBpmwZjp5RaZkmRsle72d6OGg6+aE17pqw6Tz8QDyMPsJoIrQRkQkQ0rZLTLwDPJrWwVpUcIzbD/EVWFEbn45maAgbFe/LZQoLM4KHI4Y0PFS/Nb8P6rwy82L/LBcu3jC5dvDS/Nb8QPWLxPGsImnDjhkRvAyGCWwuGXRGaWYUmCSQ2tlhhtA2NFZCRFZkS+1RxtlooIwAS4YynD1xbZwHMCc4M4cfNr44WPAIzTkimhFylzODCIhdVJ3+C4Y4qGyKilElHLgLlJJGfBW6TjoOn/Q9ns+EFw/xgrYtQbMUH551dKGNMFPNF8TusUaKcQy5idoCnQudOG+c572i2EsYgsIkzIbZr6uXDQZa0Zw0GccYPWLxWYE5MsbrASeSeBwoBMUATCIi4S3FeQbI6sfOGY6S2cIBO0yKaMKXZdHFOXOEHM2tlnxZ50x5MgeAf8xtkRw02fNltSPZH56w9orlSULyo3tVvULri/cXxkiimb4fe7O9HD+jpfmt+H9V4ZebF/lguXbxhcu3hpfmt+IHrF59F2d6OH9HQdP8AoSgioCsnbzKxb61b61b61b61b61b61b61b61EWOZj60jeYfH5m+tW+tW+tW+tW+tW+tW+tW+tW+tW+tW+tW+tW+tQ9jmE+yI31q31q31q31q31q31q31q31q31q31q31q31q31q31q31q3zCkltrLHlCjRBwRweyPz1h7RXKkoXlRvareoXXF+4uDL24c1vu9nejh8OHNznOPhJIyJvieQPHnw+Nng8b5ooo/M46X5rfh/VeGXmxf5YLl28YXLt4aX5rfiB6xefDxN8WWe/2d6OHwtc12O/4OljY6NuShsO8LntZ/V0kbMsxx0HT/sYfnrD2iuVJQvKje1W9QuuL9xJk5ktgdHi7ly1hGZjyJy0IbNPmkfrjtLix86wnMsYQCdWGPP7VHiTNFBhlhMRHVtJsyYJ35xMZLYlQwTWhbYym63VXOZz5nDAy4szJAw3TtlyVTwECT4MOIz5BxVUyKBnmXoNdI6YAOTipfmt+H9V4ZebF/lguXbxhcu3hpfmt+IHrF4vOsinEPPfLnNoxkpQkFU8SeUgg7Pu10k8PZuGXBb5zYmDWROrGZGWZhhxI+6+OF8M5glfITZGFQzObrSyXVmGYy+3Xk5CxLPiGI21OxnvxTl+xQdP+xh+esPaK5UlC8qN7Vb1C64v3EohsREFzMrHx5jYbjDCyEBXOihqnbTju8qEbERBcwQ2AxYR/a7O9HDQ9dGOWSS6mzlskUY2IyiiMVWWua1gmGONdmqc3AeY6lsbImmwSvkCnnr3ySSulronMGw8KQcMzEEOB4IYeKl+a34f1Xhl5sX+WC5dvGFy7eGl+a34gesXilrHOfKnAxukncZDIPV5FCH0osMXu9nujCISrhFgJhiqZGOEUYbGQkQwV8kUsTnVrXATBzVrnkTywVzYMhZfBK2yhJfV+Z4mEAebN55Ff/wCOALjoOn/Yw/PWHtFcqSheVG9qt6hdcX7i+i7O9HD+jpfmt+H9V4ZebF/lguXbxhcu3hpfmt+IHrF59F2d6OH9HQdP+xh+esPaK5UlC8qN7Vb1C64v3Fwul8MjWDzsJhjm9vs70cPhjnZLJPH8CSWjYiWLIVxekdbBMkcwk6AXLGusR8DxkcVL81vw/qvDLzYv8sFy7eMLl28NL81vxA9YvFI/EbHvhlbPFFLPOwdrXe92d6OGpCI4ph4U2aN8ksfv0HT/ALGH56w9orlSULyo3tVvULri/cSJ84g49rGSEy1DHxubXnk2LWkklNHmkmfTvp+lg+5Rx4mooIx5ZC3VwZL+/wAw1kOJ7Y9DRQzQRG6VpBF3mR+sgq42OmlCAilhjgPpYSGtba1KifGzs4Uwb/Hatx/Y+t7Qui8WYouKl+a34f1Xhl5sX+WC5dvGFy7eGl+a34gesXimjYTBcTwt1O0CkuzkEmKKNolnBD7ocskPZdj3jQC29Qnv/rCcyJkBl/MNgjDq2b3qDp/2MPz1h7RXKkoXlRvareoXXF+4kQAGVnDsDw4dE7IY2Ypopq8ImTErBB2eUoomQxsj9vs70cNMHhjllmdVV7pHSNhjbJJLtwPn+fiCJuZsyVwU0cMbQRGNY0oXU+Rl0MbpI5XAhun8+cUcpvhJCZOOwfipfmt+H9V4ZebF/lguXbxhcu3hpfmt+IHrF4pa4GeXzZARJoY4chi5hbCOEIJ4veoGtfSithrQR34ftVd5jpMjQZnwRHXAwzed71B0/wCxh+esPaK5UlC8qN7Vb1C64v3F9F2d6OH9HS/Pb8P6rwy82L/LBcu3jC5dvDS/Nb8QPWLz6Ls70cP6Og6f9jD89Ye0VypKF5Ub2q3qF18JSbBxkw7iyYZa6IUyQyeTK/cSkPCikdHGcJLM6DcAcOawg0QXw4wYLmF08JYxMbpIDRCXOadbCixkKY0UZrMtc17cO46KRkVGPI4mBjIn5sAsT6d5oscvlZsAsT+RukEcxbJzRRWNfk0TEUUsx+HtCRJJ7HT5ksXZYEtcU+A9kErZ4YpuKrHimfbZ7y4FFPFPjPxbnx2eXcEvNi/ywXLt4wuXbw0vzW/ED1i8Up4UEmIpjRR85xg8LMzYJbAKCXEJRboMlKB+ZYYZPbo5ooKUNzpomSRxQ2AREuYmmiPl8mI8KeXMQ1qPJhmCDwxXNbMaKP4U4tzjRoYLKbMpSZZE40sshpT5549x8eKyfioOn/Yw/PWHtFcqSheVG9quz3Wl3GnBtJtTFZhNlmpxq/Lw5XV6/cSzFh0/aNRM7o+zSfDjZbNOfpbCeYZvcEJJO6I8Szy2WIwyvzO9jKgoEvzBz3TVMflAx44+z+MOpRcAxSuLhEKldI0hgzPVrVw0o8MEIcMTcz3uczOhgp8QReIUJhv9tjUPspBJ/MH7yYNpLgf3yWh9UxzK0JvFURZmxYyS+XDnGNvmIlZLpcrSd68tkU4bOCXmxf5YLl28YXLt4aX5rfiB6xeKfD4c2UMEHdZsbDF4acBWMuX7rFNh7sk5E5QX3KodpfZ2OAF05OSDB5PNJqcwwPcBbtFJDlkDhfH3UBqsJf8A1lxAsy59DnH9l1IiYHzmWcbpnmwAhsn20iwb5Dx6yoG4qDp/2MPz1h7RXKkoXlRvasISBy47KG6rJm4zuVctyrluVctyrlrQt+83cq5blXLcq5ESV08uJRyqoWFkO5Vy3KuW5Vy3KuW5Vy3KuW5Vy3KuW5Vy3KuW5Vy3KuVEaFDVCs3KuW5Vy3KuW5Vy3KuW5Vy3KuUxdTO3DdyrluVcpi6kiJ0W5Vy3KuW5Vy3KuW5Vy3OuRFvqu8YYB4w0A0UEUGM8EvNi8MvNi/ywXLt4wuXbw0vzW/ED1i8+i7O9HD9h8ET5IZPi6CJ8sU3FQdP+xh+esPaK5UlC8qN7coYk+e/a61bXWra61bXWra61bXWra61bXWra61bXWra61bXWra61bXWra61bXWra61bXWra61bXWra61bXWra61bXWra61bXWra61bXWra61bXWra61bXWra61bXWra61bXWra61bXWra61bXWpjGRt8PDLzYvDLzYv8sFy7eMLl28EpEUPcqT5rfiB6xefRdnejh/R0HT/sYfnrD2iuVJQvKjfzUvNi8MvNi/ywXLt4x5o4fEP5sSlMGhx3+bNOomCwd6pfmt/hJJE849pJrK+UHNfgiXGS0D1i8UNiRHJZYkssYfAwqzeK6RS2XhJ0+LHxiYnxa405smbR3m+S2zjyLiYY3z5XwexVE6Ps+NO8vDSoR4bNz54Y4rLzHEKCxfNLE0a0kiH8ZZ8g73Yks24yJjL5ZrOBjJiw5rDPiOFiDL/9Z85qwXLLBTncVB0/7GH56w9orlSULyo381LzYvDLzYv8sFy7eNzWux3aYdSgCTN7tM4dRaGfvVT/AIy7gdDieEk+ScTzjwpQR5w5JoED1i8TYbMdx7YAXjkAo6vMnkOQwk0ZkcsgBvkTYZWE+TcYdBJk4KZ9XNLBNiuDdFNLN7FHG2WigjABLhjKcPXFtnAcwJzgzhx82vjhY8AjNOSKaEXKXM4MIiF1Unf4LhjpQnTFG5wJYTMEGdAeNOW54ungqK7hkkbFG+Sga7FVBn7FH56w9orlSULyo381LzYvDLzYv8sFy7fblHim7keBM6aMzdyYv6b61b61b61b61D2OYT7IjfWrfWrfWrfWrfWrfWrfWrfWrfWrfWrfWrfWrfWrfWrfWrfWrfWqqscggQD761b61b61b61b61b61b61b61b61b61b61b61b61b61b61b61b53p8Nlb9zGtaxrW/Yo/PWHtFcqSheVG/mpebF4ZebF/lguXb9+j89Ye0VypKF5Ub+al5sXhl5sX+WC5dv36Pz1h7RXKkoXlRuHJcWHOZq8LV4WrwtXhavC1eFq8LV4WrwtXhavC1eFq8LV4WrwtXhavC1eFq8LV4WrwtXhavC1eFq8LV4WrwtXhavC1eFq8LV4WrwtXhavC1eFq8LV4WrwtXhavC1eFq8LV4WrwtXhavC1eFq8LV4WrwtXhRNllm8/gl5sX+WC5dv36Pz1h7RXKkoXlRuCTPcx+Q24YKPj+Zl5sX+WC5dv36Pz1h7RXKkoXlRuCX/VIhuXH/mpebF/lguXb9+j89Ye0VypKF5Ubgl/1SIblx+Es4UFnj36LK31q31q31q31q31q31q31q31q31q31q31q31q31q31q31q31q31q31q31q31q31q31q31q31q31q31q31q31q31q31q31q31q31q31q31q31q31q31q31q31qbfB9+MNc17cO9mXmxeKe6BhkzFvrVvrVvrVvrVvrVvrVvrVvrVvrVvrVvrVvrVvrVvrVvrVvrVvrVvrVvrVvrVvrVvrVvrVvrVvrVvrVvrVvrVvrVvrVvrVvrVvrVvrVvrVvrVvrVvrVvrVvrVvrEJahGOzHwhcu379H56w9orlSULyo3BL/qkQ3Lj8D34jY99SLqfU/wCJexkrcsAxmvsZq/2ZebF4biWXuFDEDHCibF/E2de02HOawvXAwT8AXLt+/R+esPaK5UlC8qNwS/6pENy4/BZdOPVV00D35LCKEx0GZ4cNY9xgjY8S+fB4Y3RTwz4zlhI8kjoxrCGZjFIWLFl2Jy8QyBtimhnb4oyIJsubqxe9mJSIIO5f/ffM/pd03tS82Lwm9bpPoSS8DSCtaSO+LM2qG7pHNKGfE6Zk8D3ujySO2XEOLCLBBkVlaMD8mNxY0WWM82PzPKjkjlb4voKHlSMcAXLt+/R+esPaK5UlC8qNwS/6pENy4/BZdOPVX00D3y5BIr+N+Y45BWqzkhhJEjgayQIGOeN2CrZgctQ6UGN8UeKIyV8oEV0e6KHDmVDCon+O+ia4KYusXkRbGdIdnybImSoZ5deO33jet0ntS82Lwm9bpPobvMLX1mZswy73KbgcSuDbhzcw9oVJFFAfSKB9bHD5EMEMtjeZH/uh7N5s5YXy2kZ3mkxAR17x3hwfQ0XLFcIXLt+/R+esPaK5UlC8qNwS/wCqRDcuPwWXTj1V9NA9/ux8P/q7sfHuTBWMJJn+kN63Se1LzYvCb1uk+i7vh3Y4e7H0dFyxXCFy7fv0fnrD2iuVJQvKjcEv+qRDcuPwWXTj0BbeUEIzelvS3pb0t6W9LelvS3pb9H5nlb0t6W9LelvS3pb0t6W9LelvS3pb0t+j8zyt6W9LelvS3pb0t6W9LelvS3pb0t6W9LelvS3pb0smau6qPal5sXhtptPa08u9LelvS3pb0t6W9LelvSdeNY1zm3jXtw7elvS3pb0t6W9LelvS3pb0t6W9LelHfRzMw/elvS3pb0t6W9LelvS3pb0t6W9LelvS3pb0t6W9Kgz3ikZ4AuXb9+j89Ye0VypKF5Ubgl/1SIblx/jLPFBjvPeTMAbmr6aB8HzQxdyc9jW+Nz2M7k5zWYy5hA8mfDiRmWePGcOxjK/cSw5uc5x7n7i4cubjOMfHBEDo/Nc9jW+JNex+M5jkZKxr+E3rdJ7UvNi8Dy2YdmOfz96ps/BpED3eHxN8Xhw9mXOa+eCLPdiaF2G5y9mHNarLpx6r3NZWAu93s70cPha5rsd/wdLGx0bcPZl2W4ezLsty9jfDjMkeJGR8VFyxXCPNHD4h/NiXmxLzYl5sS82JebEvNiXmxLzYl5sS82JebEvNiXmxLzYl5sS82JebEvNiXmxLzYl5sS82JebEvNiXmxLzYl5sS82JebEvNiXmxLzYl5sS82JebEvNiXmxLzYl5sS82JebEvNiXmxLzYl5sS82JebEvNiXmxLzYl5sS82JebEvNiXmxLzYl5sS82JebEvNiXmxLzYv54fnrD2iuVJQvKjcGcd+O6J04zcQ6mVFmGx5biDGWf5LCWfIByq+mgfCw025iouLLKm4cC7Xnyy3nSTUG2DzkBJq4KwPGMYxjC/cSiac4+2W4FE7UrAwwd+W60smUBuDSsBmKGyJ8q0bqrPzAWZs5xxSUCfLIXp+D9xJxzhp7FsxJsQ4SbYmTBgvdIe6bRla3x06jKKZuUINjO8rMERJ7qmU0wCDZ8LEUZVlDE/vjGMEdDCFa1uKrHl6+HhN63Se0RG93lyap61E+VggkiXMTHSxNw0hz3XVL8YYxpqzMdgQUKe9VsI8QzHG+XvKsHshgqpKjGJ3Tlqy6ceiv/5hqZMcOQI0Sc6WCYgGxIebFBCfY7eKfZnFDyyrJZREojdfY4HyYVZvwVPCATksOCfgrpJ4ezcMuC3zmxMGsidWMyMszDDiR918cL4ZzBK+QmyMKhmc3WlkurMNa6S37nRNrprRSCwCB1hEAsBxNq6J731lKTxUXLFcLmtdju0w60w60w60w60w60w60w60w60w60w60w60w60w60w60w60w60w60w60w60w60w60w60w60w60w60w60w60w60w60w60w60w60w60w60w60w60w60w60w60w60w60w60w60w60w60w60w60w60w60w60w60w60w60w60w60w60w60w60w60w60w60w60wybG0UmNv8AOD89Ye0VypKF5Ub2MiYbnLj55WgGsq+mgfDI2MlxkniYPElGIDxNMPPkac4ewhWKuLbmAx4c1jML9xJ9ZJ55MzK+ON4GZqxz5yJIAMQPEdLVtlbOm1b/AP2Z0WPHXudXRvaW0YWaKR8nB+4kbXRmvHcSC6YhhMNZiKMdhITppcTtr8N0SnrI58nqKulaQydgTGV+iiHmmq9NNX+Y6GTFWNpZBoAPKm8+tglhhkdwm9bpPdkijmb4fKJgU83m3VN8QxsBjsh02NbkqQScMcpuBcYMyUSLglwudHjBuClZdOPUI2DKUWCGvcyaKXFdHophIa2VhA8+2N21gE9W+SQp0IOIXiOdWtcHMNOA98sssUflRsZwdnujCISrhFgJhiqZGOEUYbGQkQwV8kUsTnVrXATBzVrnkTywVzYMhZfBK2yhJyIxxE00dS1jocTVvjllkmCz6aPxUXLFfYs3MB/zo/PWHtFcqSheVG9my6ceqvpoHtfuL3v3F9Gb1uk983rdJ7Vl049VvTgPe7O9HD+jouWK+xZuYD/nR+esPaK5UlC8qN7Nl049VfTQODeRf7s4JjyTpxzISnTY+P7i+DyI454IPb/cXDJOyKSCP4ZzjGM5xZQ6WEiA2CeOV8FoIRI2MYlpHn44jet0nvm9bpOAsuMONr4LCAh2WbkLomGNz4mtz8LLpx6CkZDUiSCkaqLEvudnejh8I87CY/M+EhLWEDj5tRcSeEk+AV7Y3WMHlDTcdFyxX2LNzAf86Pz1h7RXKkoXlRvZsunHqr6aBwCxnkgTDmilvPyNWSwyiR4+P7iTB4Sj7dR+M13Z5OfIKPZw4jaGfBFDFmKrrjCPOIKsUC6VwY2eL9xIoh1aScpx2N0IEWZZwa2N40Uhuiljjfs8fjYFvUIeJBrDEUEGGUEs7XRMHFjkbM2DtDEdJHLsuBu7FtacZn9bum983rdJwXPi8oJNHLkJ1Vb5sEdYZ8bLpx6miZL2cjREMDIgBR/61lgyoc+fUEe1XwPI7NxNhKacRrBfFETWTRRujHtDBRhYnhzeV5dVOZY4aSSU2PxHvpVE1rbiRttnzA8zQvbi4NWfC6mun4/+cdDypGfsSbmA/wCdH56w9orlSULyo3svY2Rj2VBGl76z4xRRwt8Pkx+d5zYImSyy/H9xLaYJSS5vIh8UL9PB/mUAIg3iWlH8lkE4ARTsPxjDcYxxfuJSjwz5iySEKX4UwMWNsbCAxS8YxgUdvkYcKO7M+YK0EZ2HNgiZD5EdfDo4hYBRxmZZCCGO90gounyS/hkkZEzLwXZsbKU/3rmGXwDGCFwGwtl+EkMc3g+GBR2j6ZjGxsaz4WXTj0DGyWqDjnCFKYxja8NjfBiCLEzpva7O9HDUQ0EDXtjq6+GTEjIo48OxDXhDy5lyIPmB8E1eERJiVgo8fkqQXxFwE7aBmXziBBisYwQE2eOCHisrGMKPw1YmQgYIfsSbmA/50fnrD2iuVJQvKje0WAKc3DdjbhbK5bK5bK5bK5bK5bK5bK5bK5bBjzPN2Vy2Vy2Vy2Vy2Vy2Vy2Vy2Vy2Vy2Vy2Vy2Vy2Vy2DHmebsrlsrlsrlsrlsrlsrlsrlsrlsrlsrlsrlsrlsrlsrlsrlsrlsrk2hD8WHYxhuMN9+ekClkzLsjlsrlsrlsrlsrlsrlsrlsrk6j8bXNbR+BrW7K5bK5bK5bK5bK5bK5bK5bK5bK5bK5bK5bK5bK5R0GIWYZsrlsrlsrlsrlsrlsrlsrlsrlsrlsrlsrlsrlsrlsrlsrlsrlsnehKsIJ2X/Ys3MB/zo/PWHtFcqSheVG/5rNzAf8AOj89Ye0VypKF5Ub/AJrNzAf86Pz1h7RXKkoXlRv+azcwH/Oj89Ye0VypKF5Ub/ms3MB/zo/PWHtFcqSheVG/5rNzAf8AOj89Ye0VypKF5Ub7/KOKnKcFs87v67K5bK5bK5bK5bK5bK5bK5bK5bK5bK5bK5bK5bK5bK5bK5bK5bK5bK5bK5bK5bK5bK5bK5bK5bK5bK5bK5bK5bK5bK5bK5bK5bK5bK5bK5bK5bK5bK5bK5bK5bK5bK5bK5bK9PmPp3NdjOM4xnim5gP+dH56w9orlSULyo33/wBnv7gMz/xpETZ4JYqGV0tSJnim5gP+dH56w9orlSULyo33/wBnOkDfRvKsJ5CUwmXNhp5bQiMF8xhJslVLJJOb5zBH2ZPlQLBNq6UgeS4/xALFvM4WR0Pn+D6Ps50gbjm5gP8AnR+esPaK5UlC8qN9/wDZzpA30cteT5k+ZQZMzwTtr54hsxYqO8Y2N4ROXxT7X3MHw0XuKJnxVuZCFjb5nQNZ9H2c6QNxzcwH/Oj89Ye0VypKF5Ub7/7OdIG/j+znSBuObmA/50fnrD2iuVJQvKjffnfjvxj4UtZqK6GTZVsq2VbKtlVeBIXrVsq2VbKtlWyrZVsq2VbKtlWyrZVsq2VbKtlWyrZVsq2VF1boBSZhKt04o02yrZVsq2VbKtlWyrZVsq2VbKtlWyrZVsq2VbKtlXZzpA3wznDeGbmA/wCdH56w9orlSULyo3347nYPj2c6QN8G2Nj5ExW4s1OWgkTlNfKqX9WW4Bef5ExwY72smKHGZiQWwYRKcoDRCsux79l049BSshqg5HkQx4iziwCzPp3GiNm8nXhZn8htpAyQphBoomG5cYKyOKSU7xur2lFHxaiSU9+dIx1gQ4U7McjZY45OLs50gb4F/wCpvC8iaWYWSGVs0bX/AM2Pz1h7RXKkoXlRv5cmTMMEj2hR9y0Q60Q60Q60Q60Q60Q60Q60Q60Q60Q60Q60Q60Q60Q60Q60Q60Q60Q60Q60Q60Q60Q60Q60Q60Q60Q60Q60Q60Q60Q60Q60Q60Q60Q60Q60Q60Q60Q60Q60Q60Q60Q60Q60Q60Q60Q60Q60Q60Q60Q60Q60Q60Q60Q60Q60Q60Q60Q60Q60Q60Q60Q60Q60Q60Q60Q60Q6cJDguHGkiWkiXZzpA3wBr8kivwZXMOtcxV5Er2vgVN+rIWUeGCAPMsQhNliNrwsU0vgeTFfZD/wDRYwye/ZdOPQDGyVYbK6OaQqGGWXMuGYFj/wDdbvEmGjgDDZFjLO0CdO6NtWhI+8aqYT/Za1rrSQUnEsPfONNXmRu/tuj69jowAmcXZ8dklUO7SRIoWLEbVoh1oh1oh1ohlI3DZgW5DHzl2dEOmYcOQyP+ZH56w9orlSULyo38uby7vsXMeMysk+HZzpA3FS/q30tl049VvTgPYlgin8HxmgiIj8vj7OdIG+EkeJG4xwTcwH8ZuYD/AJofnrD2iuVJQvKje6XbQDS+RuNstwt1uFutwt1uFutwt1uFutwt1uFutwt1uFutwt1uFutwt1uFutwt1uFutwt1uFutwt1uFutwt1uFutwt1uFutwt1uFutwt1uFutwt1uFutwt1uFutwt1uFut1Oi/uFLgNixLwG8u77I7OdIG4qX9W+lsunHqt6cB9H2c6QNxzcwH8ZuYD4p7mJsroNwt1uFutwt1uFutwt1uFutwt1uFutwt1uFutwt1uFutwt1uFutwt1uFutwt1uFutwt1uFutwt1uFutwt1uFutwt1uFutwt1uFutwt1uFutwt1uFutwt1uFutwt1uFutwt1uFutwt1uVm3+oViMdh3tj89Ye0VypKF5Ub3LInIYJM9UEwMVn8K9mK64HfwG8u77I7OdIG4qjLsMuMimERR2J8Z/iJZBumcTMbLa4ieTiCy82aGN1s1nik96y6cehZcw04srj2dwCdaZZNjGD3OMmGZaeY6PLbCaGSzUxzm4hWbaPTiTTyTTz1cM8zcmmqd8sxQ4L5CXi2w8EvnwQy8XZzpA3HNzAfxm5gPhup5IQstDDhBgZD/EXEeBHj2ftD89Ye0VypKF5Ub3O0XRzE35W+/DagETYhmtAR5PLKsBA+5PPEZAwjcQ8jSEunjZNDDHbAS+SoLFsxxInvW3M0/Cby7vsjs50gbipf1ZSAEOqzxyYJJDa6XFYdnMCeLNmG5bpJvNpnYp5Y8Yg96y6ceq3pwCAr5hyn5dWHO/pDA9pFi4aO0GaOKwWbDLbEgBnhr8C15MUQLTf8J9aQVizdqYXAkDODmkZMGHZECw6cYeHi7OdIG45uYD+M3MB8N78tZ7xNkEI7wYJhdJHHk8VsZEs1yK0Sed1iKyGKXcA/IwRm3Ax4k80VkDJ9yD07yXWoLGYkksoXhGTD2Is72RPtAI5cxTHijyOjyaK0dpA5cBWHZ9ztF0cxN+VvtD89Ye0VypKF5Ub3O0XRzE35W+8/wAWGPUeSZ5KtzZXhayCR7gjpZ5PMxthko8xsFzL5ryrGslaPI3s5DHF4orcz37bmafhN5d32R2c6QNxUv6t9LZdOPVb04D6Ps50gbjm5gP4zcwHw3vy1nvPkcCUe6TL4CQCfKc4OzXcaSDax5lzqAznwyyQzSsi9XIkYMS0SqkkHdKFZSW7vBNVOnxIXuxEkXdmmTvNjDNAghcyzkzpiMBhuq2eKcqf3O0XRzE35W+0Pz1h7RXKkoXlRvc7RdHMTflb/C23M0/Cby7vsjs50gbipf1ZNc1+O/6Oy6ceq3pwHDhzc9/xkljiw3LiR43Zbl7Gt8b5Y424dx9nOkDcc3MB/GbmA+G9+Ws+nkgjlfC/6LtF0cxN+VvtD89Ye0VypKF5Ub3O0XRzE0248OFrrha64WuuFrrhSWVrDG+SOytZo2Sa64WuuFrrha64WuuFrrha64WuuFrrha64WuuFrrhTW1kP5S11wtdcLXXC11wtdcLXXC11wtdcLXXC11wtdcLXXC11wtdcLXXC11wtdcIqc2Yqq4TeXd9kdnOkDcVL+rIKcmMaphYWU2OyjDsZ3TzQsMtPKrn5sZxIbNCWMrjIYPesunHoXztnGTLCQnamyWZUJKbMZIca0aW0JbAVjJrHXMhR0uYg3tsTJha50rZMn1UM40sZB5OfIOsQo8Qt8q/CDlzMILLxdnOkDcc3MB/GbmA+HtBlzYa/OuuFrrha64WuuFrrha64WuuFrrha64WuuFDbWRHmrXXC11wtdcLXXC11wtdcLXXC11wtdcLXXC11wtdcKSytYY3yR2VrNGyTXXC11wtdcLXXC11wtdcLXXC11wtdcLXXC11wtdcLXXC11wtdcLXXCuSrKStJa35W+0Pz1h7RXKkoXlRvc7RdHMTflapZWQxvkHsQS3eFpEL2yOhmjIjbJZdOPVb04DhjljmxnPHdfpPDJIyJj5MZxnGM/DBMWZpYYDwiX5ZIcHDK2HUR6jA/DbczT8JvLu+yOznSBuKl/VlDWNh0Kmq2T65R1smJ/PwBjEVfG6uikzYKAOaObzPesunHqt6cAha6MUgmfZXYZiGIfEUxUjKt0bo2tCw1p2Nqc3Ir4atsLBmFwSuIAInrnyunU1ex/kZlBfCCVDFG2GOOPi7OdIG45uYD+M3MB8Gr8z+lsyVra7Pwfa18U2YckwYfAzBEOZ8wEmih4bmOzBlikllIhhzG34Uv6txyTRw+DisunHqt6cBwZzjGM5jkZKxknw8+PUaeKxBml8mc4QZzWOJibLBFw9oujmJvyt9ofnrD2iuVJQvKje52i6OYm/K1XHSzllpRswOcumzq8Nw3DW4sunHqWWSHs5HJjJA1iLHqp9g86VxchFyoZCmZqiIGE4FsyJzZp54YvOsHwgNjZ5cbWcF1+ko+SQeQKfJMrorEkYgpjj4sSFsBCkKHnHBs8R6kaarRBZEb8kxYIns7BoGI5W22ZvNZZ16GZDJXW+W5z5fZubhtuZp+E3l3fZHZzpA3FS/q30tl049VvTgPo+znSBuObmA/iRDmVrV5hq8R+U7VeZlY1ndhXHn+Gt+MMszZ7aOeEsN/Z6Gl8rTPVnmVp1Rm1eTmoKyB4nWM7vhXy+QPeyiwGf8AlIyTNtNnLYvNbOx2ZZS5QxpsmjQDQZnnAlLiJiIayolmLLnlOyO+SSCF/wAbLpx6y+WCoqyHEvdJaTgTEsPZDDKZFVRFtGJg8/I2oFEppjySWuLmz55Vi5gnhcdcPNw+KeuwEyOSe5zD4topZOHtF0cxN+VvtD89Ye0VypKF5Ub3O0XRzE35WoiBhMMkKjEhiZOwYdgsLIbLpx6HHjLpxIHjxyTwTvpw3+ZjRxeIx2ih8AbNlDzmREAwkZa5lcNGwZnDdfpKngjJhkhdXjODYHFVwRZldkKBwsYrKoVjCWuGjc4ZzqQN3jxGPHFMRMwLulPxDWDwyMklqw5pHSPFdIaNLw23M0/Cby7vsjs50gbipf1b4SmsjKiFjsWzajPDJOyKSCOeZo8Mszc+JuHezZdOPVdnGK0HMcjJWMkWc4xjOZTIYxHFzHxDsiW5iaJxgxuCXObDbRTuZieyHgkdHPYQQRQS5sm4FmIx/X+vF2c6QNxzcwHx6Ty/62z5XNrsfCKBkLp3SCxSkDTzCYw4kiILGGgZJHjKhdDOLEQ6B/wpv67tiKpEhljklqBJvPU9YPPL5stcNJHCxtYG0bTQAwQeYsUwmHQuIqxiHPc1uGtw342XTj0CxstUGxlcKwLIUFZAPM2doUGBMCQ1g0L3yaGDyBYZaYSZ06YNHHNmZojmnETR1IkTo8z1gpEjpJgvMkAbw9oujmJvyt9ofnrD2iuVJQvKje52i6OYm/K3hsunHqt6cB7t1+k/RW3M0/Cby7vsjs50gbipv1Zf127ccACyW5SxDHDRkvfFGaXY4Kc+SUAep87yyG2zmeTDHFMSKPeRSDQDWNOp42T1dgWwdpNj4ZMkztOmPjmlIZIThxba3NZJHKFC7hsunHqGNk1IOzHfFXU0Ucf+KziB7zoTpMRRMpK9TsmfeZa3OrAnjgeRCe4SPD68cF5vmTxzxxRwlCU2YZJHstRqvvzXA8fZzpA3HNzAfsXvy1nt0v6t7tl049VvTgPoe0XRzE35W+0Pz1h7RXKkoXlRvc7RdHMTflaiZtMPNNAWbK+NbnC0aWeFz3xMdZdOPVb04BYex3iXmR+HD8yMbnDXPYzHfnOMY78ZxnGMvNjaQLD4m+Lw8F1+krxN8WG+Nne7DZI3Ny7D2O71MVHENOQyVsmMLzI/H4PNjxnOMG98p2IbB7poY5LVrHTLW41Q0XDcNw6apb4CoFEVFLnwfA3/AEd32P2c6QNxUv6stvC8/wA/yo8Sul0g+YcwEABlOw6YMUiNseQI8Rxx7dE+N8cIIg+JMRVoEL2yS1gEz3SNgiY/zJa4GeXzSAAyntfMAGQ2NscbImNZw2XTj1W9OAWK8LELoW1wTIvJ8mLzvOkrRciTjSBwExxs0w/k+QOGKJ3pleDHN509eES/xyiDTxYhlr4shyCNa1jWt4uznSBuObmA/YvflrOAsjAo008dhJ5kLNzhxAVOPI+WFknxps4xi3ziSN2e6ItkjyGuc1mO/Lmt7lhzXd6w5uc5bxWXTj1XObivrseNvi8DZI5O9Nkjd3LzWeCRwxLCYYJMyRtdhrpI296wX3mSwMs3eKBTWXglljzYN8Ve7h7RdHMTflb7Q/PWHtFcqSheVG9ztD0cxM+RqtOmnoIYiPEL4oJ4/MsYpWTRsksunHqTzPw5GhsU2pZjVQbMFBY4FjLPmmyE6wmUuh8NOn+HTXa9N3eoWceOCbhuv0lWjfLaOY90e3mmjeBk9m10EEVRXOm2vTW600A09I4mSB2HkDDwy29rIBK2CO2f5kL7QGaMuAQSyH8DomdnYuG378kVDfLKU/jI/wAY458cWG+UWmjf5MSfY/ZzpA3FS/q30tl049VvTgPo+znSBuObmA/YvfkreC46WcmBETPGkYKTl5ZsE8RMMc3xC5TtAoNBpKlZEHnxfuw+GSWpdlrHisY+LTWBLBMR5zVcdl049Pic6kAl82OUa2sq7y2WsOIx44qCOSLZ8SzJg8MINFPYvGk3N7IIibXLhHYabcokiCckAmAocAi1YyN0VRTx8PaLo5ab8uPaH56w9orlSULyo3uEwNJgmhrbDA+MAf2SNz8MNa1NYyNvhsunHqt6cAmxxsy7PlR571mKJzsPfGyTHdlrXN8OMYbjGGwws/rmOPL8P4Lr9JWcYdjOPAzw+BsMLMd2MYxjDcQxNZlnhb/asjwZc52Gtxl2WDMjImnbHGzvzljcuw7IzMlNJ4Jyhhm5dA6W0OwdppJk1rWYw37K7OdIG4qX9WQdsPPHCpzRBstbIWND5azZ1+PKRBgovcmPZI3DyCRxWeNhQ74PPjs4Zy4ITbcaCOVOPDZL5OvC8/yJjwh5MRkHCC5bjGcOxh3DZdOPQs7BqgSWCyFmEaVg8PMPnzGDweZh1qx9Y8ucshj4xZTio6904rj3Zcgi7MxsMxJB7XyqawmdBXvklsowSJYpGzRRycXZzpA3HNzAfsWQeuDmgAtY5seT/wDfg5rXYzhYa1vemsYzHd8auPzYruMUWMaKFngZ/csxxuZ4MsbnuXhb4vFiOPD8v4rLpx6renALDGNb4WQQxrDWtxhrYomeJeXH3NbmCFzvF4W4z36Zmq1OI42uy7LGu8KkGZLPBNwSSxRYy6ebeyIhvaH56w9orlSULyo3ukCjlN8OeztRnPf+HKhfhyoX4cqF+HKhfhyoX4cqF+HKhfhyoX4cqF+HKhfhyoX4cqF+HKhfhyoX4cqF+HKhfhyoX4cqF+HKhfhyoX4cqF+HKhfhyoX4cqF+HKhfhyoX4cqF+HKhfhyoX4cqF+HKhfhyoX4cqF+HKhQ0dVDnv+zeznSBuKl/VliPu7Pd+ZYxDj8jDyMl7PtdAxofaJpOZYDGkVXljhsxZkYZIHmGN7gTFiaMu3gfNJFiphDEj9TuHsZJp4grDLYSzHWGWxktlCy9wg+eGy6cegsZzUiY73vAp3wvixHZkVkMg2CxPNbmlDydDA2zxPBG3FbOgWw5Pkf4Q8uFbZPDn8wfPg0Na4TLIYLaWtY6OvCbxdnOkDcc3MB+ySEIX3L8OVC/DlQvw5UL8OVC/DlQvw5UL8OVC/DlQvw5UL8OVC/DlQvw5UL8OVC/DlQvw5UL8OVC/DlQvw5UL8OVC/DlQvw5UL8OVC/DlQvw5UL8OVC/DlQvw5UL8OVC/DlQvw5UL8OVC/DlQvw5UL8OVC/DlQvw5UL8OVC/DlQvw5UJlBUsz3sYyNuGe0Pz1h7RXKkoXlRvv/s50gbipf1bilFFnzjMUEMDfD7tl049VvTgOCSNkrHxsbiNjWcM0EREeY+Ps50gbjm5gP8AnR+esPaK5UlC8qN9/wDZzpA3FS/q30tl049VvTgPo+znSBuObmA/50fnrD2iuVJQvKjff/ZzpA3FS/qyzbsx/lmtPKkLZDZ+bNA19pmOTCOKcxlr9BZdOPQsuYacWVx7O4BOtMsmxjB7nGTDMtPMdHlthNDJZqY5zcQrNtHpxJp5Jp56uHGritIl5x+a/No985xskEhJLq6abi7OdIG45uYD/nR+esPaK5UlC8qN9/8AZzpA3FTfqybTyx4aPpJvNuXMEnwykxNVnSNkaUATLu30Fl049VvTgEBXzDlPy6sOd/SGB7SLFw0doM0cVgs2GW2JADPDX4FryYogWm/4T60iWB7zxZtvsMCZrZRyoC3EkDSDVko//wA4uznSBuObmA/50fnrD2iuVJQvKjff/ZzpA3FS/q30tl049VvTgPo+znSBuObmA/50fnrD2iuVJQvKjff/AGc6QN8Mli4znHibnPdh7HZc1Uv6t7Gc4x3e7ZdOPVb04Dhw5ue/4ySxxYbl0kbXNa5zWYy580UbPHx0OSW1Qzoiopc+Dhm5kP8AnR+esPaK5UlC8qN9/wDZzpA3wExBnUqxJnEOKQEA8IzPhTfqy3ybLNTMUfma0xAWb5ldIwu1eMSW4okubEUhBzGhDusCBIz2yYPYbVYkuZv80zc+JuM+1ZdOPQvnbOMmWEhO1NksyoSU2YyQ41o0toS2ArGTWOuZCjpcxBvbYmTC1zpWyZPqobcWNkJMnhjLLq4mQMzv4IEjpghJOKgklbVDKXxzN7oiy2zeV5xC84hecQvOJUUUuZfP/nB+esPaK5UlC8qN9/0bvIwVXIUbArHtwNjBchIYeA/NYqX9WWKtzM4ZoseOwdgHGG12BKuaUeVpAGZJGyurcZggY2tZ5RTWVknnjTOrH978e3ZdOPVb04BC10YpBM+yuwzEMQ+IpipGVbo3RtaFhrTsbU5uRXw1bYWDMLglcQARLXyPdMpK2PLBlIFJAEWyGJsEMUXDYFsCEmmrcSBV4g+mkmTWtZjDfsEfnrD2iuVJQvKjff51awtzJvB2ij/p39o139o139o139o0MNfiahd/aNd/aNd/aNd/aNd/aNd/aNd/aNd/aNd/aNd/aNd/aNd/aNd/aNd/aNd/aNd/aNd/aNd/aNd/aNd/aNTs7QzwywwM7QwQxQ9/aNd/aNd/aNd/aNd/aNd/aNd/aNd/aNd/aNd/aNd/aNd/aNd/aNd/aNd/aNd/aNfmPKhqXunYR9iD89Ye0VypKF5Ub/uQ/PWHtFcqSheVG/7kPz1h7RXKkoXlRv8AuQ/PWHtFcqSheVG/7kPz1h7RXKkoXlRv+5D89Ye0VypKF5Ub2nOaxuXboaZnK7+0a7+0a7+0a7+0a7+0a7+0a7+0a7+0a7+0a7+0a7+0a7+0a7+0a7+0a7+0a7+0a7+0a7+0a7+0a7+0a7+0a7+0a7+0a7+0a7+0a7+0a7+0a7+0a7+0a7+0a7+0a7+0a7+0a7+0a7+0a7+0a7+0a7+0a7+0a8faJv8AUKzaTK4f7NzbTkvczv7Rrv7Rrv7Rrv7Rrv7Rrv7Rrv7Rrv7Rrv7Rrv7Rrv7Rrv7Rrv7Rrv7Rrv7Rrv7Rrv7Rrv7Rrv7Rrv7Rrv7Rrv7Rrv7Rrv7Rrv7Rrv7Rrv7Rrv7Rrv7Rrv7Rrv7Rrv7Rrv7Rrv7Rrv7Rrv7Rrv7Rrv7Rrv7RrJN7B/cEbAfD5v2MPz1h7RXKkoXlRvau++bQhNa1jWt/iL6PwQRnYzh2MZ+y72R+AsRQQxjQxxfxD26O9gd9jD89Ye0VypKF5Ub2rDq9F7xJEQkEk8B7ZcSqC0ZPJ5W5waOErNhEPgt8J0c0ssO9Qf4sk2sYr34IOjgyxm5j6aMiOygfERJBYxzS4i3KHQ62WyZHLPFNZv8APrce7edJNUH+mH6A+xwJmOHyL6b+7RXa0V2tFdrRXa0V2tFdrRXa0V2tFdrRXa0V2tFdrRXa0V2tFdrRXa0V2tFdrRXa0V2tFdrRXa0V2tFdrRXa0V2tFdrRXa0V2tFdrRXa0V2tFdrRXa0V2tFdrRXa0V2tFdpzb4THjCNiOgxL9De/LWfR200g9cVKQeyCXyn2MOBop92gwJOTCeyWfMH0Vh1ei+xx+esPaK5UlC8qN7Vh1ei94xrnjTNGHsWMMwMIVrq6aICdtj3SBkZ1SnFfKe90khelrIThTp3nt8ksWQciWM+WMImVh1iIWxrSyyxZXin4r5QIIntNPkhEMHGpX+7edJNUH+mH6Csxiewtiv4mHGmvyGfQ3vy1n0dtDIRXFRSMKFNIneIfCIK3bysjWjZYZHWIcv0Vh1ei+xx+esPaK5UlC8qN7Vh1ei+kirgYZfN+lvOkmqD/AEw/QUvzW/u5siMue7UlNsbNu6NdAHI21biItzSi3+cyvPdLEDAyw8mONMsfDg1YsSsTCsJtJxZM5nOmbNJDIe/DBcbi9grpYzpfMkh3DOlr55LKdutzkst1iK33Jevi/RXvy1n8VYdXovscfnrD2iuVJQvKje1cajcaVfmJfmJfmJfmJfmJEl3wmnX5iX5iX5iX5iX5iX5iX5iX5iX5iX5iX5iX5iX5iX5iX5iX5iX5iU8vaCCGWaCXtBPDFN+Yl+Yl+Yl+Yl+Yl+Yl+Yl+Yl+Yl+Yl+Yl+Yl+Yl+Yl+Yl+Ylab1t5Sg/0w/QUvzW/u4Fsh/HDANJGadPs79KFiOrkcKSyNlnJmVCVkwGkeyvnbp0UHh7rSRs8xRVVgmmMlaayYc2EmciQUz/yTvENJGUQxUpHn4rz/ACQYGiyYjs2sCKhdVv8Acl6+L9F2g8fk16/MS/MS/MS/MS/MSMLvgRpCPzEvzEvzEvzEvzEvzEvzEvzEvzEvzEvzEvzEvzEvzEvzEvzEvzEiS74TTr8xL8xL8xL8xL8xL8xL8xL8xL8xL8xL8xL8xL8xL8xL8xL8xL8xKTcd3pvscfnrD2iuVJQvKje1YdXovgWbGH5SisR5WzZfYDxjwTq6/SfZzOzBDB/YsunHqt6cBwjzsJj8z4SEtYQOPm1FxJ4ST4BXtjdYweUNNw3nSTVB/ph+gpfmt/pWxxsznP0kvXxfor35az4FFRhxeaOfAQ/y9yF0TTWO8bWu7RdHM9l8zGSwxexdfpPDPOwdrXfHFjB5M84x0RLnsbbBPkayMlshBEHDYdXovscfnrD2iuVJQvKje1YdXovhbZkxPVJ4xOdaWB5gz6whXX6SrbLM4FginIgEtYWDwByyZCgH8quL8jzA7mceVz7SJzO+eARYCa6e0Hx3GEUikmnGFs4oWTwEvbTjtYENNw2XTj15DyKIZsJTTiNYL4oiayaKN0Y9oYKMLE8ObyvLqpzLHDSSSmx+I99KomtbcSNts+YHmaF7cXBqz4XU10/H/wA4bzpJqg/0w/QADnTTWudDcLQ3C0NwtDcLQ3CgbcTGHDaG4WhuFobhaG4WhuFobhaG4WhuFobhaG4WhuFobhaG4WhuFobhaG4WhuFO24hMBG0NwtDcLQ3C0NwtDcLQ3C0NwtDcLQ3C0NwtDcLQ3C0NwtDcLQ3C0NwtDcKGImG7Hx9De/LWfC58WmiUY5cxkRNfiaGGsMXaLo5itnsxBGyKUkOK8jgGEHngeLHDNBAbpsEzXKFmfITUPkf5rDlgGN9hOK3OSoezqkkkCjuYhWTwmiKmHbgeMjhuv0lGS4AOjKczuDCix52K6ygnHjaQGGVFCwLyf7ADyGDeOEuslrIMZwSRVvHiqQMtaSyxJZK+N/ZsZju7e4+Kw6vRfY4/PWHtFcqSheVG9qw6vRfB8McjonObh7XNcKO8fT4/pjuuv0lECjlswyIESBsjBwRBMvcyuBjm8/TQYjmjlBEmxFhog7cMx5EWHzPfXBSNjawUaKHyIAAxvGo42RMZHw2XTj1W9OAUQ0EDXtjq6+GTEjIo48OxDXhDy5lyIPmB8E1eERJiVgo8fkqQXxFwE7aBmXziBBisYwQE2eOCHhvOkmqD/TD9BS/Nb/DNjP5xDG2MUma9Qm4JIljQPWLxZkjw7DHPYzHfnOMY7/MZ4cOw9ufEvMZ4Wu8yPv7sSMdl2BS4yY43Oe1iy5rVjOHYxnhO6xRrDmu7150Pgw/xt/tXmx+DxzE4ilFY1zXY72yRv71meHDcubYSZEGmhsWOYVmGz8ckLRSszuKj4Zevi/RXvy1nwkijmxjCaNA2DTxsbExrO0XRzEQPAVHmKAEQbxqAAIaTMm3A+fqMQRNzNl4IkkUUWAhcYy3yo8SulzXhOijihFGHjzFBXhDSZkjjZCzDOG6/SVOPCTH5ZAo5bMMZXhxRujnGgKZ4GhCMibDmCJ0nmxVdfC9r44o4cZxABFFDMOOGKJ3rAIbZvPjF8BRBPDYdXovscfnrD2iuVJQvKje1YdXouK6/SforLpx6renAfQ3nSTVB/ph+gpfmt/gPGZITaIwHwPpQ6p/kYdXIHrF4rF478WMs+Q82Myl0PhqERivzXktcPFBZ+DVwOq6mGYeF8V/MyCEY+nUe37VJkzqM6gHZKyjja1rGtbwndYo0fI8AkjJkQsDwAx2MnArIp4wI7DEbowpsUrJPIDzfsB8tlmzA40TOzsj8lDRCC4xHmQa+gIKHPdUxjd27WmeGXr4v0V78tZxdoujmfRXX6T9FYdXovscfnrD2iuVJQvKje1YdXouK6/SUYbgSQRQFjEsy8c8Mp7mRWMWkwTg0R0GJ4TBSHPZg8J0/kSnhQSYj9my6ceq9zW1gLt2glLEgyeE2byCDRBctxkjHnwNbZAOURgs8b5YDxCvMQM7ihB5/YvOkmqD/AEw/QUvzW/ww1uO9Za3OW58DfFhyB6xeLMEDnZc+OOTHdlrXN8PlR+DDPC3xeLyo/wCq8tnc/Hgb3tziGHGcOfHHJju8Lf7c8R3WKNZa13cnxRSdy8uPHcnsZJjw+Bv9q8DO92WQQx9yw1uG+GAWIcdo7WtZjGMMa3LsjjMG87il6+L9Fe/LWcXaLo5iPL0bIHjmClYzmKwCnlzDBYMzEXKw4SSB5EZgs0r4cnhYn8ic4QZzWzFDDsxIPZRTat2ZY2yMiweE6byOG6/SUQWMJjGRLBhEZcsBYpWHZjPCmlzCw2LDPFm0r2tY8g0QVrXSm4xoc+zYdXovscfnrD2iuVJQvKje1YdXouK6/SVcdzZat/medNZFiv8ANsqp+ZXQBgpsfjCsmzx53QXIcwrYQA58PhfZxDMzEMPH7Fl049Pjkl7PQMzPAXa1L8xyaeQKSSIMw5/9MlVuWQN2/s8ifHFLdvEdiSyhfUYzisCx7F50k1Qf6YfoKX5rfiB6xefRHdYo/opevi/RXvy1nF2i6OYrvHeOMmStKOcRFLmWWpy57oRic473Qdoczs8B1Ih5YIIGBleMYywyzGAc1UuMZlGuX5nwXZCOhY7MQYfDdfpKKkaLZsJbFLIAbmFri5y5BCA3aAdkfi0WIoGaq/TpnRR1LQm5wPV49mw6vRfY4/PWHtFcqSheVG9qw6vRcV1+k/RWXTj1W9OA+hvOkmqD/TD9BS/Nb8QPWLxRW7WSnMIsBx/KUthh8dbK+3DZPmKaxghlkidYCtHinishJYZphz4CJMxeyd1ijRFiONJ5Ydk3NdATHYCyRzSQ2YxEmYo7OFkIa3oHOGuKtBhH+XkrLjAWezL18X6K9+Ws4u0XRzPorr9J+isOr0X2OPz1h7RXKkoXlRvasOr0XFdfpP0Vl049VvTgPobzpJqg/wBMP0FL81vxA9YvExxQzrNksRozK+EcUnEAuD4jyIzooo34szZIBioB6uUjBdkCSgonvNbL7J3WKNOzOEaZJGAW0CrzgGUgaxzEUQRJloI0zHUyyNNttzGdrHFTNBHnY6m9qXr4v0V78tZxdoujmfRXX6T9FYdXovscfnrD2iuVJQvKje1YdXouK6/SUTJhhADd4x5WZmllZtZR8Wzc+W9lhmQmaFtrh2YXOtP/AETRRGFusioILN042SW2cj9TGPYy6EWYUzUPli4bLpx6GnjFpxZsnEPsq2F9s1njkIsMxSvi1TXkhZbd4zGPJFYZe0tQWLpZXQVcj5a8R/sXnSTVB/ph+gpfmt+IHrF59Ed1ij+il6+L9Fe/LWcXaLo5iOlxFgVPtvDq3ZNKzaRwPtms8cmvzkuQXNuzGPNmtPARNBrC91041m4iN0sVlI+TMIVnLkDBAx3nTOH4br9JRJuYZWQBWX/nPnisMOkkigsnTSQpli2GNi3d3+bEpzsMHc47U4qpfZsOr0X2OPz1h7RXKkoXlRvasOr0XFdfpKKgklJr36KfaChsjztP82Gplj8iEcZzc2Sgqpo8jRGAmTESu8gllhLLozMU0QwVfM0x8u3FSghxVor4XzycNl049MGyXRixeVYkHAT7PLH/AIJITRSCZdOU4gKVoJGA6eIkQt7rPIgE7DI5q6F44IsPsXnSTVB/ph+gpfmt+IHrF59Ed1ij+il6+L9Fe/LWcXaLo5iPgknwIsBz6W5jaMTCSBNs8sf+AceSM4+VtPLHho9iEWRNJnTlRHwTxBlsp3jCAEMOEn2wh4Olrw3xTyTcN1+komEqMzBeKoqUQpo9a5+SUNurcjwxgkN0yjGlaRbPkAM8FdgavJiiBb7Nh1ei+xx+esPaK5UlC8qN7Vh1ei4rr9J+isunHqt6cB9DedJNUH+mH6Cl+a34gesXifYFZyS+SwneRBDm18A0r47STxzxRWJWdvfPcPZklzjppZI4wjZYhZ3Qyl7zlsNrPq4YBTiYBrGceye4qMfhO6xRqUstxE0IBJLKcV89mSRWESTnzwvjHAMwbC5/uS9fF+ivflrOLtF0cz6K6/SforDq9F9jj89Ye0VypKF5Ub2rDq9FxXX6T7GXNxnGM5w3Gc+xZdOPVb04BZc3GW49+86SaoP9MP0FbnyLG2F4QesXieAY3UxyQzRWgsearMg0rIgCe4lZAfkeqilqp8PnUoZDJ2zx1UzRssbXmSFTEQVRcbgVmre6M+AUIiMjzOE7rFGpRC2EzTbPOwUCPFVM4Y+OcAiV8RIQ7xoPB7kTtRfzv+hvflrOLtF0cz4+JuM4b8c5w3Gc+1dfpPww5ru/6Cw6vRfY4/PWHtFcqSheVG9qw6vRcV1+ko0iWJwsMxpg0VjE0iwgeE+a4m/9EmoNJLmidbyYEDyy3lZCepcHMsKnBc55VaaSWURDp2ZmJOzSTkWsvnGYGl88eCXgsunHphORKMWZ7TWWtRiSzKiJaonzDm3c0FtPmUT3bzpJqg/0w/QWFdq8xTam9h/puFutwt1uFutwt1BJbwmHE7hbrcLdbhbrcLdbhbrcLdbhbrcLdbhbrcLdbhbrcLdbhbrcLdbhbrcLdbhbqeS3mMBJ3C3W4W63C3W4W63C3W4W63C3W4W63C3W4W63C3W4W63C3W4W63C3W4W6dm+M/sCChAh8r6G9+Ws4u0XRzFdYmzEMjyS4HxxzWjMZpD5TiRhIZW2c/lWLWEGxkAouc4uuOJLKni07Mzkn7JOTay+cXgWbUDQTcV1+koiYqQzAgkxEIdq/WkziW8LjJgxq6KsNkKyTH7lh1ei+xx+esPaK5UlC8qN7V33xYCNY5sjWv4Lr9JRYuCmxosB7AbJ0Fa5jx3PrX+KRRjYYTNPtjfIjjxX+OAmJtZJqRp5qfzGTwvrX+d5uKvwDBxS1z3Pmc1vga1vBZdOPQ0EZVOJCysfqRyNldhmIcg41U80NdLE+H3b+TxDNCxjuxjH2XexvcF5sE8ZMMc3B2i6OYjBcGQeW+ulzN50FWyHAGG1TWw+Tt8joS2PEw9wTpqjMjJ4ZK1/nYlbU4jFEgmrpHPlcxvga1vFdfpKJCzNKyfZmYHfFHW9zin7a7yR2ijvHa/3XuwZejN+xh+esPaK5UlC8qN7Tmte1zcVhwXiXf2jXf2jXf2jXf2jRI1+Xp139o139o139o139o139o139o139o139o139o139o139o139o139o139o139o139o139o1OztDPDLDAztDBDFD39o139o139o139o139o139o139o139o139o139o139o139o139o139o139o14e0Un9Aqtgsjp/s3aiBZHv/MmF39o139o139o0YNfnDSD9/aNd/aNd/aNd/aNd/aNd/aNd/aNd/aNd/aNd/aNd/aNd/aNd/aNd/aNd/aNd/aNd/aNEjX5enXf2jXf2jXf2jXf2jXf2jXf2jXf2jXf2jXf2jXf2jXf2jXf2jXf2jXf2jXf2jXf2jWRr0n+0MKAGLy/sYfnrD2iuVJQvKjf9yH56w9orlSULyo3/AHIfnrD2iuVJQvKjf9yH56w9orlSULyo3/ch+esPaK5UlC8qN/3IfnrD2iuVJQvKjf8Ach+esPaK5UlC8qN/3IfnrD2iuVJQvKjf9yH56w9orlSULyo3/ch+esPamZmSGVkbLKNjGepr1Nepr1Nepr1Nepr1Nepr1Nepr1Nepr1Nepr1Nepr1Nepr1Nepr1Nepr1Nepr1Nepr1Nepr1Nepr1Nepr1Nepr1Nepr1Nepr1Nepr1Nepr1Nepr1Nepr1Nepr1Nepr1Nepr1Nepr1Nepr1Nepr1Nepr1Nepr1Nepr1Nepr1Nepr1Nepr1Nepr1Nepr1Nepr1Nepr1Nepr1Nepr1Nepr1Nepr1Nepr1Nepr1Nepr1Nepr1Nepr1Nepr1Nepr1Nepr1Nepr1Nepr1Nepr1Nepr1Nepr1Nepr1Nepr1Nepr1Nepr1Nepr1Nepr1Nepr1Nepr1Nepr1Nepr1Nepr1Nepr1Nepr1Nepr1Nepr1Nepr1Nepr1Nepr1Nepr1Nepr1Nepr1Nepr1Nepr1Nepr1Nepr1Nepr1Nepr1Nepr1Nepr1Nepr1Nepr1Nepr1Nepr1Nepr1Nepr1Nepr1Nepr1Nepr1Nepr1Nepr1Nepr1Nepr1Nepr1Nepr1Nepr1Nepr1Nepr1Nepr1Nepr1Nepr1Nepr1Nepr1Nepr1Nepr1Nepr1Nepr1Nepr1Nepr1Nepr1Nepr1Nepr1Nepr1Nepr1NepoWGdkpEv/AOPb/8QAAv/aAAwDAQACAAMAAAAQ88888888888888888888888888888888888888888888888888888888888888888888888888888888888888888888888888888888888888888888888888888888888888888888888888888888888888888888888888888888888888888888888888888888888888888888888888888888888888888888888888888888888888884wwwwwww18888888888888888888888888888888888888888888888888888888888888888888888888888888888888888888888888888888888888888888888oDAAECHDU8888888888888888888888888888888888888888888888888888888888888888888888888888888888888888888888888888888888888888888888o8bourPZc8888888888888888888888888888888888888888888888888888888888888888888888888888888888888888888888888888888888888888888888oCgAjxgSU888888888888888888888888888888888888888888888888888888888888888888888888888888888888888888888888888888888888888888888898888888t88888888888888888888888888888888888888888888888888888888888888888888888888888888888888888888888888888888888888888888889MMMMMMMMMMMMMMMMMMMMMMMMMMMMMMMMMMMMMMMMMMMMMMMMMMMMMMMMMMMMMMMMMMMMMMMMMMMMMMMMMMMMMMMMMMMMMMMMMMMMMMMMMMMMMMMMMMMMMMMMb888888888888888888888888888888888888888888888888888888888888888888888888888888888888888888888888888888888888888888888888888888o8888888888888888888888888888888888888888888888888888888888888888888++++++++++++++++++++++++++++++++++++++++++++++++++++++++688o888888888888888888888888888888888888888888888888888888888888888888+888888888888888888888888888888888888888888888888888888888e8o888888888888888888888888888888888888888888888888888888888888888888+888888888888888888888888888888888888888888888888888888888+8o888888888888888888888888888888888888888888888888888888888888888888+888U88888888848888888888M88888888888888888888888888888888+8o888888888884wwwwwwwwwwwwwwwwwwww8888888888888888888888888888888888+888888888888sYYkc8888888888888888888888888888888888888888+8o8888888888sMMMMMMMMMMMMMMMMMMMMMc888888888888888888888888888888888+888888888888888888888888488888888888888888888888888888888+8o8888888888888888888s0EM0888888888882++++++++++++++++++++++++++++3/AP8A/v7TxyyyjzzzzzzhCjRTjTzzzzzzzzzzzzzzzzzzzzzzzzzzzzzzzzzzz7yjzzzzzzzzzygAAQAAAAAAAAQAAAAAAAABTz7zzzzzzzzzzzzzzzzzzzzzzzzzzzzz7zzzzzzzzzzzzzzzzzzzzzzzzzzzzzzzzzzzzzzzzzzzzzzzzzzzzzzzzzzz7yjzzzzzzzzzzzyTwxSTzzzzyyBAhxhDTzzx/wBX/f8Avvvvvvvvvvvvvvvvvvvvvvvvq/8A77LzzzzyjzBDzzzzwBRxCDTTzzzzzzzzzzzzzzzzzzzzzzzzzzzzzzzzzzz7yjzzzzzzzzzzzzzzzzzzzzzzzzzzjTTzzzzyvzz7zzzzzzzzzzzzzzzzzzzzzzzzzz7zz7zzzzzzzzzzzzzzzzzzjzzzzzzzzzzzzzzzzzzzzzzzzzzzzzzzzzzzzz7yjzzzzzzzzzzzzzygjCyBjzyzSxRQxDzzzzyvzz7zzzzzzzzzzzzzzzzzzzzzzzzzz7zz7zzzzzjxBzzzzzxyyxDhxzzzzzzzzzzzzTzzzzzzzzzzzzzzzzzzzzjzz7yjzzzzzzzzzzzzzzzzzzzzzzzzzTjjjzzzzyvzz7zzzzzzzzzzzzzzzzzzzzzzzzzz7zz7zzzzzzjTzzzzzzzzjzDzzzzzzzzzzzzzzzzzzzzjRzjjDDDzzzzzzzzz7yjzzzzzzzzzzzzzxxDDzzzzyySyQwiDzzzzyvzz7zzzzzzzzzzzzzzzzzzzzzzzzzz7zz7zzzzywyAjjjTzxyQgwxBzzzzzzzzzzzzzzzzzzyyzyxwwxzzzzzzzzzz7yjzzzzzzzzzzzzzzTDDzzzzzzDzDDTDzzzzyvzz7zzzzzzzzzzzzzzzzzzzzzzzzzz7zz7zzzzzjTzTzzzzzzTjzDzTzzzzzzzzzzzzzzTzzTzjzzzzjzTDTTzzzLzbyjzzzzzzzzzzzzzzzxxzzzzzyywxhxzzzzzyvzz7zzzzzzzzzzzzzzzzzzzzzzzzzz7zz7zzzzyzyzzzzzzywyxxzzzzzzzzzzzzzzyzgxzzwzxzzzwzyzyRzzyi87zyjzzzzzzzzzzzzzjjzzzzzzzjjTDTzDzzzzyvzz7zzzzzzzzzzzzzzzzzzzzzzzzzz7zz7zzzzzDjDTzzzzzDTTTjzzzzzzzzzzzzzzzzzzjTjzzzzzjTTzDTzzzzzzyjzzzzzzzzzzzzzwwDzzzzzzwwyzwzzzzzzyvzz7zzzzzzzzzzzzzzzzzzzzzzzzzz7zz7zzzzzwzzzzzzzwxzwwxxzzzzzzzzzzzzDzxzygyyzzzzyzzxwyzzyDzzzyjzzzzzzzzzzzzzzTDDTzzzzjzjSTRTzzzzyvzz7zzzzzzzzzzzzzzzzzzzzzzzzzz7zz7zzzzzzDTzzzzzzTjjSzTTzzzzzzzzzzzzzzzzzzzzzzzzzzzzzzzzzzzzyjzzzzzzzzzzzzzxyzzzzzzzxzxwyyzzzzzyvzz7zzzzzzzzzzzzzzzzzzzzzzzzzz7zz7zzzzyzxzzzzzzzzzwyzzzzzzzzzzzzzzzzzzzzzzzzzzzzzzzzzzzzzzzyjzzzzzzzzzzzzzzjjDzzzzzjjhiCCjzzzzyvzz7zzzzzzzzzzzzzzzzzzzzzzzzzz7zz7zzzzzgzzzzzzzyzjTzzzzzzzzzzzzzzzzzzzzzzzzzzzzzzzzzzzzzzzzyjzzzzzzzzzzzzzzxzzzzzzzxzxzywzzzzzyvzz7zzzzzzzzzzzzzzzzzzzzzzzzzz7zz7zzzzyyxzzzzzzwxzzzzzzzzzzzzzzzzzzzzzzzzzzzzzzzzzzzzzzzzzzyjzzzzzzzzzzjgTwCgwhjzzzwjgARgTzzxNfPzz7zzzzzzzzzzzzzzzzzzzzzzzzzz7zz7zzzzyiyjzzzzzzhCjQTxzzzzzzzzzzzzzzzzzzzzzzzzzzzzzzzzzzzzzyjzzzzzzzzzzyABAACAAAAABAAABACAAByzz7zz7zzzzzzzzzzzzzzzzzzzzzzzzzz7zz7zjTzzzzzzzzzzzzzzzzzzzzzzzzzzzzzzzzzzzzzzzzzzzzzzzzzzzzzzyjzzzzzzzzzzzzzzzzzzzzzzzzzzzzzzzzzz7zz7zzzzzzzzzzzzzzzzzzzzzzzzzz7zypc1ShTxxSSjzzzwBRxBCzTzzDzzzzzzzzzzzzzzzzzzzzzzzzzzzzzzzzzyjzzzzzzzzzzzzzzzzzzzzzzzzzzzzzzzzzz7zz7zzzzzzzzzzzzzzzzzzzzzzzzzz7zzzyyzzzzzzzzzzzzzzzzzzzzwzzzzzzzzzzzzzzzzzzzzzzzzzzzzzzzzzzyjzzzzzzzzb7777777777777777777777777fzz7zzzzzzzzzzzzzzzzzzzzzzzzzz7zzzzzzzzzzzzzzzzzzzzzzzzzzzzzzzzzzzzzzzzzzzzzzzzzzzzzzzzzzzzyjzzzzzzzjTzzzzzzzzzzzzzzzzzzzzzzzzzzzz7zzzzzzzzzzzzzzzzzzzzzzzzzz7zzzzzzzzzzzzzzzzzzzzzzzzzzzzzzzzzzzzzzzzzzzzzzzzzzzzzzzzzzzzyjzzzzzzyhTyBzzzzzzzzzzzzzzzzzzzzzTzzzz7zzTzzzzzzzzzzzzzzzzzzzzDzz7zzzzzzzzzzzzzzzzzzzzzzzzzzzzzzzzzzzzzzzzzzzzzzzzzzzzzzzzzzzzyjzzzzzzyhTxDzzzzzzyxSjiAAjzzzzzzzzzzzz7yzzzzzzzzxwxhShTzzzzzzyzzz7zzzzzzzzzzzzzzzzzzzzzzzzzzzzzzzzzzzzzzzzzzzzzzzzzzzzzzzzzzzzyjzzzzzzyhTwTzzzzjzwwxxwgzzzzzzzzzTzzzz7zjzzzzzzzwzxwxRzzzzzzzzjzz7zzzzzzzzzzzzzzzzzzzzzzzzzzzzzzzzzzzzzzzzzzzzzzzzzzzzzzzzzzzzyjzzzzzzyhveqhyzTzjTjTTzzzTTDTTzzzzzzzzfcvxjRSjDjzTjzzTjjSwzTzzzzwIIIIIIIIIIIIIIIIIIIIIIIIIIIIIIILTzzzzzzzzzzzzzzzzzzzzzzzzzzzzyjzzzzzzzzyyCyzyzzyxyzzzzwwwxxxzzzzzzzzyy7zwyyiSwyxzzzzzwzyxzzzzzzzzzzzzzzzzzzzzzzzzzzzzzzzzzzzzzz7zzzzzzzzzzzzzzzzzzzzzzzzzzzzyjzzzzzzzzzwDzwDzyTTDTzzzTBSxgjzzzTzzzzzzjziByhDzzzzzzTiDADTTzzjzzzzzzzzzzzzzzzzzzzzzzzzzzzzzzzzzz7zzzzzzzzzzzzzzzzzzzzzzzzzzzzyjzzzzzzzzzzzyyzzjzyzzzzhwzwwyzzyxzzzzzzyxzwxyiSzzzzzzRyzzwzzziTzzzzzzzzzzzzzzzzzzzzzzzzzzzzzzzzzz7zzzzzzzzzzzzzzzzzzzzzzzzzzzzyjzzzzzzzzzzzzzzzzzzzzzzzzzzzzzzzzzzzzzzzzzzzzzzzzzzzzzzzzzzzzzzzzzzzzzzzzzzzzzzzzzzzzzzzzzzzzzzzz7zzzzzzzzzzzzzzzzzzzzzzzzzzzzyjzzzzzzzzzzzzzzzzzzzzzzzzzzzzzzzzzzzzzzzzzzzzzzzzzzzzzzzzzzzzzzzzzzzzzzzzzzzzzzzzzzzzzzzzzzzzzzzz7zzzzzzzzzzzzzzzzzzzzzzzzzzzzyjzzzzzzzzzzzzzzzzzzzzzzzzzzzzzzzzzzzzzzzzzzzzzzzzzzzzzzzzzzzzzzzzzzzzzTzzzzzzzzzzzzzzzzzzzzzzzzzz7zzzzzzzzzzzzzzzzzzzzzzzzzzzzyjzzzzzzzzzzzzzzzzzzzzzzzzzzzzzzzzzzzzzzzzzzzzzzzzzzzzzzzzzzzzzzzzzzzzzzzzzzzzzzjjzzDTzzzzzzzxzzzz7zzzzzzzzzzzzzzzzzzzzzzzzzzzzyjzzzzzzzzzzzzzzzzzzzzzzzzzzzzzzzzzzzzzzzzzzzzzzzzzzzzzzzzzzzzzzzzzzzzzzzzzzzzzzywwxzzzzzzzzzzzzzz7zzzzzzzzzzzzzzzzzzzzzzzzzzzzyjzzzzzzzzzzzzzzzzzzzzzzzzzzzzzzzzzzzzzzzzzzzzzzzzzzzzzzzzzzzzzzzzzzzzzzjTjDTzzzzzzyhzjDTTDzzzzzzzfzzzzzzzzzzzzzzzzzzzzzzzzzzzzyjzzzzzzzzzzzzzzzzzzzzzzzzzzzzzzzzw/wC++++++++++++++++++++++++++++++++/+8ccc8s8888888oU8cMMMc88sr++vf8APPPPPPPPPPPPPPPPPPPPPPPPPPPKPPPPPPPPPPPOPPPPPPPPPPPPPPPPPPDPPPvPPPPPPPPPPPPPPPPPPPPPPPPPPPPPPPPPPPPPNPMPPPPPPPKEPONNOPPPPPPPPvvPJPPPPPPPPPPPPPPPPPPPPOPPPPKPPPPPPPPPPPPFPPPPPPCMJIPPPPPPPPPPPvPPPPPPPPPPPPPPPPPPPPPPPPPPPPPPPPPPPPPPDDLPPPPPPKFHLDPHHPPPPPPPvvPPPPPPPPNACNCPJNPPPPPPKPPPPKPPPPPPPPPPPPHPONPPPPPPPPPPPPPPPPPPvPPPPPPPPPPPPPPPPPPPPPPPPPPPPPPPPPPPPPPNNNPPPPPPKGOMMPMPPPPPPPPvvPNPPPPPPPPPPPMPPPPPPPPIPPPPKPPPPPPPPPPPPAFAHMJNPPPMNHMODPPPPPPvPPPPPPPPPPPPPPPPPPPPPPPPPPPPPPPPPPPPPPLPHPPPPPPKFPDLLLPPPPPPPPvssVPGLNOOOPNPPBPOFNKFPPKPPPPKPPPPPPPPPPPPFLCJLHDPPPHHHLLLPPPPPPvPPPPPPPPPPPPPPPPPPPPPPPPPPPPPPPPPPPPPMLMPILMPPPKCMCLKIHPPPPPPPvPLPLDDPPHLPDHPEHPPPDPPPKPPPPKPPPPPPPPPPPOECAAGAIPPPBEKCEJPPLAc1vPPPPPPPPPPPPPPPPPPPPPPPPPPPPPPPPPPPPPPDPDDLDPPPKFLPHPDPPPPPPPPvPPNPEGPKBNHPPPAMBLFIHPPKPPPPKPPPPPPPPPPPLEHDHPPPHPPDHPHDLPPGPPPPPPPPPPPPPPPPPPPPPPPPPPPPPPPPPPPPPPPPPKEINOBCEPPKHGIFFANPPPPPPPvPPONHLPLDDDPPPHHDDPHHPKNPPPPKPPPPPPPPPPPPPPPPPPPPPPPPPPPPPPPPPPPPPPPPPPPPPPPPPPPPPPPPPPPPPPPPPPPPPPPPPPPHPPPPPPKFPDPPLPPPPPPPPvPPPPPPPPPPPPPPPPPPPPPPPPPPPPKPPPPPPPPPPPPPPPPPPPPPPPPPPPPPPPPPPPPPPPPPPPPPPPPPPPPPPPPPPPPPPPPPPPPPPPPJAEPPPPPPPKBNKEICLPPPPPPPvPPPPPPPPPPPPPPPPPPPPPPPPPPPPKPPPPPPPPPPPPPPPPPPPPPPPPPPPPPPPPPPPPPPPPPPPPPPPPPPPPPPPPPPPPPPPPPPPPPPNNPPPPPPPPPPKFPPPOMPPPONPPNvPPPPPPPPPPPPPPPPPPPPPPPPPPPPKPPPPPPPPPPPPPPPPPPPPPPPPPPPPPPPPPPPPPPPPPPPPPPPPPPPPPPPPPPPPPPPPPPPPPNBFCLIAKFPPPPKJLACPPFPPIPfrnPPPPPPPPPPPPPPPPPPPPPPPPPPPPPKPPPPPPPPPPPPPPPPPPPPPPPPPPPPPPPPPPPPPPPPPPPPPPPPPPPPPPPPPPPPPPPPPPPPPLPPPPPPPPPPPPPPPPPPPPPPPPPPPPPPPPPPPPPPPPPPPPPPPPPPPPPPPPKPPPPPPPPPPPPPPPPPPPPPPPPPPPPPPPPPPPPPPPPPPPPPPPPPPPPPPPPPPPPPPPPPPPPPPPPPPPPPPPPPPPPPPPPPPPPPPPPPPPPPPPPPPPPPPPPPPPPPPPPPPPPPPKPPPPPPPPPPPPPPPPPPPPPPPPPPPPPPPPPPPPPPPPPPPPPPPPPPPPPPPPPPPPPPPPPPPPPPPPPPPPPPPPPPPPPPPPPPPPPPPPPPPPPPPPPPPPPPPPPPPPPPPPPPPPPPKPPPPPPPPPPPFPPPPPPPPPPPPPPPPPPPLPPPPPPPPPPPPPPPPPPPPPPPPPPPPPPPPPPPPPPGPPPPPPPPPPPPPPPPPPPPHPPPPPPPPPPPPPPPPPPPPPPPPPPPPPPPPPPKPPPPPPPPPPPPPPPPPKAHFLDKGPPPPPPPPPPPPPPPDPPPPPPPPPPPPPPPPPPPPFPPPPPPPPPPPPPPPPPPIMPPPPPPPPPPPPPPPPPPPPPPPPPPPPPPPPPPPPPPPPPPPPKPPPPPPPPPPOPPPPPPPPPLPPPPPPPPPPOPPPPPPPPPPPPPPPOJOPGPOCPPPPPPPPPPPPPPPNPPPPPPPPPPPPPPPPPPPPNPPPPPPPPPPPPPPPPPPPPPPPPPPPPPPPPPPKPPPPPPPPPPPLEHMMNOHOPPKFOIMANNPPPPPPPPPPPPPNPPPPPPPPNPPPPPPPPNPPPPPPPPPJAPMNMIMPPPOPKOOEFPPPPPPPPPPPPPPPPPPPPPPPPPPPPPPPPPPPPPKPPPPPPPPPPPLPHHDHHDLPPKFHLPPDPPPPPPPPPPPPHFOBOOMOHPPLGKANAFPPPPPPPPPPPPHDPLLHDPPPPLLDPHPPPPPPPPPPPPPPPPPPPPPPPPPPPPPPPPPPPPPPPKPPPPPPPPPPPPPPMEFFPPPPKGDIMPPPPPPPPPPPPPPPPPHPPLDPPPPDDHHPHPPPPPPPPPPPPPPOOHIEDHPPPBHCPPPPPPPPPPPPPPPPPPPPPPPPPPPPPPPPPPPPPPPPKPPPPPPPPPPPPPPPPPPPPPPKFPPPPPPPPPPPPPPPPPPPKEDNHPPPPPKHENPPPPPPPPPPPPPPPPPPPPPPPPPPPPPPPPPPPPPPPPPPPPPPPPPPPPPPPPPPPPPPPPPPPPPKPPPPPPPPPPPPPPPNKCBNPPKANNFHPPPPPPPPPPPPPPPPPPPPPPPPPPPPPPPPPPPPPPPPPPPPPPMLHFIHPPPBIEPPPPPPPPPPPPPPPPPPPPPPPPPPPPPPPPPPPPPPPPKPPPPPPPPPPPPPPPPPPOPPPKFPPPPPPPPPPPPPPPPPPPKGNJEBFPPPLKPPPPPPNPPPPPPPPPPPPPPPNPPPPPPPPPPPPPPPPPPPPPPPPPPPPPPPPPPPPPPPPPPPPPPPPKPPPPPPPPPPPPPPEINHCMHPKGHHPPPPPONPPPPPPPLPPHPPPPPPPPHPPPPPPPLHPPPPPPPPNPPNMCOLEPPPLAAPPPPPPPPPPPPPPPPPPPPPPPPPPPPPPPPPPPPPPPPPKPPPPPPPPPPPHPPPPPPPPPPPPPPPPPPPDPPPPPPPPPPPPPPPPPPPPPPPPPPPPPPPPPPPPPPHHPPPPPPPPPPPPPPPPPPPHPPPPPPPPPPPPPPPPPPPPPPPPPPPPPPPPPPKPPPPPPPPPPPPPPPPPPPPPPPPPPPPPPPPPPPPPPPPPPPPPPPPPPPPPPPPPPPPPPPPPPPPPPPPPPPPPPPPPPPPPPPPPPPPPPPPPPPPPPPPPPPPPPPPPPPPPPPPPPPPPPKPPPPPPPPPPPPPPPPPPPPPPPPPPPPPPPPPPPPPPPPPPPPPPPPPPPPPPPPPPPPPPPPPPPPPPPPPPPPPPPPPPPPPPPPPPPPPPPPPPPPPPPPPPPPPPPPPPPPPPPPPPPPPPKPPPPPPPPPPPPPPPPPPPPPPPPPPPPPPPPPPPPPPPPPPPPPPPPPPPPPPPPPPPPPPPPPPPPPPPPPPPPPPPPPPPPPPPPPPPPPPPPPPPPPPPPPPPPPPPPPPPPPPPPPPPPPPKPPPPPPPPPPPPPPPPPPPPPPPPPPPPPPPPPPPPPPPPPPPPPPPPPPPPPPPPPPPPPPPPPPPPPPPPPPPPPPPPPPPPPPPPPPPPPPPPPPPPPPPPPPPPPPPPPPPPPPPPPPPPPPKPPPPPHTDDDDDDDDDDDDDDDDDDDDDDDDDDDDDDDDDDDDDDDDDDDDDDDDDDDDDDDDDDDDDDDDDDDDDDDDDDDDDDDDDDDDDDDDDDDDDDDDDDDDDDDDDDDDDDDDDDDDDDDDvPPPPPPPPPPPPPPPPPPPPPPPPPPPPPPPPPPPPPPPPPPPPPPPPPPPPPPPPPPPPPPPPPPPPPPPPPPPPPPPPPPPPPPPPPPPPPPPPPPPPPPPPPPPPPPPPPPPPPPPPPPPPPPPPPPPPPPPPPPPPPPPPPPPPPPPPPPPPPPPPPPPPPPPPPPPPPPPPPPPPPPPPPPPPPPPPPPPPPPPPPPPPPPPPPPPPPPPPPPPPPPPPPPPPPPPPPPPPPPPPPPPPPPPPPPPPPPPPP/8QASREAAAIECQkGAwYDBwUAAAAAAAQBAgMVBREhUVNkk6LRIDRARXSBhLPCEBIxQVBgExZxFFRlkqPSBiLiMjVhYoCDsiQzQlKR/9oACAECAQE/AP8AQBAUBPr7V/1Xwfg9z/w78ffj/wAUTD5F/FP0f6h8i/in6P8AUPkX8U/R/qHyL+Kfo/1D5F/FP0f6h8i/in6P9Q+RfxT9H+oG/wCDPspUyYeXe+EyXad34UUfdRHF/a97/wAC60/2eofGZfGSw76PiIU7/d/yxxR9rVqzYMmjVot3VFFUrLLTIQEJjQhKAu2ZM12Ki68SzVZKqiJ0oRGGLdkYZoaMl0LKJSlEaJ1UxJELf3VCeytv+Cfe/wDAutP9nqBlh9oh1DNJloyR9hQmJmt3Flol0+YQbaLFVCy5gw0afa2rFmlj3UNGqrKdZMSEf4pCDB37K0Y/aGrNdSE2LFVZK6F11VV+7Ilbz8QdQ1LKQ2USYatWSYP+Mr8VbvJVSnvKpl3BQ+a+zQqZXSszMFmKfhlvJRWKNC6fJaMLFvs5+Ak/bmrbvrtEp+Iv3o0/CT/MrMC6GheBmh5kdaoaMWzVKrPvfyf91P8AIlXz7whb+6oT2Vt/wT73/gXWn+z1AzBxI2uho3LqrroV7qFpUJQhEyUBeDSLRgyLrFlfhM5VFUSd36JQGcGkWSiFFCyqqvxVWsSP/dTwWDUmWbLNVmjJCyWjL4S6Z1JgsVLrtVWqzJCV1VEs0J/yp8kzoDGCoPLtFGjIqqquqmNVaWSRKJJkShWCINVaKtEFFO+qt3kfXxjTOkQt/dUJ7K2/4J97wTDZqB/tH2dmyW+L3e98RCU/2Y5konHztCv3cr+Vf9w+doV+7lfyr/uHztCv3cr+Vf8AcPnaFfu5X8q/7h87Qr93K/lX/cPnaFfu5X8q/wC4fO0K/dyv5V/3Ax/F8JGS7dguwLIVas1lFolVo4lkRT+92BhqWg1ZdkshVZJmJKYkJk7v+Iep+nuq4B6n6e6rgHqfp7quAep+nuq4B6n6e6rgHqfp7quAep+nuq4B6n6e6rgHqfp7quAep+nuq4B6n6e6rgHqfp7quAep+nuq4B6n6e6rgHqfp7quAep+nuq4B6n6e6rgHqfp7quAep+nuq4B6n6e6rgHqfp7quAep+nuq4B6n6e6rgHqfp7quAep+nuq4B6n6e6rgHqfp7quAep+nuq4B6n6e6rgHqfp7quAep+nuq4B6n6e6rgHqfp7quAep+nuq4B6n6e6rgHqfp7quAep+nuq4B6n6e6rgHqfp7quAep+nuq4B6n6e6rgHqfp7quAep+nuq4B6n6e6rgHqfp7quAep+nuq4B6n6e6rgHqfp7quAep+nuq4B6n6e6rgHqfp7quAep+nuq4B6n6e6rgHqfp7quAep+nuq4B6n6e6rgHqfp7quAep+nuq4B6n6e6rgHqfp7quAep+nuq4B6n6e6rgHqfp7quAep+nuq4B6n6e6rgHqfp7quAep+nuq4B6n6e6rgHqfp7quAep+nuq4B6n6e6rgHqfp7quAep+nuq4B6n6e6rgHqfp7quAep+nuq4B6n6e6rgHqfp7quAep+nuq4B6n6e6rgHqfp7quAep+nuq4B6n6e6rgHqfp7quAep+nuq4B6n6e6rgHqfp7quAep+nuq4B6n6e6rgHqfp7quAep+nuq4B6n6e6rgHqfp7quAep+nuq4B6n6e6rgHqfp7quAep+nuq4B6n6e6rgHqfp7quAep+nuq4B6n6e6rgHqfp7quAep+nuq4B6n6e6rgHqfp7quAep+nuq4B6n6e6rgHqfp7quAep+nuq4B6n6e6rgHqfp7quAep+nuq4B6n6e6rgHqfp7quAep+nuq4B6n6e6rgHqfp7quAep+nuq4B6n6e6rgHqfp7quAZGzBopCirZdCyFS6qyP5USJ+KojK1VxXR75JZtC2yq85nlaq4ro9e3jeN43jeN43jeN43jeN43jeN43jeN43jeN43jeN43jeN43jeN43jeN43jeN43jeN43jeN43jeN43jeN43jeN43jeN43jeN/aSzaFtlV5zPK1VxXR675etJ7CWbQtsqvOZ5WquK6PXfL1pPYSzaFtlV5zPK1VxXR675etJ7CWbQtsqvOZ5WquK6PXfL1pPYSzaFtlV5zPK1VxXR675etJ7CWbQtsqvOZ5WquK6NOkEgkEgkEgkEgkEgkEgkEgkEgkEgkEgkEgkEgkEgkEgkEk4knEgknEgk9XT2Es2hbZVeczytVcV0abPpyfFPriewlm0LbKrzmeVqriujTJIggSTCSYSCQSCQSCQSCQSCQSCQSCQSCQSCQSCQSCQSCQSCQIi7JBJ60nsJZtC2yq85nlaq4ro01Hn9O2bS0+Ke3y9ZT2Es2hbZVeczytVcV0aajz+nbNpafFPb5esp7CWbQtsqvOZ5WquK6NNR5/Ttm0tPint8vWU9hLNoW2VXnM8rVXFdGmo8/p2zaWnxT2+XrKewlm0LbKrzmeVqriujTUef07ZtLT4p7fL1eLsT2Es2hbZVeczytVcV0aajz+nbNpafFPb5erxiNPaSzaFtlV5zPK1VxXRpqPP6ds2lp8U9vl62SzaFtlV5zPK1VxXRpqPP6ds2lp8U9vl62SzaFtlV5zPK1VxXRpqPP6ds2lp8U9vl62SzaFtlV5zPK1VxXRpqPP6ds2lp8U9vl62SzaFtlV5zPK1VxXRpqPP6ds2lp8U9vl62SzaFtlV5zPK1VxXRpqPP6ds2lp8U9vl62SzaFtlV5zPK1VxXRpaAlCJwjtm0tPint8vWyWbQtsqvOZ5WquK6NNR2zaWnxT2+XrZLNoW2VXnM8rVXFdGmo7ZtLT4pyJPWiWbQtsqvOZ5WquK6NNR2zaWnxT68SzaFtlV5zPK1VxXR2xCIRCIRCIRCIRCIRCIRCIRCIRCIRCIRCIRCIRCLIm0tPin14lm0LbKrzmeVqriuj0CbS0+KfXiWbQtsqvOZ5WquK6PQJtLT4p9eJZtC2yq85nlaq4ro9Am0tPin14lm0LbKrzmeVqriuj0CbS0+KfXiWbQtsqvOZ5WquK6O2IRabFpUgkEgkEgkEgkEgkEgkEgkEgkEgkEgkEgkEgkEgkEgkEgkEgk08lm0LbKrzmeVqriuj23NpxLNoW2VXnM8rVXFdHtubTiWbQtsqvOZ5WquK6Pbc2nEs2hbZVeczytVcV0e25tOJZtC2yq85nlaq4ro9tzacSzaFtlV5zPK1VxXR7bm04lm0LbKrzmeVqriuj23NpxLNoW2VXnM8rVXFdHtubTiWbQtsqvOZ5WquK6PbafLTiWbQtsqvOZ5WquK6NM8hGmcRpnEaZxGmcRpnEaZxGmcRpnEaZxGmcRpnEaZxGmcRpnEaZxGmcRpnEaZxGmcRpnEaZxGmcRpnEaZxGmcRpnEaZxGmcRpnEaZxGmcRpnEaZxGI0z6TGmcRpnEaZxNpxLNoW2VXnM8rVXFdGmeXr8wRppLNoW2VXnM8rVXFdGmeXr8wRppLNoW2VXnM8rVXFdGmeXr8wRppLNoW2VXnM8rVXFdGmeXr8wQIhFFpZLNoW2VXnM8rVXFdGmeXr82nEs2hbZVeczytVcV0aV4jf7Am04lm0LbKrzmeVqriuj23NpxLNoW2VXnM8rVXFdHtubTiWbQtsqvOZ5WquK6Pbc2nEs2hbZVeczytVcV0e25tOJZtC2yq85nlaq4ro9sRjcN2nks2hbZVeczytVcV0e+SWbQtsqvOZ5WquK6PfJLNoW2VXnM8rVXFdHvklm0LbKrzmeVqriuj3ySzaFtlV5zPK1VxXR75JZtC2yq85nlaq4ro98ks2hbZVeczytVcV0e+SWbQtsqvOZ5WquK6PfJLNoW2VXnM8rVXFdHvklm0LbKrzmeVqriuj3ySzaFtlV5zPK1VxXR75JZtC2yq85nlaq4ro98ks2hbZVeczytVcV0e+SWbQtsqvOZ5WquK6PfJLNoW2VXnM8rVXFdHvklm0LbKrzmeVqriuj3ySzaFtlV5zPK1VxXR75JZtC2yq85nlaq4ro98ks2hbZVeczymB1dgyWZfCZNFEr96JdXvSxRB4VIrZh4VIrZh4VIrZh4VIrZh4VIrZh4VIrZh4VIrZh4VIrZh4VIrZh4VIrZh4VIrZh4VIrZh4VIrZh4VIrZh4VIrZh4VIrZh4VIrZh4VIrZh4VIrZh4VIrZh4VIrZh4VIrZh4VIrZh4VIrZh4VIrZh4VIrZh4VIrZh4VIrZh4VIrZh4VIrZh4VIrZh4VIrZh4VIrZh4VIrZh4VIrZh4VIrZh4VIrZh4VIrZh4VIrZh4VIrZh4VIrZh4VIrZh4VIrZh4VIrZh4VIrZh4VIrZh4VIrZh4VIrZh4VIrZh4VIrZh4VIrZh4VIrZh4VIrZh4VIrZh4VIrZh4VIrZh4VIrZh4VIrZh4VIrZh4VIrZh4VIrZh4VIrZh4VIrZh4VIrZh4VIrZh4VIrZh4VIrZh4VIrZh4VIrZh4VIrZh4VIrZh4VIrZh4VIrZh4VIrZh4VIrZh4VIrZh4VIrZh4VIrZh4VIrZh4VIrZh4VIrZh4VIrZh4VIrZh4VIrZh4VIrZh4VIrZh4VIrZh4VIrZh4VIrZh4VIrZh4VIrZh4VIrZh4VIrZh4VIrZh4VIrZh4VIrZh4VIrZh4VIrZh4VIrZh4VIrZh4VIrZh4VIrZh4VIrZh4VIrZh4VIrZh4VIrZh4VIrZh4VIrZh4VIrZh4VIrZh4VIrZh4VIrZh4VIrZh4VIrZh4VIrZh4VIrZh4VIrZh4VIrZh4VIrZh4VIrZheEF1mTZkqXYM0NVUKrJUUiTEhZC0X/ANR/oC//xAAsEQAABAUEAgICAgMBAAAAAAAAAQISMUJRYoEgYHHBESETQFChAzIQIoBB/9oACAEDAQE/AP8AgBa2ePXnyPns/Y+ez9j57P2Pns/Y+ez9j57P2Pns/YL+byZE2J13v/PJkePXn/JF5/x4iDIyCP7p5Le/88mQR+EQmHj358FAj9jwnyR+JTMF7YfgiN3gNLygv/DOI8+Ur/1IgftbTSXsiCP7p5Le/wDPJkEpRQMOV5M/IcqoIzIeTgDWo4mHqqEf3TyW91oJfjyPgRUx8CKmPgRUx8CKmPgRUx8CKmPgRUwX8KSMj8nvcyI1e6BiaBiaBiaBiaBiaBiaBiaBiaBiaBiaBiaBiaBiaBiaBiaBiaBiaBiaBiaBiaBiaBiaBiaBiaBiaBiaBiaBiaBiaBiaBiaBiaBiaBiaBiaBiaBiaBiaBiaBiaBiaBiaBiaBiaBiaBiaBiaBiaBiaBiaBiaBiaBiaBiaBiaBiaBiaBiaBiaBiaBiaBiaBiaBiaBiaBiaBiaBiaBiaBiaBiaBiaBiaBiaBiaBiaBiaBiaBiaBiaBiaBiaBiaBiaBiaBiaBiaBiaBiaBiaBiaBiaBiaBiaBiaBiaBiaBiaBiaBiaBiaBiaBiaBiaBiaBiaBiaBiaBiaBiaBiaBiaBiaBiaBiaBiaBiaBiaBiaBiaAyIjT4r1qnxvlUUc9ap8b5VFHPWqfG+VRRz1qnxvlUUc9ap8b5VFHPWqfG+VRRz1qnxvlUUc9ap8fm/Y9j2PY9/mlRRz1qnxvlUUc9ap8fc9gx7Hv7fv8APqijnrVPj7p7cVFHPWqfH3T24qKOetU+PuntxUUc9ap8fdPbioo561T4+6e3FRRz1qnx909seNCoo561T4+6e3FRRz1qnx909uKijnrVPj7p7cVFHPWqfH3T24qKOetU+PuntxUUc9ap8fdPbioo561T4+5jbqoo561T43yqKOetU+Pz/v8ANKijnrVPjfKoo561T43yqKOetU+N8qijnrVPjfKoo561T43yqKOetU+N8qijnrVPjR5+752wqKOetU+N8qijnrVPjfKoo561T43yqKOetU+N8qijnrVPjfKoo561T43yqKOetU+N8qijnrVPjfKoo561T43yqKOetU+Pz3j7Xj8CqKOetU+N8qijnrVPjfKoo561T43yqKOetU+NveftqijnrVPjfKoo561T4+3jbyoo561T43yqKOetU+N8qijnrVPjfKoo561T43yqKOetU+N8qijnrVPjfKoo561T43yqKOetU+N8qijnrVPjfKoo561T43yqKOetU+N8qijnrVPjfKoo561T43yqKOetU+N8qijnrVPjfKoo561T43yqKOetU+N8qijnrVPjfKoo561T43yqKOetU+N8qijnrVPjfKoo561T43yqKOetU+N8qijnrUafJ+fJhtxhtxhtxhtxhtxhtxhtxhtxhtxhtxhtxhtxhtxhtxhtxhtxhtxhtxhtxhtxhtxhtxhtxhtxhtxhtxhtxhtxhtxhtxhtxhtxhtxhtxhtxhtxhtxhtxhtxhtxhtxhtxhtxhtxhtxhtxhtxhtxhtxhtxhtxhtxhtxhtxhtxhtxhtxhtxhtxhtxhtxhtxhtxhtxhtxhtxhtxhtxhtxhtxhtxhtxhtxhtxhtxhtxhtxhtxhtxhtxhtxhtxhtxhtxhtxhtxhtxhtxhtxhtxhtxhtxhtxhtxhtxhtxhtxhtxhtxhtxhtxhtxhtxhtxhtxhtxhtxhtxhtxhtxhtxhtxhtxhtxhtxhtxhtxhtxhtxhtxhvsvZ/8AAX//xABYEAABAwECBwoHDQcEAgEDAwUBAAIDEQQSExQVITFhkyAiMEFRY5KisbIFJDJkcZHBECNAQlJgYnJzgaTR4SUzUGV0oaM0cILDU4NDRfDxNUSgVFWA0vL/2gAIAQEACD8C/wD4g31uz/f363Z/vcDQuR+KSN00gE8u4LhSQZkXA4VtR7v1uz/e7Wpg+R7nEm78WqhdWJ/9lO8ucT5DfarNebcO+YU80LX6dQUQka+mZx40eK8nm7Cwm85QNutPLn+9ESOIzF4QdUAHOpybrYxRrdJqArNea9gqWH3Prdn+92tO43V9ad8aSoUkJlfIK6aBCFsbeK6uc/JfW7F9ORRjBvjNWt5U4Z7pH3pw3wKdpDT7FxCPP94CPkNjNfc+t2f73AVLVLDHIKki8NCfxaANAUkLJWt8m9xIsbddmoOJXRRzq1QFSEGipJNPSmmjgaoNDH8oWAiwny6Z0/4lc/LVBrbrWXKHQUyNkbDpDeP3Prdn+/v1uz/e3A9YLA9YLA9YLA9YLA9YLA9YLA9YLA9YLA9YLA9YLA9YLA9YLA9YLA9YLA9YLA9YJ8VGivGOT/8AzpBoRG7sRtlpq5gPl8qxy09NY5aemsctPTWOWnprHLT01jlp6axy09NY5aemsctPTWOWnprHLT01jlp6axy09NY5aemsctPTWOWnprHLT01jlp6axy09NY5aemsctPTWOWnprHLT01jlp6axy09NY5aemsctPTWOWnprHLT01jlp6axy09NY5aemsctPTWOWnprHLT01jlp6axy09NY5aemsctPTWOWnprHLT01jlp6axy09NY5aemsctPTWOWnprHLT01jlp6axy09NY5aemsctPTWOWnprHLT01jlp6axy09NY5aemsctPTWOWnprHLT01jlp6axy09NY5aemsctPTWOWnprHLT01jlp6axy09NY5aemsctPTWOWnprHLT01jlp6axy09NY5aemsctPTWOWnprHLT01jlp6axy09NY5aemsctPTWOWnprHLT01jlp6axy09NY5aemsctPTWOWnprHLT01jlp6axy09NY5aemsctPTWOWnprHLT01jlp6axy09NY5aemsctPTWOWnprHLT01jlp6axy09NY5aemsctPTWOWnprHLT01jlp6axy09NY5aemsctPTWOWnprHLT01jlp6axy09NY5aemsctPTWOWnprHLT01jlp6axy09NY5aemsctPTWOWnprHLT01jlp6axy09NY5aemsctPTWOWnprHLT01jlp6axy09NY5aemsctPTWOWnprHLT01jlp6axy09NY5aemsctPTWOWnprHLT01jlp6axy09NY5aemsctPTWOWnprHLT01jlp6axy09NY5aemsctPTWOWnprHLT01jlp6axy09NY5aemsctPTWOWnprHLT01jlp6axy09NY5aemsctPTWOWnprHLT01jlp6axy09NY5aemsctPTWOWnprHLT01jlp6axy09NY5aemsctPTWOWnprHLT01jlp6axy09NY5aemsctPTWOWnprHLT01jlp6axy09NY5aemsctPTWOWnprHLT01jlp6axy09NY5aemsctPTWOWnprHLT01jlp6axy09NY5aemsctPTWOWnprHLT01jlp6axy09NY5aemsctPTWOWnprHLT01jlp6axy09NY5aemsctPTWOWnprHLT01jlp6axy09NY5aemsctPTWOWnprHLT01jlp6axy09NY5aemsctPTWOWnprHLT01jlp6axy09NY5aemsctPTWOWnprHLT01jlp6axy09NY5aemsctPTWOWnprHLT01jlp6axy09NGV7w25S+a6RwXNu7Fzbez/fL7Ls4Lm3di5tvZ/vl9l2cFzbuxc23s/3y+y7OC5t3Yubb2f75fZdnBc27sXNt7Pn1hnRxhxa1rOO6aVKxqb1j8ljU3rH5LGpvWPyWNTesfksam9Y/JY1N6x+Sxqb1j8ljU3rH5LGpvWPyWNTesfksam9Y/JY1N6x+Sxqb1j8ljU3rH5LGpvWPyWNTesfksam9Y/JY1N6x+Sxqb1j8ljU3rH5LGpvWPyWNTesfksam9Y/JY1N6x+Sxqb1j8ljU3rH5LGpvWPyWNTesfksam9Y/JY1N6x+Sxqb1j8ljU3rH5LGpvWPyWNTesfksam9Y/JY1N6x+Sxqb1j8ljU3rH5LGpvWPyWNTesfksam9Y/JY1N6x+Sxqb1j8ljU3rH5LGpvWPyWNTesfksam9Y/JY1N6x+Sxqb1j8ljU3rH5LGpvWPyWNTesfksam9Y/JY1N6x+Sxqb1j8ljU3rH5LGpvWPyWNTesfksam9Y/JY1N6x+Sxqb1j8ljU3rH5LGpvWPyWNTesfksam9Y/JY1N6x+Sxqb1j8ljU3rH5LGpvWPyWNTesfksam9Y/JY1N6x+Sxqb1j8ljU3rH5LGpvWPyWNTesfksam9Y/JY1N6x+Sxqb1j8ljU3rH5LGpvWPyWNTesfksam9Y/JY1N6x+Sxqb1j8ljU3rH5LGpvWPyWNTesfksam9Y/JY1N6x+Sxqb1j8ljU3rH5LGpvWPyWNTesfksam9Y/JY1N6x+Sxqb1j8ljU3rH5LGpvWPyWNTesfksam9Y/JY1N6x+Sxqb1j8ljU3rH5LGpvWPyWNTesfksam9Y/JY1N6x+Sxqb1j8ljU3rH5LGpvWPyWNTesfksam9Y/JC1zA/cfYpfLjdQkcfGDufsuzgubd2Lm29nz61u73zz1R+3c/ZdnBc27sXNt7Pn1rd3vnnqj9u5+y7OC5t3Yubb2fPrW7vfPPVH7dz9l2cFzbuxc23s+fWt3e+eeqP27n7Ls4Lm3di5tvZ8+tbu9u7HGH2lwqa+SxvKVaPDFpv80cGFle37VZXt+1WV7ftVle37VZXt+1WV7ftVle37VZXt+1WV7ftVle37VZXt+1WV7ftVle37VZXt+1WV7ftVle37VZXt+1WV7ftVle37VZXt+1WV7ftVle37VZXt+1WV7ftVle37VZXt+1WV7ftVle37VZXt+1WV7ftVle37VZXt+1WV7ftVle37VZXt+1WV7ftVle37VZXt+1WV7ftVli3bVTzYzY60c6nvjPzTTUEVB+YOqP27n7Ls4Lm3di5tvZ8+tbu9uz5WNGP7mfwp43r2lp+9P0svM6J+YOqP27n7Ls4Lm3di5tvZ8+tbu9u/P5fgLJLLg2PIwJd744A0qrMyIiJkTxe472eikbEILU+6Git5t4VGdRxwYOzzSMoa3n3F/8AHkx0n3XgVPHEIJ3MF1tbzL+ivKnNbjMU2Ca35Rd5CbPZY3RNbfMppfcRWgTHRROtDXEulO9ZdzH0pxjLon3S6M1a7WPgPPSdvzB1R+3c/ZdnBc27sXNt7ODltMTD9JwCx+z7Rqx+z7Rqx+z7Rqx+z7Rqx+z7Rqx+z7Rqx+z7Rqx+z7Rqx+z7Rqx+z7Rqx+z7Rqx+z7Rqx+z7Rqx+z7Rqx+z7Rqx+z7Rqx+z7Rqx+z7Rqx+z7Rqx+z7Rqx+z7Rqx+z7Rqx+z7Rqx+z7Rqx+z7Rqx+z7Rqx+z7Rqx+z7Rqx+z7Rqx+z7Rqx+z7Rqx+z7Rqx+z7Rqx+z7Rqx+z7Rqx+z7Rqx+z7Rqx+z7Rqx+z7Rqx+z7RqY8OHKDX5ja3d7d+fy/AYLbg4TIX0wYLhU1oCr/75sYpyXFhf9K9jq08q4KJtqMUctrmvNuVNK6WnWq+9iy4vc1VUtsvwQEFjLlDvdF46kxr8FDTCVFGukZUNp6KqzWkROlAD7zL+jjGtMtHv8IID3NrerpqFNaMK8mtbt0egD4Dz0nb8wdUft3P2XZwXNu7FzbezgrLJgzdvzyjSxvINaxZsh43Sb4n1rEIOgFiEHQCxCDoBYhB0AsQg6AWIQdALEIOgFiEHQCxCDoBYhB0AsQg6AWIQdALEIOgFiEHQCxCDoBYhB0AsQg6AWIQdALEIOgFiEHQCxCDoBYhB0AsQg6AWIQdALEIOgFiEHQCxCDoBYhB0AsQg6AWIQdALEIOgFiEHQCxCDoBYhB0AsQg6AWIQdALEIOgFiEHQCxCDoBYhB0AvBnvUzM9weTJTiomfHGjkPzF1u7278/l/hfPSdvzB1R+3c/ZdnBc27sXNt7OC+nE31N+BOO/lrc/4iu6Yc8brrvTp+B8TLbKB6PmLrd3twTp0e7jtqipbZRSKS6FlbwhtllbwhtllbwhtllbwhtllbwhtkfCluuwYK779n34rnWVvCG2WVvCG2WVvCG2WVvCG2WVvCG2WVvCG2WVvCG2WVvCG2WVvCG2WVvCG2WVvCG2WVvCG2WVvCG2WVvCG2WVvCG2WVvCG2WVvCG2UnhS3Bz71bs2bMaLK3hDbLK3hDbLK3hDbLK3hDbLK3hDbLK3hDbLK3hDbLK3hDbLK3hDbLK3hDbLK3hDbLK3hDbLK3hDbLK3hDbLK3hDbLK3hDbLK3hDbLK3hDbLnZO35g6o/bufsuzgubd2Lm29nBc8zs+BYV0dXy75pofJTbRI5sULXscXVcy9xVRtVqdJNIP3ZF9+bOByBGSRroZYbhc+89t8jNUITyyCeOW8HOrnZQ1HIn+EZWSOdUi973p8iiFpkjuzEsuGm+DBnPKneU+JpPpI+Befy/MU+XG9wI++u4549x3u+fy+5BBA6OGS5Rzi1xzVTWgR2mORxr8W4mRgWUZmPOl55Rq9z+n7iltUbXniJU87GV0VKdMwRfLrmULmPiwAkvDlrSiitUbn8gPCyPuirhX0vKc/fyVujlu6VDaWPeOIFNnaZKuF3j3ulRWmN7xxAqaaNkrpHtDK8jqKe0MY48RUs7WXmlwrxgKEi4YjM8/R0NopLLG2zNfdpeOEpWl79FZYWue1ge9z3UaAeL0oMuYOe5aGHPdz3T6uA56Tt+YOqP27n7Ls4Lm3di5tvZwXPM7PgU8d65W7npSqEe8l8vOau9JUrKhpq2hIIP3IRG7KWl++Oct0Jw38d66fraVgN8HXxnNL3LTRVBv701frNKJgoxgAHoHwLz+Xc33NjjaCbpoXFyunpuV09JyunpOV09JyunpOV09JyunpOV09JyunpOV09JyunpOV09JyunpOV09JyunpOV09JyunpOV09JyunpOV09JyunpOV09JyunpOV09JyunpOV09JyunpOV09JyunpOV09JyunpOV09JyunpOV09JyunpOV09JyunpOV09JyunpOV09JyunpOV09JyunpOV09JyunpOV09JyunpOV09JyunpOV09JyunpOV09JyunpOV09JyunpOV09JyunpOV09JykvULjdZfOYA0WDPTd+awZ6bvzWDPTd+awZ6bvzRg6zvzWBPTd+awJ6bvzWBPTd+aYxzaykZnu+QdavTbZ/5q9Ntn/muS3S6/cxqaJhtHksoK70cdKoXmwNZMDd5KDNXWpqkxD3l/y4/wAx7n9P3Fa7K+V8s7nNAjvYVp0U9CnicI3WdjYyGXrlNLMykgfgG2ySUxXM7GOrTNqVla5uEsN1r7t28eXOsNNfhIdcxe5g6DQ48K747ZB998qWEmSKDAtYeNwFX+sq8b7ZN9G2DBtiqDmUQpLJNac/LnTLE/Cxt446YHNxkoM3+FkdrqJNKeMEHRANLIb759Vc6e3ybLJp4jmR/wDksrbp+q7OP7psM7bfGaRMukjMdPyaa1NG/BTxR79rS4BzOLMpIy19qnc5kZ0++GjeA56Tt+YOqP27n7Ls4Lm3di5tvZwU1ojjrK2l9wbXNrWP2faNWP2faNWP2faNWP2faNWP2faNWP2faNWP2faNWP2faNWP2faNWP2faNWP2faNWP2faNWP2faNWP2faNWP2faNWP2faNWP2faNWP2faNWP2faNWP2faNWP2faNWP2faNWP2faNWP2faNWP2faNWP2faNWP2faNWP2faNWP2faNWP2faNWP2faNWP2faNWP2faNWP2faNWP2faNWP2faNWP2faNWP2faNWP2faNWP2faNWP2faNWP2faNTXAtNulII49zqj9v8AG9bu9wJ+I68PVT2+75/Luv6fufAvr988A5m/jrcPJXN7sja4N99vp5eA56Tt+YOqP27n7Ls4Lm3di5tvZwU1njkpK2l9odTNrWIWfZtWIWfZtWIWfZtWIWfZtWIWfZtWKQ4PEb124KVv6ViFn2bViFn2bViFn2bViFn2bViFn2bViFn2bViFn2bViFn2bViFn2bViFn2bViFn2bViFn2bViFn2bViFn2bViFn2bViFn2bViFn2bVJZIXuN+rnMBPlFYhZ9m1YhZ9m1YhZ9m1YhZ9m1YhZ9m1YhZ9m1YhZ9m1YhZ9m1YhZ9m1YhZ9m1YhZ9m1YhZ9m1YhZ9m1YhZ9m1YhZ9m1YhZ9m1YhZ9m1YhZ9m1NaA0W6UADi9x2hjS4/d7uqP2/xvW7vcJ5/Luv6fufAvr98/A+ek7fmDqj9u5+y7OC5t3Yubb2cFzzOz3HeEJoWQYG7dcAN83PWqmno3GXtfJoD2NvZ0ZC2z5xDEDp+k73P5f8A9ijsckpguXrpGhwrxqz2WSbDCrQM1B9I8SwL99OIXM+M11aJvg+YzR53sq0UbxGvHVRRPkfaG1jYKA/fVYN0ckbrr2O0g/dwjWXy1shu8u+KYwuxlzQ0enOfUn2KYQYQR4Y5hU8dOTWmWZ7ywsvOqKAO486ZYpnQYS5hhnz1po00WAlnET2mgpvW3das9kknwzbzbuYAayUIXnCz4G58Zrv/ALCcx0JllLntrU3Ys/FyqS01ZLh6RtzNDWaPvTbW5tL7mRUFy408f5qOd0MQs7ZXOZ5RL9Azp8nv9inzO0XwzPnpyhDj3Uk7GHHpfKcAsbh6YQtURJifQXxyLGR6irNIHzOo1godJTbWXvY1jnAtFHj2LGB/dYwP7rGB/dYwP7oWhqwwWGCwwWGCwwWGCwwWGCwwWGCwwWGCwwWGCwwWGCwwWGCwwWGCwwWGCwwWGCwwWGCwwWGCwwWGCwwWGCwwWGCwwWGCwwWGCwwWGCwwWGCwwWGCwwWGCwwWGCwwWGCwwWGCitAbWpc/kA5NaE9QOVYYLDBYYLDBYYITsqdAruvP5d1/T9xTRSBsAzMEu9bvK6OOqdZZGRWigZIaUvEVonWKbAMcA+bQM/HTjCZZZJXNjbJvOQoWd4s8z7jJjTO70Jlklljh/evbTNmrmrpTDVrgCDqPBlhc1pdepxC+c6DLxdG6QkfFaPzUtilgEtcG5/HTl5Fi7hFC+RskpIoMGjYZ2MkFWSHOPvpoU0Mr4xO9r5qijd/QJlhmlDG3nuGYU1V0qGB02MRuey7m0elGrWxWfCubX4z81D6FP4RtkTjaHgAZo/KzCtEy0uhjs7WVuUqXOz8fEnv99sdquyEZr4a66f7HgOek7fmDqj9u5+y7OC5t3Yubb2cFzzOz3LTZ43sfgsFeAPktoUIwWRTh7hqAKiFbLNvnN+Q/lHp9z+X/APYiN7MY7n3NojCJmRR3ZYcJcz8utGJjTlJs91pzBgpoVN5JFG1vpFUYWyPs8Za+Ivu1ryEJ9njic93ksJdm1k8J9fvlPpgIb+Lf+01PqTrNHJIZbwtDpPi3q0AOhOG8lbEG/wDEGqijhwTXZpnOrvK6LvKiM0zqs6FEYBMyOC5JBhLgvcutGNjbnhDDENOYMz6F8Rkjo3/+0U7UBvImy3v+VKKMRYB5dSWudrHGpFOVWRrX+8iJ0TjdzDQQU9wdaLbKRQaL0uag9AQ0NAHq3Xn8vucy/s92tGSNF/loOLctzYVjr3pboP8AFWPuSM8l1K6eIp1L2etNRpuntqCnGrqUJ5aZtz5/Luv6fuKn7/yOhRU38D7OX5/kaUbLHM6RxMUzpPIbyBvKiN66GJo9LSfzRaL8M8b35+JrqqOxxT4aQva58hbcvabw4wgALrQM2jNwbxVr2yA/e4qZ4E5YIo36aNYKAp9jY0xPrLNhL7n5tfEpM2GknI9DzmUsULI2Cj33r1/6vIrowr3PIFeV9Vi7LRG9gEd99GxnW3jT2j3mzvY/PxmiPkWiC4Prx5+xPjiwb3fvr3xK18mnlKytZJhWNa9jnXc7dBqi69PbJ98W6KvNXfcBwHPSdvzB1R+3c/ZdnBc27sXNt7OC55nZuv5f/wBnwL6/fPwPz+X3CKg5iPd+hudUns/i2t3e3et3e3Pn8u6/p+58C+v3z8D56Tt+YOqP27n7Ls4Lm3di5tvZwXPM7N1/L/8As90OBpmKvCp0Dhvr987kOFRp1e69wAqB606RoJ0AnSiaAcafIBH8riz8B5/LufobnVJ7P4trd3t3rd3tz5/Luv6fuIOBoaH0/Afr987lrgRq91zwHP8AJHLRG0R1rSl4JzgOLOnOALzRus8Bz0nb8wdUft3P2XZwXNu7FzbezgueZ2br+X/9iitUIuNqIrjnud9amhWVzYjJZxO5zm3qA6AiGG0OtwiHybzqCqtErJPF5S1zW3eRTvjN5jQxl3jcaVJRmZaGvY5wc2MsukcWdTTxNdnv2ZzCx7fq8qkniiOGLcA9hbVnK13Gfcilja2zPN2ra3qNrRWZzI3S2fDvc4XroOigU13CwyXHXdB467qJ1H3ZLp13io80szvfc2gR+WhaYXtbKGmFjHOo2tM7uIpkrGRQ4Jxq2pIdxKJ8OBc/NEQfIrpvcqs8jGXXtdvm3rxuaNSbaYrPhmXjVpe7Roa0aUy4JnWzAPqM3HyqeQSG/LK43boNwZs2qqb4PxmWVtCTnuUH/wB6E+TCw4uX59EhaAE3NAY2EM4ml4NaJ2kxNru/P5dz9Dc6pPZ/Ftbu9u9bu9ufP5d1/T9xQ0vP8LXM/wBKimkjeRAJmOpcGkih0qS0RzsmvCsbCA1wz5idKDonNw7orhFK766DVWqVsojs2HDmtu8uZGaOQTPa10TY3DB3tfHwkHlx33U5QHmoUDhgmwYV55b/AJIT7TFOyZxacGwhrDqdxqWRuBs8k4DA3O65ozqWSB0TxV7QC0s9Gmqa9mCinkrHdqXDCZ86itULKMq2O4ZHuOumgKzubHjED3uvC9dpRPdewFkGrfPOc/2Vr8FwSMwznOlzOeA52nQrQwSNhjiEbXZxv85KrXE7W7BEnijfwHPSdvzB1R+3c/ZdnBc27sXNt7OC55nZuv5f/wBijtr42Wge+sABrmpm5FFaXRywRYIPABq3WCnTyOw0uFv6HB3Kpba+V4jczO0DMfQnOJaGgXtBzcamt8su9uhvkgdHjU1tkmEJJjDgKivKdJUltkkhbLhWxuoaEfS00WBsm0f/AP6q/wD6hxJ1VbdUVpdHLBFg2yAA1GsH0IPc9znF73u0kndfX75QcThNDfk1zmnpQt0ggdJfwdBprXTyK9++DBTkuJlumZZw+/gm5uOtKjPRX/8AUGvo3t1Q2t0ckEWCv3QbzfQVh3OuWvGKkZyeRRNq+GXRytfmcorfLE2Ty2ih9VdCie6J1nHvT26R+dVAXTWqYZ3upUnR6ggc0bA31bvz+Xc/Q3OqT2fxbW7vbvW7vbnz+Xdf0/cWFOe2C06OMcSe80ks2AI1VrVS258mL1uNugChFOJYU0w2ErT6d9ONb8GBLNVarH5nQxeRHmHSI08J9fvlXy8S5jX5NKBv3J1ve9lnPvbC0clM6cbzZXyOd/7DWidb5nsiFGMObpU0rCmjy43qfKdeUVsfFhgBK0AGtM2auhYUnF4nR6NN5MFWOiMUuqmcFOtkps7n3jDm5a0rpoorQ+CUtuuLab5voKgaTE6UYVxOe7W8T9/Ac9J2/AfB4F9n72Z3ks/VS+GbYX/QdcHqWV7ftVle37VZXt+1WV7ftVle37VZXt+1WV7ftVle37VZXt+1WV7ftVle37VZXt+1WV7ftVle37VZXt+1WV7ftVle37VZXt+1WV7ftVle37VZXt+1WV7ftVle37VZXt+1WV7ftVle37VZXt+1WV7ftVle37VZXt+1WV7ftVle37VZXt+1WV7ftVle37VZXt+1WV7ftVle37VZXt+1WV7ftVFanWuFvlxyeXTUVEd68V3OqP27n7Ls4Lm3di5tvZwXPM7N1/L/APs+BfX75+B+fy7n6G51Sez+La3d7d63d7c+fy7r+n7nwL6/fPwPnpO34D8eeV73ev8AhY8mO0kt1B/FudUft3P2XZwXNu7FzbezgueZ2br+X/8AZ7l73y7fu6tG4a6ro6XxyVz8J9fvnctrWJwa77xX3SCTJI2NoHKU1xdJvtAzVbpFeVF7qNdddJdNxruQlOvOe7yWMbecfuCab8TpAwu+TXNnru/P5dz9Dc6pPZ/Ftbu9u9bu9ufP5d1/T9z3WVo17mZ+Vpos9/B4T7q04b6/fO5ZWl5zc/0TT3bpL5Lx9Abxle+Xb9wy3DcvVpSqdfdIRW4xpc6nLmTDfilkDLw4q8vAc9J2/Adb+9wpOYZyjJZsHI5owQd740HjTI4jHZZM9a1c2lSrQIrtojc5lytW3eI8qdHDgWk1bnvENNCV5QbBAQOXyqetWpsNJ6hpZXeOpWhrpQa3G3z4At0gOB339lHLZQ2Bxbce7fyXdNORQywRX4BLfmObfaBTlVnjiMr7UYHZ6t9IPIrUI7+JvkY5laFtKaCpWR4GZrWACt5pu1CgiiMEJeKGt59zSQrLg7r7K2Zr3azqTxE2Z0zoTeNGAtrU+jMnyQyFjQ4SRHMQeG55nZudUft3P2XZwXNu7FzbezgueZ2br+X/APYnufLCxjf3M12SDXdVK1sbJGk8t7SmF5npKAbx3ov8QTGGNr2vwjXWjCYTNpAKDXNnMn711ooPK8i6exBu+a6Omf5Tc/CO0PbIPW4p7t/Z3ONo/wDTmb61Bhd5aAMM+bkdS6GDiT3PpFgHNbeIFVaLbJFOZTU4SlDe/d0OZPe/evbduuLaEM05k8SyzPs+ELBJg2nW4p0zqt8J4K8HVNBXjTAcGMORUk76mtNFM1pPropHC+BMx4+mSVN+8NhjDT6Dvgh+7dNMW6zTT607TdFd15/LufobnVJ7P4trd3t3rd3tz5/Luv6fuKDC1hl/fPmoAW/Fa0cStD3hkcMbo2h5bW9Wrs3IsO7BS26Rr5AaEjPx61E91G+DXZi6t3TmzqMyOfaHQNldhCCRTRX4qDxZ48X0PnwmDf8AK1BS4Rkj4Sb+FwkUtPj5+NTmRz5S4NtEct+OX0j3MNJhYp5nRm+d7R3Ip5HhjII3MY15bWtauzcic8vuySNa8/Ga11Ad1GaSC+5n1mvJCvUgs1mrm+XIKn1BRiRrJ3EEyTX3SAitSEC980ctqwQqaNzniQt8mEkbxyVw2bkKbI/CxTSOZvjQe+aKa0zCufDGKkzYNkXHUa1NI7f2WQvum7e0ci+TY4wz0Xiopo3WNtMJCM1+jtFU80L4IiyvIK1VfezaZXRH781Pv4DnpO34Drf3uGbbvF4zmbcF4jkLlhf9UXHR5NW3Vf8A9Ox7aU03gB7E61FtneSXx3N95WivIU928tETGUHFdr+atNswuBrgxcu6c1TrTWvEDfIvClZCKOcPUrNbBE2Z994MYcQeO76VBPclEeDN5t4OGvQsZc6QWm8Zrug0OenIp7SHzTQGEODKBjfQsJ/p3A6NNG3VHbCyzzlxey6Cd9punWmu3uLiEMpyGqw1HttDpmPpoLjyfep7ThC7QAy61vo4bnmdm51R+3c/ZdnBc27sXNt7OC55nZuv5f8A9ilszHP5T7eVPiBfH5DuMJsYwefe8WfSobOxjjxhYqzCVrWnHy+lYMYUCl7Vwn1++U2MCSSl93LRGyMvuNSdfKg3fvpePLd0LFWYWtb1OPl9KDP3vl6+JSWdpbEKM1JsDQ1smEaBxO5UH3HxSB7XUr6R96Ld+yt08l7SjZozL8qinha8a02kcQe0uaG5i0Z7u78/l3P0Nzqk9n8W1u7271u7258/l3X9P3E+ysLn+UVNZ2vLdBKxdmCJrcpmTLM0X2FjtbTyp0bXR0pdOcZlFZ2gP8rX6VDZ2sJzV1ciis7WPNd8OKvJyLKNqdQ1oS2h6qwYwbyS4ct7SpoGvu6KpjQ1o0AaN19fvlRRhoe4ucOUlR2VrXg1B5ExtA5xcfS7SorMxr+UDsWCGCdWrfSaqWzNc/lKZGBgmlrNQKa+65jXMdm8pp4likd+ta04+X0qeBr6aKhAhkTJGuLAPKDeLgOek7fgOt/e/hfPM7Nzqj9u5+y7OC5t3Yubb2cFzzOzdfy//s+BfX75+B+fy7n6G51Sez+La3d7d63d7c+fy7r+n7nwL6/fPwPnpO34DlC2R1Lt7HLRulZW8IbZZW8IbZZW8IbZZW8IbZZW8IbZZW8IbZZW8IbZZW8IbZZW8IbZDwpbrs+Fve/Z94K5llbwhtllbwhtllbwhtllbwhtllbwhtllbwhtllbwhtllbwhtllbwhtllbwhtllbwhtllbwhtllbwhtllbwhtkfCluuwYK779n34rnWVvCG2WVvCG2WVvCG2WVvCG2WVvCG2WVvCG2WVvCG2WVvCG2WVvCG2WVvCG2WVvCG2WVvCG2WVvCG2WVvCG2WVvCG2WVvCG2WVvCG2TpyThGhpkO+dQbnVH7dz9l2cFzbuxc23s4Lnmdm6/l/8A2Ka0sY52gEomNuGdKLufPcr5PqQtLDLou14wr10Qk1J+SPjKC0RH35rHceniFONS2qNrzxEr41wGuvk4N5o1okJOq8U6QXZC0MPKXaEbSzC1pdrxp87RJea27x1doWNR4WtLtePkVoljjEcga2p01FVNO1jXaNfoRnZg5DRrq5iVZHtfjEt0O4rrfKP9lZm2e7FdFZSRUuFc1EyJj7VK0nTvG3dJ9CEbWWuy0L2+U08eb0hN8l7Q4ffu/P5dz9Dc6pPZ/Ftbu9u9bu9ufP5d1/T9xOtLBL8mvKq54uPl5fUmWlhDGhzjXQDyqCdj6aaFR2qN0nICo9MbyPSOXhJH3RVwr6XlOfv5K3Ry3dKhtLHvHECmztMlXC7x73SorTG944gVNNGyV0j2hleR1FPaGMceIqWdrLzS4V4wFFQsMJmkP0dDaK02fAsjhwwGl13Pp9SnsrW2e0Oa1hDqube0XvSrJZmvEH7wudSppWjUz/T2h1x3KHHR/fd89J2/Adb+97lnbGXzPLd/WmYV4lPDGJ4bMZhddVrgoI2vtM0bJHD4sbSNJWktYT6k5llEUjWuzF16hzp7KvbaXwxxt0vLTQKcNEhGcN0D3P6juKeZrAdFSsOy480a6uYo2yO640GdS2hrKtvCvGEyZhj+VXMoJ2PLdNCmWqN0nyQ5SWmNsnySVaJGR4RjT955FFI17Dxg13P9P3E19TGaPHInWloY/wAg8tEZ2iN53rq5jxp1qYGP8k10pr2GGZzqvrmoG1Uc7HRt8p1dFOVQTtfd00TJ2vuRYR1PkoQNfNNn+S1gOfOrSxofZAC+4ag1Fc1VarK1kdoNGFr6lppocpaX4ZOL5Ds7d1IwOGGZmPoUEl9v/jkPY5PBjk+S/wBnL7o0Xgyv1Rufsuzgubd2Lm29nBc8zs3X8v8A+xWmFzsPdwZuF18XaXEWnevtNf7qzte8YzV8E8W+irpeHIg4Rz3ytFNLSBoTG0DbRFmHErXZnyvlnc5oEd7CtOinoToyxklkbGzNmvB1bubgzoOE7xUjTcsF/OfjXvI9QRrHILRUQRw00O8su9qu/EgofuKtFjfLacKatwdam9+8qc1EWeUQPSLif703Fh7/AILCOBzb0ciLHFg8K5g5tM2fiR8msrPvc3N2KewPwzhvHhhdfzfFI41aGPcG2YxzkC8WnMalPYWwvY25eFCRG3TTWnaRCzs3fn8u5+hudUns/i2t3e3et3e3Pn8u6/p+4rO17pHzAuss0V5rz8pp4k8EYeBmDzZjcBqom+TgXvaG1JGk5lFaZHyYq6MSYHBtz8XpCdNNfhcx2DEF3B3eU5sycCHm0OlGbS0gZ+Ed8dsg+++VLCTJFBgWsPG4Cr/WVeN9sm+jbBg2xVBzKIUlkmtOflzplifhY28cdMDm4yUGb/CyO11EmlPGCDogGlkN98+qudPb5Nlk08RzI/8AyWVt0/VdnH90349hDR6auTbPIJmviw9WEBgZpz9ilhlIllwkRay9fqNGZPHvrrVGacm+vn1bvnpO34Drf3vca9zPfnb9vFvDyrCSSyyWd4L3mpzA5hRNvvZNFGLUDnIrocPQmGr2wEn/AJDMsJNewLDdMhu528ihc7GYrbMYmnyaVzj/AJJoIvDQdIPJ7n9R3EZnRxYAtviLCXTX+1VSRzX+ExJv2XeI8XIsEKOii4tNQaqZjiGWI1NK3dGdRQuwEk8T2x3aF7W0vEDWrLA4S4Atw5ju3T8nOorO9tpifFf3hGDu6STrVohe+Sd7jHvCcIC3MAdSvujjZZrpdg79wkDSg6QiSW9V7MHXWBuf6fuKBp8djEObifWgcfuKHvMLIaCfBYR3JdHIix10eEXGjhTNvuJWhjjE6ANY4NLg01zjNyplkMUeHe64W0pvTnomWcS7yA3CKg8ubjTJnyg2Z4LsFg2/VCYyjjZXZtdEY3mCaMBzmV3gLdWdWVr8Xe0GG+KFz9J05yo4ZWmOdks15l25c4s6GgCFlfpAE+3dPGiZvGRxJkb5JPkscf758ytGZo0RtcT6yUMIPRI4e1YaanJhHJjaNGgbn7Ls4Lm3di5tvZwXPM7N1/L/APs+BfX754CRtQHBw4s7c492Vt5hpUejgPP5dz9Dc6pPZ/Ftbu9u9bu9ufP5d1/T9z4F9fvngHM38dbh5K5tw5tXx1unkvad3z0nb8B1v725HlS0vf8AEU3P9R3NxU32sLNVDn4P+n7nAxNusFaD05/djbS88vdrJ490ZHhuGbUNNK5lGwNbyDgfsuzgubd2Lm29nBc8zs3X8v8A+z4F9fvn4H5/LufobnVJ7P4trd3t3rd3tz5/Luv6fufAvr98/A+ek7fgOt/e4L+o7nD/ANP3PgXPM7OC+y7OC5t3Yubb2cFzzOzdfy//ALFFZJZzGAZLlN7X06So2S3nWV72sJujSNIPGrTB+8exheCPjfGQZ5EYe53JXQOGay+WtkN3l3xTGF2MuaGj05z6k+xTCDCCPDHMKnjpya0yzPeWFl51RQB3HnTLFM6DCXMMM+etNGmiwEs4ie00FN627rVnskk+GbebdzADWShC84WfA3PjNd/9hOY6Eyylz21qbsWfi5VPbbXDGy4G4IG7ozk5ioLU4MfCXvmzF5aM2Y60+ZxfA1ropdDjUVGj0L/yRtd6xu/P5dz9Dc6pPZ/Ftbu9u9bu9ufP5d1/T9xQ2aV7YQ5r5W03rqexSPeXOsOEca5uLSOVMsMuDeCY35qGnLTQrTZ/Jlu5iM+/u/2UkMsRkfJRt8aA2u+omWKd8OEuGVornrTRponw0ijuUzjNWvbwZYXNaXXqcQvnOgy8XRukJHxWj81LYpYBLXBufx05eRYu4RQvkbJKSKDBo2GdjJBVkhzj76aFNDK+MTva+aoo3f0CZYZpQxt57hmFNVdKhgdNjEbnsu5tHpRq1sVnwrm1+M/NQ+hT+EbZE42h4AGaPyswrRMtLoY7O1lblKlzs/HxJ7/fbHarshGa+Guun+x4DnpO34Drf3tw/wAJywCKajd8LgF0HQVaZMG18MzpB8qgFFK+jJB71EDma3lOvcf1HcUdlfLI5l8AED11UYkY5lqYyRnxvKzjMpYHQvYzCb4g1Zy5k6yyshmIEUppQ10eiqbY5HizyFshBGgcedQwunfIy+0NoN7yklNaWlrixzXaWuHFwH9P3E9tzF6EnlaRWqj8HyvdM29dGho1lNhecLLgrnxg7Pm/shYpHWgsvmIFu9GspkczcJK4OipRx3pzJ1mkbLB5cQ3zs+cUpyqayvgkuYRod8Zv3IWRzI2wOeHOIzkcSNsdHRuEnk+NoqdKZM6eGH9xI/STTR9xUlrfKJpWxytcBQF+gtpoRJIa9sjK8knF9x3XPM7OC+y7OC5t3Yubb2cFzzOzdfy//sVlhjlE5B3zqXHAUr6FJdzWZzHlui8SNCttyJrGXBJezHkKm/fWk33ejQP7cN9fvlPpgIb+Lf8AtNT6k6zRySGW8LQ6T4t6tADoThvJWxBv/EGqijhwTXZpnOrvK6LvKiM0zqs6FEYBMyOC5JBhLgvcutGNjbnhDDENOYMz6F8Rkjo3/wDtFO1RRQyRvG8LnXbnp5VZy18lniwbmuNL4OviU9MNMBRjc4FBda1HSyNoPp3fn8u5+hudUns/i2t3e3et3e3Pn8u6/p+4oIo3R2h0jhIX0uX9NQqD3qw4I8e/zfksXZZg29hcE/eSehvEsG2gtIkY+9pbhLyaN7E6S/8A8m0UEcJiDzdlc7QwmtC3lVwOhnYyprnaWauDeKte2QH73FTPAnLBFG/TRrBQFPsbGmJ9ZZsJfc/Nr4lJmw0k5HoecylihZGwUe+9ev8A1eRXRhXueQK8r6rF2WiN7AI776NjOtvGntHvNnex+fjNEfItEFwfXjz9ifHFg3u/fXviVr5NPKVlayTCsa17HOu526DVF16e2T74t0Veau+4DgOek7fgJ8uCV7H+vcWizRuLprzCQDmoFgwY4cJWvETSiYK2R2/ZzZOlvo3H9R3FBEJHCyOq0uu1F7iTw3DSWyOZwBzANIzf2R/dOsb4SdbipmRCOF0ZdIHeXc0UFMyIzzyyuZ6HNosXbM6OyNhkjL7mdvIU6KONznlxawkj+/HwH9P3FDSkjcDP9nWqZAJ7O2MtwBfcFeXWnRsaY7Y6Vwacwaa6PWrNE2W/EGPYXXdBzEKbB345HOkuaBVpHGoXXDMyERur8nSsSjgaIXtNH33EnlKcBhMXLPvorO1jjSksb81aZiK8tVMxkONMa0MbvqXeM61amxNjs7w8lrq4RzdHoQ8i82Fv/r0/3O6HkvtJDTyhvBfZdnBc27sXNt7OC55nZuv5f/2e7LG17a1o4V4f6/fPwPz+Xc/Q3OqT2fxbW7vbvW7vbnz+Xdf0/c+BfX75+B89J2/AbBQvcKTQu0SU9qm8EWwH6LL49ayZb9j+qyZb9j+qyZb9j+qyZb9j+qyZb9j+qyZb9j+qyZb9j+qyZb9j+qHg223YMLe96z78UzLJNtv0pewGenJpWTLfsf1WTLfsf1WTLfsf1WTLfsf1WTLfsf1WTLfsf1WTLfsf1WTLfsf1WTLfsf1WTLfsf1WTLfsf1WTLfsf1WTLfsf1R8G227PgrvvWfeCmdZMt+x/VZMt+x/VZMt+x/VZMt+x/VZMt+x/VZMt+x/VZMt+x/VZMt+x/VZMt+x/VZMt+x/VZMt+x/VZMt+x/VZMt+x/VZMt+x/VZMt+x/VDwXb9korObHC7ypZPLpqCiFGMHBfZdnBc27sXNt7OC55nZuv5f/ANm4LheOgctOG+v3zuQ4VGnV7r3ACoHrT52NPIXAK+LlK3q5qJ8gDM2+4s/Aefy7n6G51Sez+La3d7d63d7c+fy7r+n7nuXheArTj+AfX753LXAjV7rngOf5I5aI2iOtaUvBOcBxZ05wBeaN1ngOek7fmN9l2cFzbuxc23s4Lnmdm6/l/wD2LCsbBA6P4tSatqQsNGWlw8XwbqhtdN7lVnkjZHZ3XaObUvdSv3KS6TLHOXm78nkV6LF61wV3PcrSta6VDLGxsODulza6W1oiKF7Kn08HE6j7sl067xUeaWZ3vubQI/LQtML2tlDTCxjnUbWmd3EUyVjIocE41bUkO4lE+HAufmiIPkV03uVWeRjLr2u3zb143NGpNtMVnwzLxq0vdo0NaNKZcEzrZgH1Gbj5VPIJDfllcbt0G4M2bVVO8GwWljrhF8itGt+LUK4MWxd0rY+LiAFNSb+4uMLWfIL2pxq50Ta+mm78/l3P0Nzqk9n8W1u7271u7258/l3X9P3FZXwtZFKY2te3y7ump4kC1hFgDqgZ+OoqnzX43lrJN7ovje+oqvvEb8Gz0t8o8NB5cd91OUB5qFA4YJsGFeeW/wCSE+0xTsmcWnBsIaw6ncalkbgbPJOAwNzuuaM6lkgdE8Ve0AtLPRpqmvZgop5Kx3alwwmfOorVCyjKtjuGR7jrpoCs7mx4xA97rwvXaUT3XsBZBq3zznP9la/BcEjMM5zpczngOdp0K0MEjYY4hG12cb/OSq1xO1uwRJ4o38Bz0nb8xvsuzgubd2Lm29nBc8zs3X8v/wCxXq4csNOS6KKO3TNs7XXhEKDjrSvIgy3MwjRewLbzJc1NdCpHUfZ43gt+0/JY1Jit69gM1NNaV5Ferhyw05Loog69cFK8H9fvlBxOE0N+TXOaelC3SCB0l/B0GmtdPIr374MFOS4mW6ZlnD7+Cbm460qM9Ff/ANQa+je3VDa3RyQRYK/dBvN9BWHc65a8YqRnJ5FE2r4ZdHK1+Zyjt0sTZf3jBQ+quhRPdC+zikT28XFx6VZ70tpm0vcRUk5q/cm6I2Bvq3fn8u5+hudUns/i2t3e3et3e3Pn8u6/p+4orbLCyV16RjKadR4k5xLZYBCRqz8f3qktpc7eRXW5x8mvo5UTVwG+PK45yeG+v3yr5eJcxr8mlA37k63veyzn3thaOSmdON5sr5HO/wDYa0TrfM9kQoxhzdKmlYU0eXG9T5Tryitj4sMAJWgA1pmzV0LCk4vE6PRpvJgqx0Ril1Uzgp1slNnc+8Yc3LWldNFFaHwSlt1xbTfN9BUDSYnSjCuJz3a3ifv4DnpO35jfZdnBc27sXNt7OC55nZuv5f8A9nwL6/fPwPz+Xc/Q3OqT2fxbW7vbvW7vbnz+Xdf0/c+BfX75+B89J2/Mb7Ls4Lm3di5tvZwXPM7N1/L/APs3Nx2dpN6mYU5Uyt14qK8J9fvnctrWJwa77xX3SCTJI2NoHKU1xdJvtAzVbpFeVF7qNdddJdNxruQlOvOe7yWMbecfuCab8TpAwu+TXNnru/P5dz9Dc6pPZ/Ftbu9u9bu9ufP5d1/T9xHQ0En7k3yXtDh6Cn1o57WZuVxpw/1++U6t6Yuu/wDEV9xrqujpfHJXP8A56Tt+Y32XZwXNu7FzbezgueZ2br+X/wDYnRPc2EMuUnwVzNW8rRLWtnlvlj/L0cbVh5XTWWdzIXF5zNY6iZhXPhjFSZsEyLjqNae7O6xyl2vQuaHCO0PbIPW4p7t/Z3ONo/8ATmb61Bhd5aAMM+bkdS6GDiT3PpFgHNbeIFVaLbJFOZTU4SlDe/d0OZPe/evbduuLaEM05k8SyzPs+ELBJg2nW4p0zqt8J4K8HVNBXjTAcGMORUk76mtNFM1pPropHC+BMx4+mSVN+8NhjDT6Dvgh+7dNMW6zTT607TdFd15/LufobnVJ7P4trd3t3rd3tz5/Luv6fuKed7ZYnytZvyLgaM2bWpXubDiDX0Di2+7MKZuRGdxjitzGMlJqQM3HqUD3lkkL3SMLy6lKUdn5eGjcWnfC8PigyUJ+5RSvN7DEgvL/AInlZ1BhaG1AYWSbywXUu3BxKKP36Nocz72VTKtMjm33vtFcK06d6eH56Tt+Y32XZwXNu7FzbezgueZ2br+X/wDYprOx5HHxoRgGNt1moHiRiFyVxc8cpKmszXvHGU2IDBtLWagVG2jGigHCfX75TYwJJKX3ctEbIy+41J18qDd++l48t3QsVZha1vU4+X0oM/e+Xr4lJZ2lsQozUmwNDWyYRoHE7lQfcfFIHtdSvpH3ot37K3TyXtKNmjMvyqKeFrxrTaRxB7S5obmLRnu7vz+Xc/Q3OqT2fxbW7vbvW7vbnz+Xdf0/cUllY5/LRSQNcxgowfJ9CwDMECCGUzZlBA1hOkjTwzmgg4SoP1iorM1rgSQRrzLFGXia11rBDCgUvalHZWNk5QNHo4fnpO35jfZdnBc27sXNt7OC55nZuv5f/wBnwL6/fPwPz+Xc/Q3OqT2fxbW7vbvW7vbnz+Xdf0/c+BfX75+B89J2/Mb7Ls4Lm3di5tvZwXPM7PcsrIKRsY4mQuHlehTMjvzOeH3a0F0VzVUTBircwkPx3fR1e5/L/wDsUlpY14IBBNM5zploY6RuloKNqYHOcWgV4waKe0MYToBKw7MECQX1zZlFO1zRpNdHpUNpY8jiBTZ4zOxpNyvGp52MvaKlMcHNOgjgHmjWiQk6rxTpBdkLQw8pdoRtLMLWl2vGnztEl5rbvHV2hY1Hha0u14+RWiWOMRyBranTUVU07WNdo1+hGdmDkNGurmJVke1+MS3Q7iut8o/2UVmjwUQqXSOpf496rPFeltTLzA40DRStShE1lrswBLfKaePN6U3Q9ocPv3bhRwt8tHjMQnDDs5Rmf6uNMfWmkcY9I90aM7PvAH57nVJ7P4trd3t3rd3tz5/Luv6fuKW1RtfyEqWdrCAHZ+QoWlhkOgVUlpY2TkqgYzg7KZQzPXN7EdLmA+vhJH3RVwr6XlOfv5K3Ry3dKhtLHvHECmztMlXC7x73SorTG944gVNNGyV0j2hleR1FPaGMceIqWdrLzS4V4wFFQsMJmkP0dDaK02fAsjhwwGl13Pp9SnsrW2e0Oa1hDqube0XvSrJZmvEH7wudSppWjUz/AE9odcdyhx0f33fPSdvzG+y7OC5t3Yubb2cEdN+J3rHuPfK0CGKlx5Zy8iJkwd54ca56XeM61LUhorZ3/KZyeke5/L/+xOjreYzi0+9q5oGfVWJYPfOlnd94fmKnhke2WGMRuawvpStW5uVGB2Cit0jnxgVIGcdVWOzODnNFZLl3C04hxqzRPbgb2EJYW3RdpczqSF7rVeeTvDvt9W/VOmdFG6zsa14hwmj4qF+hLiL7bpznk4A6DhO8VI03LBfzn417yPUEaxyC0VEEcNNDvLLvarvxIKH7irRY3y2nCmrcHWpvfvKnNRFnlED0i4n+9NxYe/4LCOBzb0ciLHFg8K5g5tM2fiR8msrPvc3N2K1RTtLf3d0ON+vJTT96tERN2FzJ7rc7b1M9B/dPYWwGNoZeFCQwZzRO04Ju7wr2h1tlIulG2Tl50MaauP3UUkskV3RnBf6wsam9Y/JOtExH1qdiY2jQ2Sg9W51Sez+La3d7d63d7c+fy7r+n7inmkGGlfRjYL+Ea7RQp7b13waxlXD6XGgyhFtB0c6njBHPdjZBUy0HlFyIJJ8Df3zrmmdnCO+O2QfffKlhJkigwLWHjcBV/rKvG+2TfRtgwbYqg5lEKSyTWnPy50yxPwsbeOOmBzcZKDN/hZHa6iTSnjBB0QDSyG++fVXOnt8myyaeI5kf/ksrbp+q7OP7pvx7CGj01cm2eQTNfFh6sIDAzTn7FLDKRLLhIi1l6/UaMyePfXWqM05N9fPq3fPSdvzG+y7OC5t3Yubb2cFZmF5Dbk0Q0uZq1rGmsPG1+9I9ax+z7Rqx+z7Rqx+z7Rqx+z7RqxuHB4jdvXxSt/Qsfs+0asfs+0asfs+0am+GhE6lN5O2hHoNVHb4LreWVqx+z7Rqx+z7Rqx+z7Rqx+z7Rqx+z7Rqx+z7Rqx+z7Rqx+z7Rqx+z7Rqx+z7Rqx+z7Rqx+z7RqktcLHC/VrngHyisfs+0asfs+0asfs+0asfs+0asfs+0asfs+0asfs+0apLbZyA4OHvo0tz8qx+z7Rqx+z7RqlttnLHaRhQPasfs+0asfs+0asfs+0asfs+0asfs+0asfg2gXgwGaZ2YyfEj11Uc91jRvyBvnE6c6YyldJ4z6TuNUns3OqT2fxbW7vbvW7vbnz+Xdf0/c+BfX754BzN/HW4eSubcObV8dbp5L2nd89J2/Mb7Ls4Lm3di5tvZwctmiefpNBWIQdALEIOgFiEHQCxCDoBYhB0AsQg6AWIQdALEIOgFiEHQCxCDoBYhB0AsQg6AWIQdALEIOgFiEHQCxCDoBYhB0AsQg6AWIQdALEIOgFiEHQCxCDoBYhB0AsQg6AWIQdALEIOgFiEHQCxCDoBYhB0AsQg6AWIQdALEIOgFiEHQCxCDoBYhB0AsQg6AWIQdALEIOgFiEHQCxCDoBMYGjkAputUns3OqT2fxbW7vbvW7vbh7s50NGcn0Befy7r+n7nwL6/fPwPnpO35jfZdnBc27sXNt7P41qk9m51Sez+La3d7dyuDHh7rt7NeBNRRYRvrT5Rn0AZyVhGwM9IL/wAgmObU6XF1SfSV5/L7k/heWz3HtDGCQNzXRyp9pc6HASGpNS/RT71PJ+9FWRA71jfafc/p+4jZpZmRWh9XAjetpoFVDZ3TGaHCMu0HasQmdFHTCScX3cqigdK8wCZt0jOCacajs0r3XyzBAb4OBpnT7O5klm/eRE50LDNhXZ4hmF9vLXiWCfewmCwWa9frSikgdDM1ocWuocx4wRwJYXNaXXqcQvnOgy8XRukJHxWj81LYpYBLXBufx05eRYu4RQvkbJKSKDBo2GdjJBVkhzj76aFNDK+MTva+aoo3f0CZYZpQxt57hmFNVdKhgdNjEbnsu5tHpWdohs+FLa/HfmofQrRaMKWWUTU0NBz5gpLU5+FfGJoyBdAf8nkomWt0LIH3IwwDO4DPerpWgmXBSt4t/vO3d89J2/Mb7Ls4Lm3di5tvZ/GtUns3OqT2fxbW7vbtzQRrWLx9EJ1nZ6QKFYvHOz6oD/yKZFHUaWllCPSEfLxky/8AGT3JI2kSSNLOPMG0RjaY4o5Bn4iaUWmy+VCa521+J+Xuf0/cUUEbm2iZ7muL6XK5qlDPHDZTETrzI2Zk+EBwL3Sfu82i7ypw3osTIv8AkCmNBrbZJTHfu32O4qhCyxw4xGwRMa6uiulU3kcUjXel1EWtvY8+doJzOaTqT7FHBvbraPL3feeBeKte2QH73FTPAnLBFG/TRrBQFPsbGmJ9ZZsJfc/Nr4lJmw0k5HoecylihZGwUe+9ev8A1eRXRhXueQK8r6rF2WiN7AI776NjOtvGntHvNnex+fjNEfItEFwfXjz9id+6msoir6/zU+DEUD2EyB1TJc0ZuLWrK2J7LQ69vjduOpSusJhq7Ch7jqj37junGjWtJP3J2l5c71n5jfZdnBc27sXNt7P41qk9m51Sez+La3d7g3tzjQ4ZiPQVY3htpYKZ9D28hVo8D2oO48GL4WTLfsf1WTLfsf1WTLfsf1WTLfsf1R8G227PgrvvWfeCmdZMt+x/VZMt+x/VZMt+x/VZMt+x/VZMt+x/VZMt+x/VZMt+x/VZMt+x/VZMt+x/VZMt+x/VZMt+x/VZMt+x/VZMt+x/VZMt+x/VZMt+x/VZMt+x/VZMt+x/VSeDbaXMvVuxZs5qsmW/Y/qsmW/Y/qsmW/Y/qsmW/Y/qsmW/Y/qsmW/Y/qsmW/Y/qsmW/Y/qsmW/Y/qsmW/Y/qsmW/Y/qsmW/Y/qsmW/Y/qsmW/Y/qsmW/Y/qsmW/Y/qm+CreT9krRFitkrvmVq9/wCSaKACgHzG+y7OC5t3Yubb2fxrVJ7Nzqk9n8W1u73z9+y7OC5t3Yubb2fxrVJ7Nzqk9n8W1u73z9+y7OC5t3Yubb2bloe8jTcaTRYCboFYCboFYCboFYCboFYCboFYCboFYCboFYCboFYCboFYCboFYCboFYCboFYCboFYCboFYCboFYCboFYCboFYCboFYCboFYCboFYCboFYCboFYCboFYCboFYCboFYCboFYCboFYCboFYCboFYCboFYCboFYCboFYCboFYCboFYCboFYCboFYCboFYCboFYCboFYCboFYCboFYCboFYCboFYCboFYCboFYCboFYCboFYCboFYCboFYCboFYCboFYCboKSO4GtLWNOnPpJpudUns/i2t3e+fv2XZwXNu7FzbezcDkKHyB/GtUns/i2t3e+fv2XZwXNu7FzbezcfRK5tvZ/GtUns/i2t3e+fv2XZwXNu7FzbezcfRK5tvZubRMGcnKU3wfbXDiIizFZMt+x/VZMt+x/VZMt+x/VZMt+x/VZMt+x/VZMt+x/VZMt+x/VZMt+x/VZMt+x/VZMt+x/VZMt+x/VZMt+x/VZMt+x/VZMt+x/VZMt+x/VZMt+x/VZMt+x/VZMt+x/VZMt+x/VZMt+x/VZMt+x/VZMt+x/VZMt+x/VZMt+x/VZMt+x/VZMt+x/VZMt+x/VZMt+x/VZMt+x/VZMt+x/VZMt+x/VZMt+x/VZMt+x/VZMt+x/VZMt+x/VZMt+x/VZMt+x/VZMt+x/VZMt+x/VZMt+x/VTRT2eppWWOgTXAtOcEcFqk9m6aXzSj4kTbxWTLfsf1WTLfsf1WTLfsf1WTLfsf1WTLfsf1WTLfsf1WTLfsf1WTLfsf1WTLfsf1WTLfsf1WTLfsf1WTLfsf1WTLfsf1WTLfsf1WTLfsf1WTLfsf1WTLfsf1WTLfsf1WTLfsf1WTLfsf1WTLfsf1WTLfsf1WTLfsf1WTLfsf1WTLfsf1WTLfsf1WTLfsf1WTLfsf1WTLfsf1WTLfsf1WTLfsf1WTLfsf1WTLfsf1WTLfsf1WTLfsf1WTLfsf1WTLfsf1WTLfsf1WTLfsf1WTLfsf1WTLfsv1TJKSD/43i67da3d75+/ZdnBc27sXNt7Nx9Erm29m4OhoJP3K1C/NLnZXPg28VP4U9gc06Qc6qcA9mFgr8XlbwWqT2bmF12S1Pu3uRg8pQxhoHrPp/hTd7aGZ4pBmIIR8ojfekZtzrd3vn79l2cFzbuxc23s3H0Subb2bjzeTurmGdnDylrGCESYRzqaTSiMrbriA01zElOtMYjJoHXhQlYZl2Q0Ya5nV5FFK14BobpqmTsc9ulocCQnvZG9z3tawuzm6aKS0xsIpW84DToVAWzOIvV0UbeqopWvbytNVHMx5bpDTWixiOryQ0XhnpyKWZjK6Lxohw/K2fu8Fqk9m51T934C6l2VxBcTS7QVTZ2GMaXg5syxiOjKXzeG9ryptojMbdLw7ME2Zhe3S0HOEZ4xIdDLwqpXMjELmNDnOpeviqjdEZZD8d9AB8o6lNaYmSOAzF1FfGEu3rvHTlUbw5vKM+j4DyWqXt3Ot3e+fv2XZwXNu7FzbezcfRK5tvZuPN5O6uYZ2cPaqXMTzOcMwdfKEfi0vhRmDbSguH2FFlniFx5E0rLwGoa0d9GPCt0Aim9z8SszQ1z7E3MON2+UMPv7WZqNoWZs95Bgwgmkfe46iRWwMpgow1zxUaNCfH70bXM6NhGhmctVnFC6zxuujjOevrCsDW3oyb91tLrLuhyuC/hJX3uOrX5lNLAxjoWBjpYi8Uz1aM6Ehe3PdJbdzE8h4fVP3eC1Sezc6p+78BnbWIT1dmrxKy0wBsdHOaMzpM6xeK4XRir21YzN5RomStewwsdVjbjCc9aBRMDf3rc3JcqrZDeteMOvNub9z72Zw1KSNrv3Qz8lxHP8A/wDBT8BE4ClDHellzZqFWauO4C/eBpRhbnr6eJWcXYw2gbxinEdfwHzqXt3Ot3e+fv2XZwXNu7FzbezcfRK5tvZuPN5O6uYZ2fBq1MwZUclz4Lqn7vBapPZudU/d+CU+EedS9u51u73z9+y7OC5t3Yubb2bj6JXNt7Nx5vJ3Vk23OuxNF5sVQc3Esk+ENisk+ENisk+ENisk+ENisk+ENisk+ENisk+ENisk+ENisk+ENism27CUvXcFnpy6VknwhsVknwhsVknwhsVknwhsVknwhsVknwhsVknwhsVknwhsVknwhsVknwhsVknwhsVknwhsVknwhsVk23YSl67gs9OXSsk+ENisk+ENisk+ENisk+ENisk+ENisk+ENisk+ENisk+ENisk+ENisk+ENisk+ENisk+ENisk+ENisk+ENisk+ENisk+ENisk+ENisk+ENisVnhuib98y7Xe8XBapPZucFJJQTb2MVccyyT4Q2KyT4Q2KyT4Q2KyT4Q2KyT4Q2KyT4Q2KyT4Q2KyT4Q2KyT4Q2Kd4Lt4aBUkw6P7pvgu3lpFQRDp/usk+ENisk+ENisk+ENisk+ENisk+ENisk+ENisk+ENisk+ENisk+ENisk+ENisk+ENisk+ENisk+ENio/Btue06HNiqO1ZJ8IbFZJ8IbFZJ8IbFZJ8IbFZJ8IbFZJ8IbFZJ8IbFZJ8IbFZJ8IbFZJ8IbFZJ8IbFZJ8IbFZJ8IbFZJ8IbFZJ8IbFZJ8IbFZJ8IbFZJ8IbFUpW0y6dzrd3vn79l2cFzbuxc23s3H0Subb2e7I+nJyn0IR4KPASeX5R3vJxLmGdnuSSsbX5RonPAbyk5k54bU0zlOcABxlMnjceQOBQeLnyq5k01B4x7n8v/AOxBwqNOrhf5f/2bkuFTo17gStuVpermzZk5wDeU6Pca4EDkzqNwc12gjdap+7wWqT2biMGWT5LOL0niU1z/AOejW8W95fdZMxx5A4K8L1K046IPBc3SK6FJMxp5C6iErCHGgz6Si8BztArp9zzeTupzgALPHnPo4b6/fO5a4Eavdc8Bz/JHLRB4vDSK5wg4XhpHInOArmFeNFwvuBLRy03fnUvbuZXBjw9129mvAmoosI31rCN9awjfWsI31rCN9awjfWsI31rCN9awjfWsI31rCN9awjfWsI31rCN9awjfWsI31rCN9awjfWsI31rCN9awjfWsI31rCN9awjfWsI31rCN9awjfWsI31rCN9awjfWsI31rCN9awjfWsI31rCN9awjfWsI31rCN9awjfWsI31rCN9awjfWsI31rCN9awjfWsI31rCN9awjfWsI31rCN9awjfWsI31rCN9awjfWsI31rCN9awjfWsI31rCN9awjfWsI31rCN9awjfX/Hvsuzgubd2Lm29m5fA+QNzNezjGvWhYZuoPasWMcZ8qTM6n5JljL3O/wDkMjXE/ejZCBgJM94ci5hnZ7logwrMXk3uDwmeo4kITBZ5JYjFGRQjOKmmtWpjmSQ0MEDvitd8f0r6PtTfA+LkDyyxg7qmD47Jnz/+Z4Pk+hAZvc/l/wD2KzzRsaJGHfNvXjcGZQFjDaWS36it0somWyEFkYNzBl73nXTyQoC1gnspkN4Vu6E+WBs0E2DMj8zPT/dGUSOhgMkcuDLK5jxFYSHxtm9N392QLx9KlLHTRWgQB1KNNaZyE6dk7THeEjWFlDyGu5/l/wD2Kc72OITRfV0EetSWyGKR7KvqwueTyNaEwMEz7VgX1GbNXOorRHfZEHyTFnKcwAqpMELRhn6KlvknOpJIjLZw0tkdvGUePjadCfO2Zroi9r2xlmccWfSFNM3PZnFrWt0HlqnCuAsrrormvXfK9KnaHxx2Jr2xuzi840qmPIhx9kQofJY+hIVnY2MTNlbI1uat0VBXxY7U+7qDt9T++61T93go/wB5GagHj4qLE568m9/NCwyfe5g9qtETmckIcG3vv4/uTLBdaOIOanxXP3/HX4vussDn2smS7I2KlDeNDf1KGIyTYg3OBoo41coXX8Jv3SHS8njKfYMa8TbvbrXU35+UmWIxUtdcCAAa0PJyqf8A1d4xvaf/AIgPij3PN5O6vNIvYrTJG9k5I3rbtx1K01hPmiDW4YNBFPJOlxUloZOyVjiHMjLQHN4gTpCkkjuVaHsu5yC+7WqitULbjLwiuGRzvrU8lWd7YxPZDLvhWmj8098QbFMInxBtb2+uE1TLTHDgbvlRl98nPxaAnNulwzjXo3MHlx33U5QHmoUDhgmwYV55b/khPtMU7JnFpwbCGsOp3GpZG4GzyTgMDc7rmjOpZIHRPFXtALSz0aapr2YKKeSsd2pcMJnzqK1QsoyrY7hke466aArO5seMQPe68L12lE91cDZBq3zznP8AZWeoLbAH1Ocl2+zlQgCYSQ1eNMl/TX0q0xh5EuCbe+K0DiTnVkjtDW3uVpdc/uN351L27lzQRrWLx9ELF4+iFi8fRCxePohYvH0QsXj6IWLx9ELF4+iFi8fRCxePohYvH0QsXj6IWLx9ELF4+iFi8fRCxePohYvH0QsXj6IWLx9ELF4+iFi8fRCxePohYvH0QsXj6IWLx9ELF4+iFi8fRCxePohYvH0QsXj6IWLx9ELF4+iFi8fRCxePohYvH0QsXj6IWLx9ELF4+iFi8fRCxePohYvH0QsXj6IWLx9ELF4+iFi8fRCxePohYvH0QsXj6IWLx9ELF4+iFi8fRCxePohYvH0QsXj6IWLx9ELF4+iFi8fRCxePohYvH0QsXj6IWLx9ELF4+iFi8fRCiF2OUOqwaA4cY/jv2XZwXNu7FzbezgLO/Au1eSfSFPDSsEgD2b5p3v8AZcwzs9y9nbG5lPSaovuh9M/oNU19yWI+UONp0tKneWtklLY82hg/P3HPJDRvX6CDpqE595wGd2ivufy//sUVukiM5F8ADQBTNVMcQLKxzWjlvKK2PiE4AlaADWgpmroWErgYMDo06M/9lhnNc+0Cdrh8VwFFLbHSPtEOCJugU9FFf/0wIH0qtup0jvfpRLUZi0imj1Ka2yTEigB3rR9w49z/AC//ALE55GDOenxm6bp9ShtLoZQy5UAOq3TxrDudg7QZqnSa1/NQ2l0Mty5eABq3WCsPI4wPc6rzeLqiifIfGRGM3xcGpra+V7Y3MztAFD6EXVbgjHX0q0byQxGJx06qqOd8U0bLge2mdvIQUS9we6+99d8XfKqpbRJPK1pawuoLo+7jUwpLNK6V400rxerdap+7wsjA4a1DJhGf+OQ9jvzWDexww9Q4fR90OvULjX6xqr2cwiK76DVWKQ++SNwbKfu7x31NSv58CIqeg1qi+mBlEnpoo33SW3ZG8T+T7x7nm8ndTnUD7NFn+4Ka1yTYKoiDgBdrm4tJTnktkv1PHvzVS218pia5rQWgZnLCmgpvqcjryjtr4mWge+sAB4qZq6FhK4Cz4H06M/8AZYU0kmwlafTvqC1vgdIAJKAGtPTxq+510UvONSfTufr98q+XiXMa/JpQN+5Ot73ss597YWjkpnTjebK+Rzv/AGGtE63zPZEKMYc3SppWFNHlxvU+U68orY+LDACVoANaZs1dCwpOLxOj0abyYKsdEYpdVM4KcaiSERFuof8A5T7TLJDCaxROpRpHbRRWqWHC/vQym+9egqJlLPC8Pca/I8kfed351L2/MXW/u/x37Ls4Lm3di5tvZwPm8ndXMM7OC/l//Zw38v8A+z4Hqn7vD6p+7wXm8ndXm8fd4b6/fPwPzqXt+Yut/d/jv2XZwXNu7FzbezgfN5O6uYZ2bh0c7YwSDKYzczZtIXx8GJNVCaKKpEbrpd8UnVuP5f8A9nuGt+UOu/8ADhP5f/2bl1ayuLW/cK+6U5rwJTSNtKud9wWdmD/eB4ulnHnTS8F/7suaWh/1aq6WuikLHA6t3qn7vD6p+7uHtcauDQGipJKpIyQNvXJGFhp96JODd5ObfHVRUIqNB0+75vJ3U80ayyscfuasC+MHQH6SOXhfr987llaXnNz/AETT3bpL5Lx9Abxle+Xb9wy3DcvVpSqdfdIRW4xpc6nLmTDfilkDLw4q8vAedS9vzF1v7v8AHfsuzgubd2Lm29nA+byd1cwzs3EbYWxSSTtMjiSaFxrvVZJAz9ntaXHTQOOb71FHg7m8dH8hw0jcfy//ALFNO8YNzC0B5bdq3ysymc+rop7xBoXCg7UyZ4ZHaY2B5dUxsfSunkUD3lksMhkaXl1KaH5+VYaTDB0We8aXXOpdonRvOBIDCJ8Fg975SlcHSXBeINa6827/AJf/ANiH/wC4ivwjnRvaD1qks0rIS4sEuDYfpOPpT53VFuMd8Oz3W3uNPe9sEdnDmMDyLxJzmupR2x8rMO8YS/U+Sc1QjLK2CMRFt11XNwnEC5XDGyWzucWGXCGo+NqV57pX2N1SXHQmyNa90VIC4cd1PdftFxjnyjQW00U4qBQuBJtMbmUPxAM6HyICfTn3fI2cno8Pqn7u4YAXY5DQHNnqrTg23IntYxhJ8rjJzK1XXWUAsZzRJzOPp3Hm8ndTxW5Y2uHpDEyOUmSr8E2S4HUGe8Sp57mLTuwb718sIzjPxqfNaa3Hs/8AGBoH36eDjNJBfcz6zXkhXqQWazVzfLkFT6goxI1k7iCZJr7pARWpCBe+aOW1YIVNG5zxIW+TCSN45K4bNyFNkfhYppHM3xoPfNFNaZhXPhjFSZsGyLjqNamkdv7LIX3TdvaORfJscYZ6LxUU0brG2mEhGa/R2iqeaF8ERZXkFaqvvZtMroj9+an38By2qWnr+Yut/d/jv2XZwXNu7FzbezgXaHAg/erS67NCfeyf/kZxU3EbaCpPrzq775duXtWlNZR8lL55abj+X/8AYrTDHJfkDmfc2mdYMViBDPogrBj33y6573EobOxl7SQsGMG2lG/VzhTWZj3cqAoBoG7/AJf/ANikjDjG68yvEVPAH3dCZCA1j77QOJynga+miqEQAi/d0+KnRA4UASV+NTQorO1rqEV9KawYO7du6lOBO2Pybw9XqUMLWNOmg0+lRWZjHnjARfffNIXk0p6B926keGtGknMgCII2YKGvx+U8PA29JZX36crfjBQPvNP9vT7sja3XB49I9wRDA0pc1Jo3rRQe75vJ3U8Va6zRgj/ipoQ4M8nUm2dobfD7o0XhxoM98c26TygcH9fvlRRhoe4ucOUlR2VrXg1B5ExtA5xcfS7SorMxr+UDsWCGCdWrfSaqWzNc/lKZGBgmlrNQKa+65jXMdm8pp4likd+ta04+X0qeBr6aKhAhkTJGuLAPKDeLdtN60PzRRjSSU7ywKu9Jz/MXW/u/x37Ls4Lm3di5tvZwVohDqaDoI+9R+ErawcglWV7ftVle37VZXt+1WV7ftVle37VZXt+1WV7ftVle37VZTtuEpdvYTPTkWV7ftVle37VZXt+1WV7ftVle37VZXt+1WV7ftVle37VZXt+1WV7ftVle37VZXt+1WV7ftVlO24Sl29hM9ORZXt+1WV7ftVle37VZXt+1WV7ftVle37VZXt+1WV7ftVle37VZXt+1WV7ftVle37VZXt+1WV7ftVle37VZXt+1WV7ftVPJNaSNGGfeTRQDQB8AbfhkOl0Trqyvb9qsr2/arK9v2qyvb9qsr2/arK9v2qyvb9qsr2/ap3hW3FpFCDLpTfCtuDQKACXQsr2/arK9v2qyvb9qsr2/arK9v2qyvb9qsr2/arK9v2qyvb9qsr2/arK9v2qyvb9qsr2/aqPwnbWNGhrZKBZXt+1WV7ftVle37VZXt+1WV7ftVle37VZXt+1WV7ftVle37VZXt+1WV7ftVle37VZXt+1WV7ftVle37VZXt+1R8LW8j7VRRe+HS9xvO+Y2t/d/jv2XZwXNu7Fzbez/AG11v7v8d+y7OC5t3Yubb2f7a6393+O/ZdnBc27sXNt7P9tdb+7/AB37Ls4Lm3di5tvZ/trrf3f479l2cFzbuxc23s/211v7v8d+y7OC5t3Yubb2fP8A8HgX2fvZneSz9VL4Zthf9B1wepZXt+1WV7ftVle37VZXt+1WV7ftVle37VZXt+1WV7ftVle37VZXt+1WV7ftVle37VZXt+1WV7ftVle37VZXt+1WV7ftVle37VZXt+1WV7ftVle37VZXt+1WV7ftVle37VZXt+1WV7ftVle37VZXt+1WV7ftVle37VZXt+1WV7ftVle37VZXt+1WV7ftVle37VZXt+1WV7ftVle37VZXt+1WV7ftVle37VZXt+1WWLdtVaZsZsZNC+m/jry8qBzbvW/u/wAd+y7OC5t3Yubb2fP/AOPPK97vX/DnaHtLT96dxAt6Jpu9b+7/AB37Ls4Lm3di5tvZ8/8AW/vfA7EyEsgfc39avcNNOROaA3FWya7xdRBjb2NOirQ3WNBpedRC0wVErBhISd8Lw9RUOCMwivySOBu8goNabCzDY5i8jK5vuKDbOJIRev5yHh2ig4k10UTrRHfLpTvWfmoxC+WO0Mi3p3jr3GFOWF/0NH9/get/e3et/d/jv2XZwXNu7Fzbez5/63974HZbdgWzOvPFytDoq1Q2m49seDcXC9eb+ahtpY/DOkv3a1vGtHBPm39ocHFzG3WtLdFAmWsNtIZce65Vrx6FhquZasYe4jyyr/72Njacl2v5qOek1nYWhxbUOB5QpbXffh2Sl12g3prQAfBNb+9u9b+7/Hfsuzgubd2Lm29nz/1v738P1v7271v7v8d+y7OC5t3Yubb2fPyufk93KFsjqXb2OWjdKyt4Q2yyt4Q2yyt4Q2yyt4Q2yyt4Q2yf4UtwwVqkibSbiasreENssreENssreENssreENssreENssreENssreENssreENssreENssreENssreENssreENssreENssreENssreENssreENssreENssreENssreENssreENsm+Fbfejie4Vm5AneFbfekiY40m5QsreENssreENssreENssreENssreENssreENssreENssreENssreENssreENssreENssreENssreENssreENssreENssreENssreENssreENstb+97hNP13Ot/d/jv2XZwXNu7Fzbez5+czL2t93W/ve5i8DoGGTMHEPow0RLRBijZ751lOiwcRPvVfKI5T7n8wm9ixqPC6LtePkU1pYxx4iVNM1jToJOn0IPZgYblJK6Q5tVBaGPI0gH4B5vJ3VI6jG2aMk/8AFOePfHBrNZKFpZha0u140Z2iS8G3eOpzrGo8L8mqtEscdya42p05gVPO1l7RXjTp2hknkurmPGrK4Oxh5330GeUo7NHgIRU33UL6Cu9VliD5bQy+2+aBreUoRBlpsvlsrUEac3pCb5L2hw9B3et/e9znoe+NzFBWO867U0L82kJvH/b+OfZdnBc27sXNt7P4u0VcBm9JUr3yP4yXHs4ldPScrp6TldPScrp6TldPScrp6TldPScrp6TldPScrp6TldPScrp6TldPScrp6TldPScrp6TldPScrp6TldPScrp6TldPScrp6TldPScrp6TldPScrp6TldPScrp6TldPScrp6TldPScrp6TldPScrp6TldPScrp6TldPScrp6TldPScrp6TldPScrp6TldPScrp6TldPScrp6TldPScrp6TldPScrp6TldPScrp6TldPScrp6TldPScrp6TldPScrp6TldPScrp6TldPScrp6TldPScrp6TldPScrp6TldPSchfHvUmh7hxt1q9Ntn/mr022f+a1v73uS2mYRGaWsQo0eUfvTy9sYsQ8nNnvGnqVoHjEOZx4nDicPT7n8wm9itFjfJaBLnbg61Nf3lTxK0wvcZnC4RGXX23aXcytbHFkUDmON2uDcaUrT1KzxPaHyRODbudw0nNrQtMshijcCcBg2ivxT8A83k7qcKtdZmAj0tUoNPB7XNBPxnHM09FOrHKLU04uyCgbv/KLvaqUcXxgO/8AWFNYnvtDX524OtHf+Sp7UWeU9w9IuKT3oGxs9/wWEfWnkak6N11tvfmcNAFUdDmTMGo5ip4p2yx1wN1riH+imY/erTG4+K4KYtbW4cxrQKRhbFK0XQ8UJaxun707yhCwH1bsuk0v0SOb8bUVem2z/wA1WX97FpledLxylXT0nK6ek5XT0nK4ek5AUAvAdFXM5NTRxCunpuV9zo5Gml41LS3Wf419l2cFzbuxc23s/i+tve+YvG1rm9Kn5e7rf3t1/MJvZ8F83k7q83j7vASNrceHt1Ee7K28yoNPRn4DW/ve4flNd0TXc63933db+7/Gvsuzgubd2Lm29nCsY+ef/wAcYqR6VkI7dqyEdu1ZCO3ashHbtWQjt2rIR27VkI7dqyEdu1ZCO3ashHbtWQjt2rIR27VkI7dqyEdu1ZCO3ashHbtWQjt2rIR27VkI7dqyEdu1ZCO3ashHbtWQjt2rIR27VkI7dqyEdu1ZCO3ashHbtWQjt2rIR27VkI7dqyEdu1ZCO3ashHbtWQjt2q0eBpWs4yxwk7FBJeb2bnW3vfMjW/vbr+YTez4L5vJ3V5vH3fget/e3et/d93W/u7qzQSWmYaRHoHpKyEdu1ZCO3ashHbtWQjt2rIR27VkI7dqyEdu1ZCO3ashHbtWQjt2rIR27VkI7dqyEdu1ZCO3ashHbtWQjt2rIR27VkI7dqyEdu1ZCO3ashHbtWQjt2rIR27VkI7dqyEdu1ZCO3ashHbtWQjt2rIR27VkI7dqyEdu1ZCO3ashHbtWQjt2rIR27VkI7dqyEdu1ZCO3ashHbtT/Ab6fRlDj6lGSHt8uN2ZzeD+y7OC5t3Yubb2cINLWZvScwWmWQXpX8Zcf4LGKRWyrZBxXxoP37nW3vfMjW/vbpranH56DlVojkN1zwBhN6KOpdA9qfZ3x4RpdE51N/TsUlimjifJg2yuzZ/RrWKyObA8CRzeIEVqnWZ8bZml0LyRv6Z/uWLSYsHXTPmpWtNGmnD+byd1Bl+5ZWOu8tGpjb+NEXfRSpP3KSxTMhMuDErs2f0cmtMsz3YJzQ99RQBwrVNsUxge662YZx6aDPTWjBLM2KbPSm8ZdHKoLJJPhG3xdzNp6SmQvdh5MHc+MHJzDFfc6WRtf/AB8WZT2+1wsa9obg63ALoznMVFaXMZgMLJIPLI0DOnTEzWQhzJNBOa+K0Q+OxrvXu9b+9u9b+77ut/d3MRpJM9sTT9ZRNzDSeU8p/hMQo+J4EtPjMdmz8H9l2cFzbuxc23s4T6nfC1cPFPV5rTMaGmmhUk4DhpzEhteU8SmloSKgAEmnLmRnbg3+SeX0ITViZ5WbOPSE47+S9dH1dKbP+9zNzHTyaisG4YOlHUOf/wC/78P50Ozc62975ka397dfzCb2INGEklkc3PxOfVNG9iMl7/k2ikssbpWTte+0mSpc0GuYcSpnnvYP74w1UzQNdhM/KyiFihkbf/fOkd5FeNvLw/m8ndXm8fdUlMFEHMs31Xm8fyT7KySQTh5tJkzlt6uYcSeN7M9t30BgCbHDgozTDE1qz6vKqfv3uLPvZRGBs8cdmbG6EyXQHjj1pzGAx2t8jg3QGmuhfEq6F/8A7PJ/uEyKF8cgIY8updBHGKZ1ZqSOhgwLmvNL7fTyqahtFpzBrNAJFxoX/jja31Dd6397d63933db+7ufP4fbw001HaaUJoOU0TX1L2X20428qdLRkL7jyeIqKshjzFl0gg6+RSOLcJ5LS03j/wAdKw4wRcG3tZ5VhqkGhaGku9XJrTphg3+SflV5Fhve2GjjTQdGcJ01GF5aHXTnIFVZnhz4WElpBBB1goSjCFtdGY+g8adaAHA0PIDyE6FJJR4aHXaEmh9CM4wTvJdy+hQvrdzOFKEekHhfqd8LVwX2XZwXNu7FzbezhPqd8LVwzRV1DQa08WoysnbhA6K4yP0UCksEs7pJ3PbRtWvD+U8VE+zSPjkgY1uDbeultd7m5ViT2sjv34WipZfHlUCZC9gnYwRscKF1zjprQs0zGNZNUvbTOQEIXCQFhu031cInRvuzsiuPu73eA1qeH86HZudbe98yNb+9uv5hN7Pgvm8ndXm8fd+B6397d63933db+7ufP4fbw0lklmE90sLG3q0bS6jZHhmAdG5kYvYMmhGhT2OffW0vDY/LGYUcFSSRuD95c9lx7s2cLATGLAOjc25vozUZ6LAPaJrfE8RkZ7ooKkLB5jZmC9TWUBMwQyT3wxtXtDiaGhTWWl5mfCPfWgF9xwzgBCIyXZ63W6czeJMglax1jwTQ5tC92fPRNj/dv5PJGDKNjlfNI6W667vXXzmcSnAmlkjbfppzmqa2VuBtUzi1jd8GknOAV4yb11t6ZoZepyAU4X6nfC1cF9l2cFzbuxc23s4T6nfC1fwXzodm51t73zI1v726/mE3sTXAjlHwTzeTurzePu7kOBpmPuveG1cGivKU+eNruQuAReA3TWuZPeA0kCvp4DW/vbvW/u+7rf3dz5/D7fg7tMTqt+8U+B/U74Wrgvsuzgubd2Lm29nCfU74WQ+L/wDqGLIf4hiyH+IYsh/iGLIf4hif4Eo1jS5xxhugJngSrXtDmnGG6Csh/iGLIf4hiyH+IYsh/iGLIf4hiyH+IYsh/iGLIf4hiyH+IYsh/iGLIf4hiyH+IYpfA1MJII2+/tzucsh/iGLIf4hiyH+IYsh/iGLIf4hiyH+IYsh/iGLIf4hiyH+IYsh/iGLIf4hiyH+IYsh/iGLIf4hiyH+IYsh/iGLIf4hitNgxcC0ihwgfX1bnW3vfMjW/vbr+YTexQOaMNJaQbwroJKklhwtnIpI7eMo4VqdKfMJhgDIyQRlmjSM+lX4TjQDfJ8gkVva1O5sj7M5ga6l29hBmqnTsnbKHZ2xllwjPx8XD+byd1QmkuKsuem6oTR0wvy6ms0j1rGYZGYe46KNhN1pNPL5VhWNggez4tSatqQmuhwUhrgiM4Zy15VZ5I2iOYu3zb16jBm1KO0xQNmiv52l7zXPQNCZdbNJaDFJUZs1VNLfLBLK40u1IzDN96k8FwWhhdeq4i9dDaZsyLQbMLJhmM+KSTTRqTf3TM8Y+SSy92o6XxMcfvG71v7271v7vu6393csZecLbFRuipz5lkP8AEMWQ/wAQxZD/ABDFkP8AEMWQ/wAQxZD/ABDFkP8AEMWQ/wAQxZD/ABDFkP8AEMUXgauDkMbvf25nNWQ/xDFkP8QxZD/EMWQ/xDFkP8QxZD/EMWQ/xDFkP8QxZD/EMWQ/xDFkP8QxZD/EMT/AlGsaXOOMN0BM8CVa9oc04w3QVkP8QxZD/EMWQ/xDFkP8QxZD/EMWQ/xDFkP8QxZD/EMWQ/xDFkP8QxZD/EMWQ/xDFkP8QxZD/EMWQ/xDFkP8QxTeCsFGbtX4Zrqb4cQWrgvsuzgubd2Lm29nCfU74WpSOoxoqSobUxzuTjQkF2NzmvPIW6VE6rDoK83k7q83j7u5jdUBxafSOA/mEPt3LzRrRUnUhoPu3t9G0OfyCqhtLHuHEFJaWNkPxSVXfll8axo3XnQ7Nzrb3vmRrf3t1/MJvYsKTi7pXDNpwlfzRlcMYMbs3xTHoU1tdK/AmLO0AUPoWE/0pBGbyqC6nuJFqu1HJdFMylt8stBRrTRo++mk8P5vJ3V5vH3UHk4TQD8TPUgekoW6QWdsl9sd0ctdKvVwzmmnJRt1Nt0ws7HXmxDN91Rxalf/ANQ4k6qtuqC1uikigEJddBvNHpWHc7BTulqdJrX81EKmJ5Dh9B+Y+pNtsscc37xgp6M1dChkdDJC27G5vJyEcYVnvSTT+W95z77MT9wTfJY0NH3bvW/vbvW/u+7rf3dxZo8J9LQwffx/cpZrxNvhzAUaNOj3ZLWxrxmIOZYQXpq4P6VM6EgMgFS3kCtEwZe0VTLQCxhAceS9oUj6F5o0cZPu/wAwm9m7kdS84MHpO683k7q83j7u4OgJhq1wqDq92vvly/8AdoUdqY5/IDp9CmtDGOdoBKLt9KCWchu7r6nfC1cF9l2cFzbuxc23s4T6nfC1LmisTMLIXh5e5zanNoFKqWM5Pb4Qlw7gc5qe6ONNpdpmovN5O6o3lrxZYqEegJ1pfI20MkvA0oCynk0WGdhcLS9XP++p2JlsfGIMG6MDPnuV4+JOtT342ffIzS6Lzbwu+hR25zMDPOWMFLuY13yGMsYbM2UiFoLqu9PInyPikdaywuLaFzKHPRX3PoPKdpO5/mEPtQecEJbkreKj8wP3FY06JjpcFDvb/k72rRykpz57uKmWMzUDwfuWNvMtsMDbxpSO8K5k+2umjMDroeN8M3KE61OeJxdew0uijK71Q2q0SsbOAd4Gw3b1LufT6UbVI2KF8JDG/VrT0KWlH2uRr68jd7RSxsZZ2ucyAx8pGh3IpdLpbRhT6PyR/eZm/c6PdedDs3Otve+ZGt/e3X8wm9nwXzeTurzePu/A9b+9u9b+77rXXZGG8w61irK/aZuxYGEf8yfYrcGXa72pOC/t7UGwU9JUoZ/r4aXfv92OwumvWjlaG+SNNVHR9oYydoqc1SOwKhxm9S03vKvqFge+9LRpNPiKeBrHB8dGtdervwrcylru1iFatEfI3Xy+7Sty2Wh1PQneES6+0GRhAumo+LTQsKb7JJw13JR2ZYSdllwXlwgOo/lcORR21wY6zGV0zBQv4s1dCxy9JLaMHhroqG6fWjM+drLIZ2XqVFOI0UludLhbXBeaaXanPvaKJ1qBhkcyJsbAWVA+NXlUjLrywFzeQ7jzeTupjjSFkLpAONlKFYzgoIWYJjtIvaS6nGU99ofHLE53v4ANW8Y1J1re+WVrGCvktvupVOt75YzE7evArXlBCxp5EjoYjHmu3X+1QWqd+BdoYwCJtNLXE6ULVJFFi0b7rOUnWn/KYz0NDFgmNsMc8dwx+VXirqUrQXGe66vyLooid8y0x3fq3rvZuvqd8LVwX2XZwXNu7FzbezhPqd8LUn1uvFDT3KVbK973g5/L0phcWt0XjXMvN5O6pK3H2aKtPQjW/EHXf+a98uvdfu3zdBrWoCz1tAF/7hdzLPSzUufcLudVluyPLpGYQhrieUKr2PaLofG66aciY0gQvvtz8ev17r+YQ+1SDevFCi04JoFM+fNx+lX5XukjwbnPfeJCc0mNjWgZ8+90ZwqyPdO26973VdRGvvBqz1UV6a4XX8Hf3odWtQE2t6Ytvf8AEUTrrrPaN8W/SpR3rV6V5Z5F95cGehOa7feW0OIa/wCsEaYGBjrrfpuzf2G686HZudbe98yNb+9uv5hN7PcET3yOF43dDW1pUplmmcyN9y8G+Ua03u6dWsri1v3Cqf5LGlx+5DjFeC83k7qOgWaPuphq1wqDq9w6Ar1Ygy+DyqRr8I8VETRed/ZNcXRA0zDPWtKUWLWiOgrWSMtCjstpLXOoH4I3eSteRESPLBV9xhdcB5aKj5BMd5g23iaiqNmna2PSHsumnLnQ3et/e3et/d3dmkwX0NLPV+SlhuEW+HODVp06PdbWsr77vTSidW/Bfuf8xQqConfCW0rQOI0VUjnOks7dNdJIoaqSt0kaNRqnVD4nXmOGY/8A493+YT+xDCHB/u2ueS1noCdhKS53NDzdry05VelY+7cJY8tvN5ChejwTbsbmOLS0IRm5ev6TevfKryrfvdIKPdI68SFel96e10bTISG3eSqJkbhP3jWPID/SEBQAUG483k7qeKtdZWAj0tV0mE1rU5zXOsJM97WloL33syLb0V27Q8irI97m3Lz3XiG8gW+uwOY5n/DQi6UNlNXsa+jSeWiFb2DbH9zULuCnjAkaflNzdi98LYzWNjpCWtI5AnBwc4UfccW3xyOom3W2eB167rb5Pq3X1O+Fq4L7Ls4Lm3di5tvZwn1O+Fq3Pm8ndXm8fd4X+YQ+34F50Ozc62975ka397dfzCb2LDyY3e0XzSt793dT4tMDH6TpcTVRi64z0JryTUVpnewQXLgDyy6KVvppfaITA52aW5hSKaSORSOqGym575hC0fJJ1J2FrLKGtbG65e1EniTatwODLBfwmDv6c+pRTPN9zyQXl17e+VnUs8gnvSt8s0bR1LlFI59wWOI3A4gE1PIqOEjJntbLjFwR0OYUTvfWts4vwxzXHsPywONQyGaPA1MDpcHI8fKzaVG6Utzj33ysx4915vJ3U8VbijP7NULHXJzWW7JcvG5orrU8mBgaGub79hHQuH91bP3+DDDFoutpUdJMbvZJLOZPWKps+BvWPM6m+8rQKqe0hly1XcOAN/dOYp9pMzDBhLxAvMz04lZ/CGHhMjIwyjaODj8WnGrJao4nt/e1GfR/ZMndZSB703MSc1ONTy4VsIphaUqHN0HWEf8AwM7N3rf3t3rf3eA8/h9vB/zCb2cL5vJ3V5vH3fgP1O+Fq4L7Ls4Lm3di5tvZwn1O+FqRbXBsLqehO8GOYx3x8K00TwRdldGG6S5zTSg9KkjwbiM7a1ovN5O6vN4+6mvBppz6FfbdPHXMi8AnQKp7g0a0TmQNQhvsM54qDouCqvC9ybn+YQ+1XhU6ArwqM51JsjS0cYKDwc1fWmkPEbS7MeRAitAacYqsI298mudYRtagaeMq571ZwKuGcl1KkBTWOSHDVwRcQa0z0NNBTLNLJDCSJZW0o0jtoqDBzxF0b+UjPT1bo6Daaf2UbsMz5L/K+4/ms7ZONjsx93jc9gHS+ZGt/e3X8wm9ixWPC6b1OPl9Ku78tDSdQWCGDLr13XW92qezseRxlSwNc1vkjk9HIoJZLMxtc0VBWvLUFWiWS0tNDSWmanJQBRWdrRIKPHLTlUdlY1zTUEKSyMLnaTTSms310MrqCksrHP5adqms7XuGaqls7SI/I4qKNga0aAN15vJ3V5vH3VizMETeuUzVQs7bl4OI5SOXlVz3y7dvalHGI2ycnEeVWqNspaPKI4/YsCzBaLlMyggayumiZZYxJ8qimszHu5SFJAx0Y0Npo9CgpAx+Y3RxcfrTRQAUA3et/e3et/d4Dz+H27gtvYNtaK02J8GFNGOvNc0nTxKQXWwzPi+sW5s3pT4sGXCtw6RuD/8A3Cf2Jr2k6aAo73By4POdJpVOcAOUouAqaBNcDQ0zIOFRpG783k7qLgCYI6a96rwvUrTjomPa6mmhqmvac1cx4k1wddrWh5FoMkYfdrnoUZGhx0CudOkaKcp5UG72KIOkdyF2gKWxSRRTODY3uI0nlHEorLLNgv3pbTe8fHpKaKw2moD+Q0qN19TvhauC+y7OC5t3Yubb2cJ9TvBalzD+xPt8kjbnkFraaNSDsKILVN7zT4l7fEfSUbqscKgrzeTuqPTikdafJoK/2VjuYbAn91Wl36VPar4wokiY5nG0tfxpxgn8jCQy1ZI2n/jK8IBgZizMCJOTPe+9f/T9/wDvK0r8Wt7iVj/0tY/I0c5d+5WLBaJb2D0eRmqpZbJHaTOau3xnD72alNz/ADCH2oabNJeP1HZnKaK+LXMMxJaLlbrakcSjfBQ2KrhAN5Ue1YNojkNnNqdxluv71Yrt7FjfwfkaM2pRRhrjVrncbt5x8qibZ4pG2vMKl05cHcfInxhzmOhu1z03mkJ9d5a5XOpyf/hQ2wWm+XDB1rgmkeUKaFOQJhJNRh0yX9FPSnZpWuFR6I8+6ad9jOb1LGhs0yQTuHIzM0/WrmUltBP1K/3WNDZqWZ0hb5IOYD7vmRrf3t1/MJvZ8F83k7q83j7vwPW/vbvW/u8B59F7dxzRVqtTXtiIeyNjLovU0nSmOwmL26ZzYKac+++/kUTqseKjced2nsVmuY5hIq08v6d7UpIg5we6hPFRg0K3lhidYgWYTycJmrWqj/0x8KMEVPk1z01VVjjawvsDnXQKC+05u1Ry2Rkt9p3l4yu+UHbvzeTupg98s8UMzP8AiNHqT4zJG8YONuisbc39yon2bfWd15tn0cVK8pTI989jMM8eVcvb7+ysdzC4ua4LybuumaqZGBKZoKv4zfzFBsEUjJNLyTM5zdF3kCmja+ljiO+FRUko+UHsdm5LmZQWzD3pmXbMTo5TQaCNatMgYTNhW3vjNI4uVPbSQ2qItHJV97s3X1O8Fq4L7Ls4Lm3di5tvZwjtD2lqtzhHPFvWk6Ht4iCszmn7/cDQExoaOQZl5vJ3V5vH3U2NrSdNBpWDbn05uROjaXDQSM6ewOGsVRaCORNFAOIJsTBnrmHGUY23hodTPuf5hD7URUHSFdF2lKcSbEwClMw4kBm0UTYmhp0tAzK6N7o1Iwsq7SbozoNFTpPKmk1lDQ4cW9401jRXTQItFRoKJJc1hY0cQrx+nczTsYNZQiOL2drhZ72a+48foVpkqP8AxszN+/lTQABxD5l6397dfzCb2KWaNk0hcAyvI66FNaGMJ0AlSTtbfBLTygI2uP3zyc6nnYyuipTHBzToIzhTytY3RnTZmYL5dcys8jJGPY8uI0i7RRTRvmYWi5XldROtDRJea27x1doWNR4X5NePk9KltLGPPESp7Qxhdoqgag6DuvN5O6nnets0fYjIGM+NezUPIhaGGOtC7kJ5U5++ZHfI1KEb+gAb9N2gKJjH2jBX3ucbrGjRVOstycPDLhNRUuppVpxe5TNgiTn+9BllEL89Kuv3aqGzR4OJtS6R1L31aKzMZftOgSVoBdvcSeIMKwXm4OpBAznSm+S9ocPQd3rf3t3rf3eArRxztPI4K0nA2tmZ7HZqnlHuuAIPEfca0Cpqacqa0NGrcVpfttobX0oBpcyNrC+lCbooro32nWjG0s+TTMi0GmcfcrovUpXjohG2+dLqZ935vJ3V5vH3UGgN5OJMhY30CmlNAAHEE2NorpoNKuNo3QKaKJ0LC6lKkcSDRWlKoE3zHcI4iNKDGhx0mmdFoNNGpOJrFeujiq7j3MkjWjlJooBWyRPD5peJ1Pijg/suzgubd2Lm29nCzwteNYWK9dyxY9NyxY9NyxY9NyxY9NyxY9NyxY9NyxY9NyxY9NyxY9NyxY9NyxY9NyxY9NyxY9NyxY9NyxY9NyxY9NyxY9NyxY9NyxY9NyxY9NyxY9NyxY9NyxY9NyxY9NyxY9NyxY9NyxY9NyxY9NyxY9NyxY9NyxY9NyxY9NyxY9NyxY9NybY2k/Sq7t+Z2t/e3X8wm9iDN/h72jPXDaVaYnkTBmDcGF1QBS5mUrDVjLQaH4uig+5NiAq99BT6AKfO6NjrKxofgsJnHxUXkBznOAkAYc55ELoZedW0YPC4M6uSqa2V7G29shYWUL2Zid6rO1wGLSNwhYRn+/kWLvFojcy8LhzEOzurrV3OTCAf+CmnlEuE/dtgz1veXe5Naiv4Z4bWGSHCRz0HxaKskM5s4bQx4SJ/0M3GnxCNxYKsApTdebyd1DSbKzuphe0WY3ZverxY4NpW7qTsJaGzXY6GK4JTxXVOK2lzA7Cab4pSlforfDFpIMM0ilLhFVa4nPszrPd0FzbwPxgFNY5JLPhyYoSN8I65sysURZZsBv8AeljS+vFX+6sVhfDa2zNvC4RdbXPePIrXHO27+7LQ4h9eSntXhKx4Sg31GVwebjATWFli0xNcCPi76gPEU7SIWV9W71v7271v7vAz2dj6cZGdYsem5Ysem5Ysem5Ysem5Ysem5Ysem5Ysem5Ysem5Ysem5Ysem5Ysem5Ysem5Ysem5Ysem5Ysem5Ysem5Ysem5Ysem5Ysem5Ysem5Ysem5Ysem5Ysem5Ysem5Ysem5Ysem5Ysem5Ysem5Ysem5Ysem5Ysem5Ysem5Ysem5Ysem5Ysem5Ysem5Ysem5Ysem5Ysem5YpX0uJTGBrRoAzDg/suzgubd2Lm29nz/1v726/mE3s3U1mjkI0FzQe1QxMjbWtGinZw3m8ndXm8fd3DxVrhQjUU3Q0UH3bqVt5hpUejPwGt/e3et/d/jv2XZwXNu7Fzbez5/6397dfzCb2fBfN5O6vN4+78D1v7271v7v8d+y7OC5t3Yubb2fP/W/vbr+YTexYtJi1+5h81K1po00Qssj8XLcIW8TXCtUbM9kc4OBkNN9TP8Acn2KZkGEweGdmz+jk1qJ8jXxSWcVvZt9TyeT4B5vJ3UGX7llY67y0amNv40Rd9FKk/cpLFMyEy4MSuzZ/Rya0yzPdgnND31FAHCtU2xTGB7rrZhnHpoM9NaMEszYps9Kbxl0cqgskk+EbfF3M2npKZC92Hkwdz4wcnMMV9zpZG1/8fFmU1pvMkZKcGMzWhtKfehaXXs7xBQXLldH6qO0uhiiiY8lnlFz9GniTnnDWG1UcRmvhh9oO71v7271v7v8d+y7OC5t3Yubb2fP/W/vbr+YTexYlC9t7986R3kV+TmzqmadrcH9zKKn+nAwmzup1mjklwt7GHSZyL1cwOhNaPf32csz/IpXs+Aebyd1ebx91SUwUQcyzfVebx/JPsrJJBOHm0mTOW3q5hxJ43sz23fQGAJscOCjNMMTWrPq8qp+/e4s+9lEYGzxx2ZsboTJdAeOPWnMYDHa3yODdAaa6F8SroX/APs8n+4VN4yORrv+VEMHi/8A5r2+uVrSnKrKxjw+NrHxuN3ydBqi4OtNtnz00XpDn+4Dd6397d6393+O/ZdnBc27sXNt7Pn/AK397dfzCb2fBfN5O6vN4+78D1v7271v7v8AHfsuzgubd2Lm29nz/wBb+97htMQI+kEHCtK0QeCW6RXR7n8wm9nAE6dHC+byd1ebx93chwNMx917w2rg0V5SnSNDnaATpTiABpJT3gNzZ/TwEbWvbv6s0HyjoKztk42OzHda39n8d+y7OC5t3Yubb2fP/W/ve4/wNhzjMvvtxh+NrVmhJfijM4HkNBOdQOvB+/MnG8njPufzCb2Js0Zbe/0+DN67X5XKoXxhtmuOAcPKFypClewxWweQG0ub28M/GhLFdhdL72WeWGa+JWORkYwDZS9zb3l6AjghapnOBdnLAG5yVaLj5YI2uY5ooH38wqPSrRLG9rpXHetu3TcOb0KOaPePcGwYN1Xhpp5XKuUcH5vJ3VCaS4qy56bqhNHTC/LqazSPWsZhkZh7joo2E3Wk08vlWFY2CB7Pi1Jq2pCa6HBSGuCIzhnLXlVnkjaI5i7fNvXqMGbUo7TFA2aK/naXvNc9A0Jl1s0loMUlRmzVU0t8sEsrjS7UjMM33ptgw75gb8hz4OgpXl9SkdhoRZMKK6HuzCpCaPeQGlg4ml7ap3lOiYT6abtkBeN/nqB8YqSwV/5NzKKJ0zOOrgbv/JYmem1Ymem1Ymem1YmemFNdBDbrWNz0B1/x37Ls4Lm3di5tvZ8/35n2eR13Wx2cH3A6t6R7+kaq95UbWXfQapj/AHpzrzGfIrxDV7n8wm9ijt0zLOH3sE2g460vaaK//qQAfo0bdWE/0uj6W9up9pmijlllwkVNO+4q6KqC0ugkDLlWgEFvoKFplwkLrzJiauqfSppXSvtDaSPNB6uRS26SXAE3AQBmIpxKK3zRRPeXuY2mk8h0jhPN5O6vN4+6g8nCaAfiZ6kD0lC3SCztkvtjujlrpV6uGc005KNuptumFnY682IZvuqOLUr/APqHEnVVt1QWt0UkUAhLroN5o9Kw7nYKd0tTpNa/mohUxPIcPoPzH1Jlvljjl8tgoejXQoZHwvgbdje3k5DXSrOXSzz+U95z1dmr9yboYwNH3bp50N3us8QQgc+W5eI0AXjXOVaZKj/xszN+/lTQABxD5hfZdnBc27sXNt7Pn+yR0NoZ5ErfbyoS2OXW4OB/srlg66uWDrq5YOurlg66YLEcLM6V1b+lyuWDrq5YOurlg66uWDrq5YOurlg66uWDrq5YOurlg66uWDrq5YOurlg66uWDrq5YOurlg66uWDrq5YOurlg66uWDrq5YOunNsN2RhaaX+NNbYbsbA0Vv8SuWDrq5YOurlg66uWDrq5YOurlg66uWDrq5YOurlg66uWDrq5YOurlg66uWDrq5YOurlg66uWDrrxFuvfq32o2iRnkNpRjfu+Yv2XZwXNu7Fzbez/fL7Ls4Lm3di5tvZ/vl9l2cFzbuxc23s/3y+y7OC5t3Yubb2f75fZdnBc27sXNt7P8AfL7Ls4Lm3di5tvZwTiA0CpJXg6xXo/8AzSm637grlg66uWDrq5YOurlg66uWDrq5YOurlg66uWDrq5YOurlg66uWDrq5YOurlg66uWDrq5YOurlg66uWDrq5YOurlg66uWDrq5YOurlg66uWDrq5YOurlg66uWDrq5YOurlg66uWDrq5YOurlg66uWDrq5YOurlg66uWDrq5YOurlg66uWDrq5YOujDYnamlwP8AdTQugtLdMbuP0Hj+Z3g2yYYNNDM40j/VXLB11csHXVywddXLB11csHXVywddXLB11csHXVywddXLB11csHXVywddXLB11csHXVywddXLB11csHXVywddXLB11csHXVywddXLB11csHXVywddXLB11csHXVywddXLB11csHXVywddXLB11csHXVywddXLB11csHXVywddXLB11csHXVywddS2KCZvGIXEH+6hOpzTpaeQ/Mf7Ls4Lm3di5tvZwVd7aJwH/VbnTRRoFAB/CWD36yva4HlFaEIcfzMY6htErIa/WUbaMYKD+EszNtsbg8fSZnr8x/suzgubd2Lm29nBa5+7w0poxgzp1mniuNvUezSNVKrFZ43uYXsEjaXwORAOIlc1rW/GvONKJ7pHNZaBHoGatNFOJGOSJ7G3qPFKt5QsXnuSva2OQto11U6zTuYyl+RrN62qEcksjm3gyMVNOVUk37rrWXd+XclFIySHAfvGyDOEYZonuF5mEbS8ByK4+5epTj8u4hBLI+INLgwVzFQQGSK0AmubPmrmqfXw30favoD4BHEZrTJ5EQ7TqT/CEUH0GR3+8stjYNWWxsGrLY2DVlsbBqy2Ng1ZbGwastjYNWWxsGrLY2DVlsbBqy2Ng1ZbGwastjYNWWxsGrLY2DVlsbBqy2Ng1ZbGwastjYNWWxsGrLY2DVlsbBqy2Ng1ZbGwastjYNWWxsGrLY2DVlsbBqy2Ng1ZbGwastjYNWWxsGrLY2DVlsbBqy2Ng1ZbGwastjYNWWxsGrLY2DUJorYBpZduO+6ijzcTmnS08h+Befw+34HE669rcx+9CGWV928RG2tBrUbJJRIaMbG2pKdHI3AvuSMI3wNaLBSsddvNvtpebq+B65+78x/suzgubd2Lm29nBa5+7wzYGykj9240DlA2SCMwUijlffpJ9HkCdY5WYO/hXyS4Q1LacuhFvikcj54/rv4vuzrBeVb4pB9UUzpw95dYnxF2tzk6KLBsngbhWSBwfdPxQE6zSTXwcARLdjaKfJrpUdmwvirInsvAOBbnzVRgZh4ZC4wh2ahFNPKpIBBUjAgmp3uffUU1lwDILxzuBLnEUzU4k2y1DZaiS8N83CXvWi3evwd08tAsXL32YvwkYIrvxThvo+1fQHwA53CXAN1Bn8KbmZabOJT9Zpp8C8/h9vwOJt57m5h96hs2HbO1mhwBa5mbj4k0Od7899oZE+4d/n3p1IWQswskBYy/ezNIrnQbvGRShx9NPgeufu/Mf7Ls4Lm3di5tvZwWufu/BI7Kxr+UDR6Pg30favoD4B5/LwsFgdLCyS454dnzZjdHGoYTNRkJDS+60Zj2qGEvfaK3GVpSmmp1KaIsks5aHsBvVveTQ61PYXQ+9FzXh14ffyFRtwrsCwzyE5mVH9ymwOdhLZJFS/U6Tyq0wYN1nbfcA69Vp5FNYMGJ30a6/WmaufWpbFds4kDcIZBXP8a7yKzWTDPjaHP390CvF6UyyPM8wJETt7dppvKexvZJhBGIqg3nHRQq0WXBSiMyN314OA1rBf6h8TaV0YRMsV9tmfR5vUzUrm1qEMMEkF/ytIzZ9HC+av7fgXn8Pt/hWufu/Mf7Ls4Lm3di5tvZwVnuYWs12/W7oGmi/Z/+Rfs//Iv2f/kX7P8A8i/Z/wDkTxYThZmxNpf0uX7P/wAi/Z/+Rfs//Iv2f/kX7P8A8i/Z/wDkX7P/AMi/Z/8AkX7P/wAi/Z/+Rfs//Iv2f/kX7P8A8i/Z/wDkX7P/AMi/Z/8AkX7P/wAidiF2NhcaYTiTcQuyMDhXCca/Z/8AkX7P/wAi/Z/+Rfs//Iv2f/kX7P8A8i/Z/wDkX7P/AMi/Z/8AkX7P/wAi/Z/+Rfs//Iv2f/kX7P8A8i/Z/wDkX7P/AMitGJ4K7vrl+991V9AfAPP5eFsr4BC6UvDnVvMDjUinGiRdlbEG8u8qnNhfLA+U3X52ODyTROZZ4JHua5mBb5NzOK8qtDoWswZaGsqau5alQXAbgZaWVzO+kNaq3eW2SY/VdX81M4CGWztbXSRdrnoja4JqSXgIq1pdO+dXQgyzOMry4TurfoToVjwJwzW32yVzObmBzJkrH2mJpa+9ma8O4s2hTyxYw2Zssd0b1t3iVswYpEY2MjqfK0mpT3w3LNNE4EVq9rD/AGWb397yz72BudMwZMMGBlBPFmzt9XC+av7fgUdL+OxXa6K59K/Z/wDkX7P/AMi/Z/8AkX7P/wAi/Z/+RSCwlrKVu365zRfs/wDyL9n/AORfs/8AyL9n/wCRfs//ACL9n/5F+z/8i/Z/+Rfs/wDyL9n/AORfs/8AyL9n/wCRfs//ACL9n/5F+z/8i/Z/+Rfs/wDyJ4sJwszYm0v6XL9n/wCRfs//ACL9n/5F+z/8i/Z/+Rfs/wDyL9n/AORfs/8AyL9n/wCRfs//ACL9n/5F+z/8i/Z/+Rfs/wDyL9n/AORfs/8AyL9n/wCRW3F9M1zA1+TnrX5j/ZdnBc27sXNt7OC1z933HskcZHXWhjbxqt+10Tbz2PaWuA+9Emk13BtA3zr2r3P5hD7eBz33MLx6BwPm8ndXm8fd3LK0vObn+iae7dJfJePoDeMr3y7fuGW4bl6tKVTr7pCK3GNLnU5cyYb8UsgZeHFXl3X0favoD4B5/L8FbG0E6aD4L5q/t+Befw+33HhxF4No0VNSrskclK3JGFhp96LiIjo5TqV0io0HSvqd8cCa3pL13/jwP8wh9u5fWjntZm5XGm4dURxyGOum8RmzU1oNkZI0VLJG3TQ8aD3Uc662S6bjncgKukPiun0h3GN1rn7vzH+y7OC5t3Yubb2cFrn7vuRtDn4c0BNB5KtODD8VdG1jKkAac5OlWy66OWBkcLuKE0zdLl9z+YQ+1HCudLJvY2PuXqDjPIrxZgpowCH38G2TTn1Kz2l5lMJOAdJevfSzp9vkE8l0kmT94T8ShRmkvxWi0uio8i7d9CcfL8Hsd997OmymjvCkmcH4u+TppjHAxroRfO8LwT7FPIffLGb1DdvnNmzKGR5jinjYx9/O0OpUVPIgwxRmB5dG6fCZ/lAK890kkLKlzifu3Xm8ndUZpILNE5n1mioV6kFms1c3y5BU+oKMSNZO4gmSa+6QEVqQgXvmjltWCFTRuc8SFvkwkjeOSuGzchTZH4WKaRzN8aD3zRTWmYVz4YxUmbBsi46jWppHb+yyF903b2jkXybHGGei8VFNG6xtphIRmv0doqnmhfBEWV5BWqr72bTK6I/fmp9+6+j7V9AfALP4RwDcdlq3BB+f71lz8OxZc/DsWXPw7Flz8OxZc/DsWWKYvg99gGZ74qsufh2LLn4diy5+HYsufh2LLn4diy5+HYsufh2LLn4diy5+HYsufh2LLn4diy5+HYsufh2LLn4diy5+HYsufh2LLn4diyxXGMJvsAzNcFVlz8OxZc/DsWXPw7Flz8OxZc/DsWXPw7Flz8OxZc/DsWXPw7Flz8OxZc/DsWXPw7Flz8OxZc/DsWXPw7Flz8OxZc/DsVoteHdi76OuBmaujN8C8/h9vuNFXYzDSv1lacGwRNcGMYSfL5TmVrDXWRtWNH/iqc0h9z6nfCcZffJWta2N10uPJU8SYLuCja9jMJhMHeHKfWo7a++9h3hkvYXXnU9ukjndJnOEoK1/d0OZPlk3jxcuuLbpuDPmUjs8lhd97t6mSn/9TjbUf8QnSzGARNkDMI7M5xpWuniU0zhfwjXOrQnNy61ZnvcyGJhZV17Bl2nTyaU1pjY8OwgfaMJhM2mh405z3SODxUuNAL2im6/mEPtTj7zJE5j/AKzN8FNhXT2qV0pjY+5eJz0ceQIvLcHaoms39+5ec3NXUr8jYJMI9+/dV7hTNVQ2x0gxyIeVeMe+0ISSCE2N0zt8X0LTpFaqMSNZOSDhJr7pARWpCJe6QWicMq40GfkT3ANIGc/KKmkEs77G7Bvbmuiui76VG4XyIWMFf/kqENJsbr33PFN1rn7vzH+y7OC5t3Yubb2cFrn7vuPZUxmrdRThUEUKdEDDdDbuoe5/MIfap4g8VqFHZ2Na/wAoUzGiggawu0kJllYJOUBYMXJS4vHLf0qSzscI/IqNCbEAGyGQanHjVzfSAB55aJ9naQxlxuoJkDBFxtpmUNna2/md6EwUa0UA1brzeTurzePuqKMND3FzhykqOyta8GoPImNoHOLj6XaVFZmNfygdiwQwTq1b6TVS2Zrn8pTIwME0tZqBTX3XMa5js3lNPEsUjv1rWnHy+lTwNfTRUIEMiZI1xYB5Qbxbr6PtX0B8A8/l9yPwc+RkL7rnte3kroKjBLbVeunkuiqhjvRx5nS8V7kHL7n9P3EZG3jxVzp7g0a0TmV8XTx1QcM2nUr4unQa6aq+K1pp4014JGkA6Fma51d5XPmNE5wHpRcAgag6Duv6juIOBoaHUsKy58quZXhn0a1hG3flVzK7XDOLa8lBVNcCOUJkjXU00NVhW0Db+n4vKsVc6SfyI28mkVJU0ZhfZ/3rTnpmrXMpLLLC2b9051N96eQpzbr4ZbpGrSD9+681f2/AvP4fb7kjagODh6R7giGCpduaimCjWigC+p3wpow9nIVFA1t4Udr9KhszGOPGAsVZha1vU4+X0oM/e+Xr4k+ztcyPyAeKiEDQC8PoPlN0FXd+WhpOoJ1naY2A3WniqooWtYdI5fSobMxjjxhRto0aBuv5hD7VNGHsrWhU8QeBnGpMs7WscQ4gcrdCmiD2602Boja4OAHKONFgv3LlfoniUdla1wNQeRRtoC4uPpKfSSF0hc1hbmaDnp61BA1ldJGlCzRiX5VE5950ga1ubyWt4t1rn7vzH+y7OC5t3Yubb2cFrn7u6/mEPt+Bebyd1ebx934D9H2r6A+Aefy+5DaWRNxnPvLzvJGjOoZnRj31t8eV5Of7ypAGywaKZr7OJ35+5/T9xMEEUkc2lxLpy5vGOQLwjg7mLswN/Rx3vvX/ANP3/wC8rSvxa3uJWI7zGor12tK3h5P6KCJrMJY5KhooCQRRNkBkEtna5vG26eNOZ75HISx3G0tYDmUMYZfglD6fGoAc63mPYR1z/wAl+9vaK04pTAsweMaKcd1SvE0fv1MxoRxeUmtAaBQAcW6/qO4ov/3sQaz7Yb3sKMUHvcBpJaCbmvNxlON+PH3NHIWi9/ZWtkTbOLP7y11Aytd996gBNmM76A1+SflcSwFYA2E4Ju9G/FDoUT7PR9ldebB5ObRXWo424R9kdedTOcydNgmTRhrJOTe8qhlxjetOG0uefk141Znhz8YZKQPiNZpqh8iAO9Ofdeav7fgXn8Pt3X1O+PgX8wh9vwLXP3fmP9l2cFzbuxc23s4LXP3d1/MIfanFoZI8hzncVG1UM7XtGmh0elQWlj3DSArS9kQvvb0XEexCdpirS9rOZQzse5mkAoWqMy/JqpbVGx/ITwXm8ndTiABZo6k/VVnljkEjnh9Doutqjao8Lou14+RT2hjCdAJTZI7j43O1mlM41IWuPyL+niUc7SxvlHk9Kgna8t00TgAXsBoOB+j7V9AfAPP5fcDQK5yi0VGg8iui8NB4/c/p+4jCwuIoTd4k9jXDkIqi0Eciwbbo+LTMroroqsG3Oa6OMK4N95WbT6VdFW6NSETARmBonsa4axVXRm0at3/UdxOaDQ1GpPja70iqEbcxqM3Hyp7A4chFVdG90aldFXadaZCxtOQU0oNAbyIVdGK0vZ83ImtAHIEGgE6daaSTJIXuJ5TuvNX9vwLz+H27r6nfC3tHTsY4niDuNQTtfTTQqK0sc/kBU7mxsitD46/VNEydpib5ThxKO0MdI3S0FG1R4XRdrx8imtLGOPESpZ2tadBJ0+hX2YGORjWvGet4D2lF2/cCQPQhao8L8mu6/mEPtU8zWV0VTnsEUUzmB9c10AGv91BOx9NNDoUdqjdJ8kFTTxj317ARWm99PGja47rtBryKedrA7RXjUV17J5btdVCc3Ba5+78x/suzgubd2Lm29nBa5+7uv5hD7U6Iva2epAFeJWaAvixUNoWUErxXl0psjnUEjXAQ4JrN75KLQ1uMT3pjHfwe/NKDXyqj3MfbITvmXb1SKmmZR70mzTNveqiksL3TsIq3B+Q75dSp55BhpXFrWwX8IHDiOpEk3Y2jPpzDj4HzeTuqNpccWh3o+MBSoUETqMwoc4sLabzyc6nmlwj5XVjbBUuq7yw5WuN72zMYIzcvVAFLiZZzEzFpt4RS7oWCzi0R1zctSVHZhITDBvCKh2kfemzOk8We0uwWDaNG9CP/AIhwP0favoD4B5/Luv6fufAv6jufAvNX9vwLz+H27r6nfCwZeBaYyWgVqArNC5zGWVzXEtLQ91czc6DjfbOL0bYMGyKukLBC7lKWr3R4TBivlUTXSSB8UZDnMu3jnzgZkxtAMK3NyXFabG+W0YZ1W4Ot43vLqc1FJM5jZrt2kGEvi7S6pmymBlneyrmZ4yaeVStFDZ3f6iORrKUJDaO0a1CHhuAmo8tIzmnKpJpRIyRvvQs/kkHyr3Jr3X8wh9qna7Amz3GuDS6669q5VFE9jcpYS5cqbmY+T7FFaZHyYq6ISYLBtz6PvCFhfho2gZ4/3ObjJTmf/VJT3lghRwZxaasT/em4m33/AAWEdWnkDkV11G2+TSKUG+4LXP3fmP8AZdnBc27sXNt7OC1z93dfzCH2/AvN5O6vN4+78B+j7V9AfAPP5d1/T9xT3zgp3CrYyQxn0qLfPMgqxsbbxI5VZn7ye0tYc3Fn/JEvzPDC+6bgceIlESOexoddY0uND6FfJZJ5FASXV5AsJdEWaQOFC30hC+2Sl669hYSOUV4L+o7idfc4C84MYXXRymitD6mR72i62pdvjSgCvFuC/eB4ulvpCbfa+7eAewtqOUVT3vkfNGXNIZndd1BAvLM1X3DdYTxOPEn3y4NvOuMLrreUqN4MU0L3+mlKdvBeav7fgXn8Pt3X1O+PgX8wh9vwLXP3fmP9l2cFzbuxc23s4LXP3d1/MIfb8C83k7q83j7vwH6PtX0B8A8/l3X9P3Fk+STDzPMZFKGopnrxKk7oGQXX4v5V/wDJGzvbTwmZKHPRmfPVSWe1SSXjg7ppDcrm0aSiw3XRRAH0VWLucYJJ78XHR5OcVWKOhN9pjBdRz7prn5E6C1gRscL87xpPEAOC/qO4hZJJm2i5dLKZi0UodSwcofBJNfjjN11HE5xVNgma+S5dw76ufg8+ccSye+NgYbz5CNPIKaU+IjB2aQO1E0WBN+SecsFNNTmTorS+AsGCEBugnjvlOicMHZpGv1E04LzV/b8C8/h9u6+p3x8C/mEPt+Ba5+78x/suzgubd2Lm29nBa5+7uv5hD7VV+/kcMxoPJOnlWKSYJkhZI/NvaGn3rA+8iNrq1HHXOsVlFne4NbNmpU5tGmibZn0ifde+ougUrVGyytglcGxzGmcnRm00KjscsrYnBsjm0zV1aSnQe9MaDWozac/3oWKa5cBbTOXHkARsb47RHHhBG4jfDlBU8DjLLdDGtoS8kVrqT4XRTR0vMdn08YI3Xm8ndUnkss0ZPRTrPLAHmU0JFHi7qWLS4s19x0+ala00aaKGyyTuY0OkuU3oPp41SUYSGR1073RTyhyo2OYNnzRnNnf8lPssjZYKXoxvia6KU0qWyyQSYO+y9xj7k9xc50YJJ4H6PtX0B8A8/l3X9P3PgX9R3PgXmr+34F5/D7d19TvhG/vrRGzemmk8epCxSPbZ5HNkcCNA486ZDegdBfrUco336LFZTZmvuumzU000aaKOzPeWXLzgRQB/HnWLSYtfuYfNTTStORRWSSYwgGW5TNXkHGhB7zgWv000nyv0QsUuDAfnGepaaUA0lPsL4pTGXxtcRv6dhVpiNS+427SrzepQBS2d8MwZfuuoat0VBG6/mEPtUdnfNM5pfdbQUaOM1UwkNLYWMj+NxUYp4HQSNjwlHUO85ahYjO2KX93LSo++mhYOWTCWuSIZ6mtT/ZNsExfD++bm3n5qz2SSfCsvi7mAGslQlzBJaLr2nTmBzHgtc/d+Y/2XZwXNu7Fzbezgtc/d3X8wh9qaM0Uji772kK6MK8y0FflOqEGB0MkAifnoW0qjYoXBhF6cyOzgfR5VIN7NKSPQWgJ1igIjIvTYRxqByN5UyzxseXDB2pjywgfSHGgwOimha0mtC0tqozdnaxoOemg5xUI2NlnjdZXR0D75vE6SpIY8JZXCgv72RtKcWhPskcF6gaA4vdTWd15vJ3U11HGzwlpPK0AhTQMjZAZK0ferebSqFihkbfNJnyO8knjbyqywxyCcNqHOu3XNFK+hSXCWQSNkLcwvOpoV0XoJmOkz8QBUL7jpYomxurxtrVYkyBoie00ffcSeUqQb9jADwP0favoD4B5/Luv6fufAv6jufAvNX9vwLz+H27r6nfCYPItMTz6GlU31ofMY8/ym0CbGHUs2AlF6l3QajlTbFDI2+aSvkd5JPG3lRG8kbCG/8QarEoXtv/vnSO8ivG3NnTLLGSW+9TteY3s+tyoAStMDYZDWhFDW8muwc/vlDX5TiViUcDWNeH0ffcSRpJT42VgnwkRvZn1cTnpo0p1ijg3t1tHl7vXybr+YQ+1WaJstYsG9hdd46ghTXMK624w0V3vFmzKSxRwNfCY8zy92+05+RPihbHGKPkrev05Bmoi0by3SSnP8V1URmmuXPuZRGATxx2Zsb4TJcF/l1p0bRg7W+Rwacwaa6OC1z935j/ZdnBc27sXNt7OC1z93dfzCH2/AvN5O6vN4+78B+j7V9AfAPP5d1/T9xQWVj4YHFriX0c67pu5lZImPwsGFDnGgAUkIEzJsDg72a8dfIpGwl7YHStMT7zTTiU1nY2G03QCHb4OIqomQmOBxDg6Sj3XdN0KxxMeTC2Uue6gAdoGbjKwVZpbfIxsd74xPLqU8QDm2JxAY6odvhy0Vojgbha0DJL7mEcTlai14jne1oB460pn4lMIayBxYYpL/AJPEd1/UdxWSBj8CG3y91M7s90KONpc58lTI+61m/OlRFjJYpmseWOqNIztI5V7xhzHfcXvusArRXbrmvcxwBqKjkPC+av7fgXn8Pt3X1O+PgX8wh9vwLXP3fmP9l2cFzbuxc23s4LXP3d1/MIfbwBcKnRrRNAOPgfN5O6vN4+6i4VOgcvwD6PtX0B8AdpdJh2aw/Tuv6fuKz2ljIZ3Oc6rSXMvabudWRzGmKw0AeMxAdSmZSzAzvmE2EuZrw1cilNnbfiLGtijujPxk6VfFbM+Iu13G0zKzus4bK8vJkivOZXkVklja7BCNzXt3pA0HMjaRhxajOySnHrCtFoZV9ldD72CLtTxVTn2cMs760jZQvzUqdadK3AzyGVppvmuJqpcWDWijRFFdrrJ3X9R3FZJ424a7hA9taFua8KJssb32d73UkFWOvHj1qWdl+d7XgtbQC7Ti+5eLm0CO48PZeYc9fuUj2ufUklrAweocK3Oyz2bBk/TJr8C8/h9u6+p3x7pcKnQOXcE0A4+D/mEPt9wOBoaH0/ANc/d+Y/2XZwXNu7Fzbezgtc/d3X8wh9qhu4Wd5ALs4AAqSpHsdNDCJI5A2lQeUK0yROjtDwwta2hYXDN6VHPGME9zWwGNxL7v0uJQSNjZgI3hzm3qXvUiWRzTPexziC5rcHpNAnFsxhDMG8NLL9/NnHpVpljkBked627dNzQmyRYAiRoju5ywG7WvKorXFF7yCG3DI9x9A4ky0YLC3s12tHBhqVFaYmYB11rHRudfIHGRoV27fYHU5K7nzeTuprauFnhDRrIACtEzJATMQWtu0NzQjaYZGYe4+KNhN1pNPL5U+0Xo4rriymneVTpo5BM9rXRtjcMHe18fC/R9q+gPgEUpitMX7uQdh1J/g2Kf6Ucl3tWQjt2rIR27VkI7dqyEdu1ZGJxjB73DNzXBRZCO3ashHbtWQjt2rIR27VkI7dqyEdu1ZCO3ashHbtWQjt2rIR27VkI7dqyEdu1ZCO3ashHbtWQjt2rIR27VkI7dqyMRi+E3uGbnviiyEdu1ZCO3ashHbtWQjt2rIR27VkI7dqyEdu1ZCO3ashHbtWQjt2rIR27VkI7dqyEdu1ZCO3ashHbtWQjt2rBRWNp0uvYR/wB1FH6XOOlx5T8C8/h9u6+p3wo57njEYOaul3sTLbC12DrS4Xve76rdAUrdMM5IHLQKWSPCWiQBuarI2nPxaVhWymKAyRyhhb9xBUzozHaai6G52G7e08aZJEIKSNEd3OWje1ryqO1wxe8ght0yPcfQOJNnwWEc4EXdDmg1KitMUeAddax0bnYQgcZGhXbt9gNOTd/zCH2qzSMjpFhHvc29x0ACMsEcotrg57/I4k6e8Y4C9kojLLzaZ8xRtLb8zK4VzK3Wgcg0p7g/BFtJGtLQ8O1Hhdc/d+Y/2XZwXNu7FzbezggK4tMC/wCo7MU01a4VB3P8wh9qwjo3xuvMe3SCr757RNHQmnJoAAUtrkkZD+6jIGbNTPyqG3SxRyPL3sbTSeQ8SvfvGMbT6qE7mvjlfIyQaQXV/NWm0yT4byicwH1RxKa3SSmEm4CAMxFOJNtsjLPIS7BUGYnPp5NShtj4SY2skoAbwb6dBUdocx1ndVj6cvKPvUNtkhwxrIGgaaUqOQqpNBTPnO583k7qk8l9mjGb0Ka2vldDeu1AGZwpxIW5+AbIHsjoM2euc8awpuTNuyx0zOoKLKEzoYvIjzDpEaeFZ++tL2taNVa19C5PmZGKvs8jZgPqqN1WPFRufqd8K+WG81zXDiLTVMtz2PdG1ktGjfU49Swl4WZkjc48rCITvDGy4SGmmI6tSmtskrp2XKnMG+hqv/6c19O9upttkZBKS4x0Gk5/UobY+ImNsb6AGob6dBUdpc11neXskpy10+tQ22SHC/vA0DPmpUchVSaClTnO7/mEPtUVodDM1t28ADVvIQULS++bRh2ycYep7S6YzxYN9QBm1UWNvwkBOCloKgUpQ8qktMkz3GpLvYOLhY87bGx5efpPzU+Y/wBl2cFzbuxc23s4Jwq0ihBXg+2gRf8AhmFWj0FUsHXVywddXLB11csHXTxYhgpmytpf0tVywddXLB11csHXVywddXLB11csHXVywddXLB11csHXVywddXLB11csHXVywddXLB11csHXVywddXLB105thuyMLTS/xprbDdjYGit/iVywddXLB11csHXVywddXLB11csHXVywddXLB11csHXVywddXLB11csHXVywddXLB11csHXRlscQ5WhxP91LK6e0u0yu9g4vmd4NteCa41MLxVn3cipYD01csHXVywddXLB11ILEGvpW7frmNVcsHXVywddXLB11csHXVywddXLB11csHXVywddXLB11csHXVywddXLB11csHXVywddXLB11csHXVywddPFiGCmbK2l/S1XLB11csHXVywddXLB11csHXVywddXLB11csHXVywddXLB11csHXVywddXLB11csHXVywddXLB11NbYYG8eBBJ/uoRrcTpceU/Mf7Ls4Lm3di5tvZ/vl9l2cFzbuxc23s/3y+y7OC5t3Yubb2f75fZdnBc27sXNt7P98vsuzgubd2Lm29n++X2XZwXNu7Fzbez/AHy+y7OC5t3Yubb2f75fZdnBc27sXNt7P98vsuzgubd2Lm29n++X2XZwQ0uYR60MWo0AfG4l4t1l4t1l4t1l4t1l4t1l4t1l4t1l4t1l4t1l4t1l4t1l4t1l4t1l4t1l4t1l4t1l4t1l4t1l4t1l4t1l4t1l4t1l4t1l4t1l4t1l4t1l4t1l4t1l4t1l4t1l4t1l4t1l4t1l4t1l4t1l4t1l4t1l4t1l4t1l4t1l4t1l4t1l4t1l4t1l4t1l4t1l4t1l4t1l4t1l4t1l4t1l4t1l4t1l4t1l4t1l4t1l4t1l4t1l4t1l4t1l4t1l4t1l4t1l4t1l4t1l4t1l4t1l4t1l4t1l4t1l4t1l4t1l4t1l4t1l4t1l4t1l4t1l4t1l4t1l4t1l4t1l4t1l4t1l4t1l4t1l4t1l4t1l4t1l4t1l4t1l4t1l4t1l4t1l4t1l4t1l4t1l4t1l4t1l4t1l4t1l4t1l4t1l4t1l4t1l4t1l4t1l4t1l4t1l4t1l4t1l4t1l4t1l4t1l4t1l4t1l4t1l4t1l4t1l4t1l4t1l4t1l4t1l4t1l4t1l4t1l4t1l4t1l4t1l4t1l4t1l4t1l4t1l4t1l4t1l4t1l4t1l4t1l4t1l4t1l4t1l4t1l4t1l4t1l4t1l4t1l4t1l4t1l4t1l4t1l4t1l4t1l4t1l4t1l4t1l4t1l4t1l4t1l4t1l4t1l4t1l4t1l4t1l4t1l4t1l4t1l4t1l4t1l4t1l4t1l4t1l4t1l4t1l4t1l4t1l4t1l4t1l4t1l4t1l4t1l4t1l4t1l4t1l4t1l4t1l4t1l4t1l4t1l4t1l4t1l4t1l4t1l4t1l4t1l4t1l4t1l4t1l4t1l4t1l4t1l4t1l4t1l4t1l4t1l4t1l4t1l4t1l4t1l4t1l4t1l4t1l4t1l4t1l4t1l4t1l4t1l4t1l4t1l4t1l4t1l4t1l4t1l4t1l4t1l4t1l4t1l4t1l4t1l4t1l4t1l4t1l4t1l4t1l4t1l4t1l4t1l4t1l4t1l4t1l4t1l4t1l4t1lMWVku+RXi9P/APD3/9k=;" vertex="1" parent="1">
          <mxGeometry x="-800" y="1390" width="926.61" height="600" as="geometry" />
        </mxCell>
      </root>
    </mxGraphModel>
  </diagram>
</mxfile>
